<svg width="70" height="20" viewBox="0 0 70 20" fill="none" xmlns="http://www.w3.org/2000/svg">
<g clip-path="url(#custom-dolve-logo-icon-clip-path-id)">
<path d="M11.2701 15.084C11.2701 16.4456 9.21288 18.3201 7.24508 18.3201C5.27728 18.3201 0 18.3201 0 18.3201V8.34662C0 8.34662 6.08229 8.34662 7.51342 8.34662C8.94455 8.34662 11.2701 10.3448 11.2701 11.6534C11.2701 12.29 11.2701 14.5535 11.2701 15.084ZM9.15922 14.4474C9.15922 13.8639 9.15922 12.8559 9.15922 12.3608C9.15922 11.3882 7.78176 10.3625 6.8873 10.3625C5.99285 10.3625 2.11091 10.3625 2.11091 10.3625V16.4987C2.11091 16.4987 5.99285 16.4987 6.70841 16.4987C7.42397 16.4987 9.15922 15.6499 9.15922 14.4474Z" fill="#3775AE"/>
<path d="M25.4561 15.084C25.4561 16.4456 23.3989 18.3201 21.4311 18.3201C19.4633 18.3201 19.0161 18.3201 19.0161 18.3201V16.481C19.0161 16.481 19.5527 16.481 20.8944 16.481C22.2361 16.481 23.3452 15.5438 23.3452 14.4474C23.3452 13.351 23.3452 13.6163 23.3452 12.3608C23.3452 11.1052 22.1109 10.3625 21.0733 10.3625C20.0357 10.3625 19.0161 10.3625 19.0161 10.3625V8.34662C19.0161 8.34662 20.2683 8.34662 21.6994 8.34662C23.1305 8.34662 25.4561 10.3448 25.4561 11.6534C25.4561 12.29 25.4561 14.5535 25.4561 15.084Z" fill="#3775AE"/>
<path d="M70 12.0778C70 12.7145 69.7853 13.6517 68.6941 13.6517C66.7263 13.6517 64.0966 13.6163 64.0966 13.6163V12.3785C64.0966 12.3785 67.4419 12.3431 67.8891 12.3431C68.2111 12.3431 68.2826 10.3449 67.8533 10.3449C67.1377 10.3449 63.2022 10.3095 63.2022 10.3095L63.1664 11.4236L60.7156 11.4589V8.57652C60.7156 8.57652 67.2093 8.52347 68.6404 8.52347C70.0715 8.52347 69.9821 9.60216 69.9821 10.2211C70 10.5217 70 11.8303 70 12.0778Z" fill="#3775AE"/>
<path d="M70 16.3925C70 17.0115 70.0895 18.0902 68.6583 18.0902C67.2272 18.0902 60.7335 18.0371 60.7335 18.0371V15.1547L63.1843 15.1901L63.22 16.3041C63.22 16.3041 67.1556 16.2688 67.8712 16.2688C68.3005 16.2688 68.229 14.2705 67.907 14.2705C67.4598 14.2705 64.1145 14.2352 64.1145 14.2352V12.9973C64.1145 12.9973 66.7442 12.962 68.712 12.962C69.8211 12.962 70.0179 13.8815 70.0179 14.5358C70 14.7834 70 16.0919 70 16.3925Z" fill="#3775AE"/>
<path d="M13.381 11.6357C13.381 10.3448 15.7066 8.32892 17.1377 8.32892C18.5688 8.32892 19.8211 8.32892 19.8211 8.32892V10.3272C19.8211 10.3272 18.8014 10.3272 17.7638 10.3272C16.7262 10.3272 15.4919 11.0699 15.4919 12.3254C15.4919 13.5809 15.4919 13.3157 15.4919 14.412C15.4919 15.5084 16.601 16.4456 17.9427 16.4456C19.2844 16.4456 19.8211 16.4456 19.8211 16.4456V18.3024C19.8211 18.3024 19.3738 18.3024 17.406 18.3024C15.4382 18.3024 13.381 16.4456 13.381 15.084C13.381 14.5535 13.381 12.29 13.381 11.6357Z" fill="#3775AE"/>
<path d="M29.9821 8.34662H27.8712V18.3378H29.9821V8.34662Z" fill="#3775AE"/>
<path d="M37.0125 16.3042H29.8032V18.3378H37.0125V16.3042Z" fill="#3775AE"/>
<path d="M46.9231 20.0177C48.652 20.0177 50.0536 18.6322 50.0536 16.9231C50.0536 15.214 48.652 13.8285 46.9231 13.8285C45.1941 13.8285 43.7925 15.214 43.7925 16.9231C43.7925 18.6322 45.1941 20.0177 46.9231 20.0177Z" fill="#965BB1"/>
<path d="M47.0483 9.40763C43.1306 9.40763 41.1091 12.0778 41.1091 12.0778C39.6243 13.298 37.0304 11.4059 40.2505 8.87713C40.2505 8.87713 43.2022 6.57828 47.0483 6.57828V9.40763Z" fill="#965BB1"/>
<path d="M46.9588 9.40763C50.8765 9.40763 52.898 12.0778 52.898 12.0778C54.3828 13.298 56.9767 11.4059 53.7567 8.87713C53.7567 8.87713 50.805 6.57828 46.9588 6.57828V9.40763Z" fill="#965BB1"/>
<path d="M46.8873 3.14766C41.127 3.14766 38.1216 6.70203 38.1216 6.70203C36.136 8.32891 33.3989 6.11848 37.0125 3.34218C37.0125 3.34218 40.7335 0 46.8873 0V3.14766Z" fill="#965BB1"/>
<path d="M46.8873 3.14766C52.6476 3.14766 55.6529 6.70203 55.6529 6.70203C57.6386 8.32891 60.3757 6.11848 56.7621 3.34218C56.7621 3.34218 53.0411 0 46.8873 0V3.14766Z" fill="#965BB1"/>
</g>
<defs>
<clipPath id="custom-dolve-logo-icon-clip-path-id">
<rect width="70" height="20" fill="white"/>
</clipPath>
</defs>
</svg>
