<svg width="60" height="55" viewBox="0 0 60 55" fill="none" xmlns="http://www.w3.org/2000/svg">
<circle cx="30.6486" cy="25.1622" r="17.0878" stroke="#6C6C6C" stroke-width="1.5"/>
<rect x="26.8647" y="5.16216" width="7.56757" height="7.56757" fill="white"/>
<rect x="43.9822" y="28.8045" width="7.56757" height="9.8833" transform="rotate(34.6902 43.9822 28.8045)" fill="white"/>
<rect width="7.56757" height="9.8833" transform="matrix(-0.822241 0.569139 0.569139 0.822241 17.9524 28.8045)" fill="white"/>
<path d="M19.7675 35.2521C19.7675 36.172 19.5946 36.8664 19.2489 37.3351C18.9061 37.8009 18.3832 38.0338 17.6801 38.0338C16.9887 38.0338 16.4672 37.8068 16.1156 37.3527C15.767 36.8957 15.5883 36.2204 15.5795 35.3268V34.2194C15.5795 33.2995 15.7509 32.6095 16.0936 32.1496C16.4393 31.6896 16.9652 31.4596 17.6713 31.4596C18.3715 31.4596 18.893 31.6837 19.2357 32.132C19.5814 32.5802 19.7587 33.2511 19.7675 34.1447V35.2521ZM18.6996 34.0568C18.6996 33.4562 18.6176 33.0168 18.4535 32.7384C18.2894 32.4572 18.0287 32.3166 17.6713 32.3166C17.3226 32.3166 17.0663 32.4499 16.9022 32.7165C16.7382 32.9801 16.6517 33.3932 16.643 33.9557V35.4059C16.643 36.0036 16.7265 36.4489 16.8934 36.7419C17.0604 37.0348 17.3226 37.1813 17.6801 37.1813C18.0228 37.1813 18.2763 37.0465 18.4403 36.777C18.6044 36.5045 18.6908 36.0797 18.6996 35.5026V34.0568Z" fill="#6C6C6C"/>
<path d="M46.9264 37.946H42.6242V37.2121L44.7555 34.8874C45.0631 34.5446 45.2814 34.2589 45.4103 34.0304C45.5421 33.799 45.608 33.5675 45.608 33.3361C45.608 33.0314 45.5216 32.7853 45.3488 32.5978C45.1788 32.4103 44.9489 32.3166 44.6588 32.3166C44.3131 32.3166 44.0451 32.422 43.8546 32.633C43.6642 32.8439 43.569 33.1325 43.569 33.4987H42.5011C42.5011 33.109 42.589 32.7589 42.7648 32.4484C42.9435 32.1349 43.1969 31.8918 43.525 31.7189C43.8561 31.5461 44.237 31.4596 44.6676 31.4596C45.2887 31.4596 45.778 31.6164 46.1354 31.9298C46.4957 32.2404 46.6759 32.6711 46.6759 33.2218C46.6759 33.5412 46.5851 33.8766 46.4035 34.2282C46.2247 34.5768 45.9303 34.9738 45.5202 35.4191L43.9557 37.0934H46.9264V37.946Z" fill="#6C6C6C"/>
<path d="M31.4616 12H30.3981V6.86279L28.8292 7.39893V6.49805L31.3253 5.57959H31.4616V12Z" fill="#6C6C6C"/>
<path d="M34.8401 26.0946L34.8284 26.1592L34.8679 26.2116L39.8748 32.8519L32.2241 29.0384L32.1739 29.0134L32.1195 29.0275C31.7638 29.12 31.3882 29.1609 31.0013 29.142C28.9509 29.0418 27.37 27.2984 27.4702 25.2481C27.5704 23.1977 29.3137 21.6168 31.3641 21.717C33.4145 21.8172 34.9954 23.5605 34.8952 25.6109C34.8872 25.7755 34.8686 25.9369 34.8401 26.0946Z" fill="#6C6C6C" stroke="white" stroke-width="0.3"/>
</svg>
