<svg width="68" height="55" viewBox="0 0 68 55" fill="none" xmlns="http://www.w3.org/2000/svg">
<circle cx="38.6652" cy="23.6386" r="17.7421" stroke="#6C6C6C" stroke-width="1.5"/>
<rect y="7.38795" width="7.84514" height="7.84514" fill="white"/>
<rect x="52.4878" y="27.4145" width="7.84514" height="10.2458" transform="rotate(34.6902 52.4878 27.4145)" fill="white"/>
<rect width="7.84514" height="10.2458" transform="matrix(-0.822241 0.569139 0.569139 0.822241 25.5032 27.4145)" fill="white"/>
<rect width="7.84514" height="10.2458" transform="matrix(0.822241 -0.569139 -0.569139 -0.822241 52.4878 17.8895)" fill="white"/>
<rect x="25.5032" y="17.8895" width="7.84514" height="10.2458" transform="rotate(-145.31 25.5032 17.8895)" fill="white"/>
<path d="M27.3083 33.8673C27.3083 34.7872 27.1354 35.4816 26.7897 35.9503C26.4469 36.4161 25.924 36.649 25.2209 36.649C24.5294 36.649 24.008 36.422 23.6564 35.9679C23.3078 35.5109 23.1291 34.8356 23.1203 33.942V32.8346C23.1203 31.9147 23.2917 31.2247 23.6344 30.7648C23.9801 30.3048 24.506 30.0748 25.2121 30.0748C25.9123 30.0748 26.4337 30.299 26.7765 30.7472C27.1222 31.1954 27.2995 31.8663 27.3083 32.7599V33.8673ZM26.2404 32.672C26.2404 32.0714 26.1584 31.632 25.9943 31.3536C25.8302 31.0724 25.5695 30.9318 25.2121 30.9318C24.8634 30.9318 24.6071 31.0651 24.443 31.3317C24.279 31.5953 24.1925 32.0084 24.1837 32.5709V34.0211C24.1837 34.6188 24.2672 35.0641 24.4342 35.3571C24.6012 35.65 24.8634 35.7965 25.2209 35.7965C25.5636 35.7965 25.817 35.6617 25.9811 35.3922C26.1452 35.1198 26.2316 34.6949 26.2404 34.1178V32.672Z" fill="#6C6C6C"/>
<path d="M52.391 32.8741H53.0414C53.3695 32.8712 53.6288 32.7863 53.8192 32.6193C54.0126 32.4523 54.1093 32.2106 54.1093 31.8942C54.1093 31.5895 54.0287 31.3536 53.8676 31.1866C53.7094 31.0167 53.4662 30.9318 53.1381 30.9318C52.851 30.9318 52.6151 31.0153 52.4306 31.1823C52.246 31.3463 52.1537 31.5616 52.1537 31.8282H51.0858C51.0858 31.5001 51.1723 31.2013 51.3451 30.9318C51.5209 30.6622 51.7641 30.4528 52.0746 30.3033C52.3881 30.151 52.7382 30.0748 53.1249 30.0748C53.7636 30.0748 54.2646 30.236 54.6278 30.5582C54.994 30.8776 55.1772 31.3229 55.1772 31.8942C55.1772 32.1813 55.0849 32.4523 54.9003 32.7072C54.7187 32.9591 54.4828 33.1495 54.1928 33.2784C54.5443 33.3986 54.8109 33.5875 54.9926 33.8453C55.1772 34.1031 55.2694 34.4108 55.2694 34.7682C55.2694 35.3424 55.0717 35.7994 54.6762 36.1393C54.2836 36.4791 53.7665 36.649 53.1249 36.649C52.5097 36.649 52.0058 36.485 51.6132 36.1569C51.2206 35.8287 51.0243 35.3922 51.0243 34.8473H52.0922C52.0922 35.1285 52.1859 35.3571 52.3734 35.5328C52.5639 35.7086 52.8188 35.7965 53.1381 35.7965C53.4691 35.7965 53.7299 35.7086 53.9203 35.5328C54.1107 35.3571 54.206 35.1022 54.206 34.7682C54.206 34.4313 54.1064 34.172 53.9071 33.9904C53.7079 33.8087 53.412 33.7179 53.0194 33.7179H52.391V32.8741Z" fill="#6C6C6C"/>
<path d="M26.5898 14.1466H25.5263V9.00941L23.9574 9.54555V8.64467L26.4535 7.72621H26.5898V14.1466Z" fill="#6C6C6C"/>
<path d="M54.3378 14.1466H50.0356V13.4127L52.1669 11.088C52.4745 10.7453 52.6928 10.4596 52.8217 10.2311C52.9535 9.99965 53.0194 9.7682 53.0194 9.53676C53.0194 9.23207 52.933 8.98598 52.7602 8.79848C52.5902 8.61098 52.3603 8.51723 52.0702 8.51723C51.7245 8.51723 51.4564 8.6227 51.266 8.83363C51.0756 9.04457 50.9804 9.33315 50.9804 9.69936H49.9125C49.9125 9.30971 50.0004 8.95961 50.1762 8.64906C50.3549 8.33559 50.6083 8.09242 50.9364 7.91957C51.2675 7.74672 51.6483 7.66029 52.079 7.66029C52.7001 7.66029 53.1894 7.81703 53.5468 8.13051C53.9071 8.44106 54.0873 8.87172 54.0873 9.4225C54.0873 9.74184 53.9965 10.0773 53.8148 10.4288C53.6361 10.7775 53.3417 11.1745 52.9315 11.6198L51.3671 13.2941H54.3378V14.1466Z" fill="#6C6C6C"/>
<path d="M43.0158 24.6063L43.0041 24.6708L43.0436 24.7232L48.2482 31.6257L40.296 27.662L40.2457 27.6369L40.1914 27.6511C39.8221 27.7471 39.4321 27.7895 39.0305 27.7699C36.9019 27.6659 35.2606 25.856 35.3647 23.7274C35.4687 21.5988 37.2786 19.9575 39.4072 20.0616C41.5358 20.1656 43.177 21.9755 43.073 24.1041C43.0647 24.2749 43.0453 24.4425 43.0158 24.6063Z" fill="#6C6C6C" stroke="white" stroke-width="0.3"/>
</svg>
