<svg width="80" height="80" viewBox="0 0 80 80" fill="none" xmlns="http://www.w3.org/2000/svg">
<path fill-rule="evenodd" clip-rule="evenodd" d="M56.2319 35H62C62.5522 35 63 35.4473 63 36V44C63 44.5527 62.5522 45 62 45H56.2319C55.9189 46.0195 55.5112 47.0049 55.0142 47.9434L59.0918 52.0205C59.2793 52.208 59.3848 52.4619 59.3848 52.7275C59.3848 52.9932 59.2793 53.2471 59.0918 53.4346L53.4351 59.0918C53.0444 59.4824 52.4116 59.4824 52.021 59.0918L47.9429 55.0146C47.0049 55.5107 46.0195 55.9189 45 56.2314V62C45 62.5527 44.5522 63 44 63H36C35.4477 63 35 62.5527 35 62V56.2314C33.9805 55.9189 32.9951 55.5107 32.0571 55.0146L27.979 59.0918C27.5884 59.4824 26.9556 59.4824 26.5649 59.0918L20.9082 53.4346C20.7207 53.2471 20.6152 52.9932 20.6152 52.7275C20.6152 52.4619 20.7207 52.208 20.9082 52.0205L24.9858 47.9434C24.4888 47.0049 24.0811 46.0195 23.7681 45H18C17.4477 45 17 44.5527 17 44V36C17 35.4473 17.4477 35 18 35H23.7681C24.081 33.9805 24.4888 32.9951 24.9858 32.0566L20.9082 27.9795C20.7207 27.792 20.6152 27.5381 20.6152 27.2725C20.6152 27.0068 20.7207 26.7529 20.9082 26.5654L26.5649 20.9082C26.9556 20.5176 27.5884 20.5176 27.979 20.9082L32.0571 24.9853C32.9951 24.4892 33.9805 24.081 35 23.7685V18C35 17.4473 35.4478 17 36 17H44C44.5522 17 45 17.4473 45 18V23.7685C46.0195 24.081 47.0049 24.4893 47.9429 24.9853L52.021 20.9082C52.4116 20.5176 53.0444 20.5176 53.4351 20.9082L59.0918 26.5654C59.2793 26.7529 59.3848 27.0068 59.3848 27.2725C59.3848 27.5381 59.2793 27.792 59.0918 27.9795L55.0142 32.0566C55.5112 32.9951 55.9189 33.9805 56.2319 35ZM40 48.4333C44.6576 48.4333 48.4333 44.6576 48.4333 40C48.4333 35.3424 44.6576 31.5667 40 31.5667C35.3424 31.5667 31.5667 35.3424 31.5667 40C31.5667 44.6576 35.3424 48.4333 40 48.4333Z" fill="currentColor"/>
</svg>
