<svg width="15" height="16" viewBox="0 0 15 16" fill="none" xmlns="http://www.w3.org/2000/svg">
<path d="M7.54172 9.6684C8.5676 9.6684 9.39924 8.83677 9.39924 7.81089C9.39924 6.78501 8.5676 5.95337 7.54172 5.95337C6.51584 5.95337 5.6842 6.78501 5.6842 7.81089C5.6842 8.83677 6.51584 9.6684 7.54172 9.6684Z" stroke="currentColor" stroke-width="1.5" stroke-miterlimit="10" stroke-linecap="round" stroke-linejoin="round"/>
<path d="M12.4951 7.8109C12.4944 7.4542 12.4553 7.09862 12.3787 6.75025L14.0591 5.47786L12.8208 3.33304L10.8747 4.15406C10.3477 3.67092 9.72221 3.3078 9.04134 3.08971L8.78005 1H6.30336L6.04207 3.08971C5.36119 3.3078 4.7357 3.67092 4.2087 4.15406L2.26264 3.33304L1.02429 5.47786L2.70473 6.75025C2.54956 7.44884 2.54956 8.17296 2.70473 8.87154L1.02429 10.1439L2.26264 12.2888L4.2087 11.4677C4.7357 11.9509 5.36119 12.314 6.04207 12.5321L6.30336 14.6218H8.78005L9.04134 12.5321C9.72221 12.314 10.3477 11.9509 10.8747 11.4677L12.8208 12.2888L14.0591 10.1439L12.3787 8.87154C12.4553 8.52318 12.4944 8.16759 12.4951 7.8109V7.8109Z" stroke="currentColor" stroke-width="1.5" stroke-miterlimit="10" stroke-linecap="round" stroke-linejoin="round"/>
</svg>
