<svg width="43" height="64" viewBox="0 0 43 64" fill="none" xmlns="http://www.w3.org/2000/svg">
<path d="M0.130213 7.61879C0.130543 4.38297 10.0442 0.571167 21.0501 0.571167C32.056 0.571167 42.3385 4.38297 42.3382 7.61879C42.3379 10.8546 42.0551 54.1565 42.0551 56.2562C42.0551 58.3558 37.8629 64 21.0928 64C4.32277 64 0.129883 58.3558 0.129883 56.2562C0.129883 54.1565 0.129883 10.8546 0.130213 7.61879Z" fill="white"/>
<path d="M0.130213 7.61879C0.130543 4.38297 10.0442 0.571167 21.0501 0.571167C32.056 0.571167 42.3385 4.38297 42.3382 7.61879C42.3379 10.8546 42.0551 54.1565 42.0551 56.2562C42.0551 58.3558 37.8629 64 21.0928 64C4.32277 64 0.129883 58.3558 0.129883 56.2562C0.129883 54.1565 0.129883 10.8546 0.130213 7.61879Z" fill="url(#paint0_linear)"/>
<path d="M8.86316 16.1635C8.86316 15.0589 9.75859 14.1635 10.8632 14.1635H31.606C32.7105 14.1635 33.606 15.0589 33.606 16.1635V49.9187C33.606 51.0233 32.7105 51.9187 31.606 51.9187H10.8632C9.75859 51.9187 8.86316 51.0233 8.86316 49.9187V16.1635Z" fill="white"/>
<path d="M8.86316 32.2859H33.606V49.9186C33.606 51.0232 32.7105 51.9186 31.606 51.9186H10.8632C9.75859 51.9186 8.86316 51.0232 8.86316 49.9186V32.2859Z" fill="#FFD732"/>
<defs>
<linearGradient id="paint0_linear" x1="31.075" y1="16.1936" x2="31.1809" y2="66.1739" gradientUnits="userSpaceOnUse">
<stop stop-color="#C4C4C4"/>
<stop offset="1" stop-color="#898989"/>
</linearGradient>
</defs>
</svg>
