<svg width="22" height="21" viewBox="0 0 22 21" fill="none"
    xmlns="http://www.w3.org/2000/svg">
    <path d="M11 3.9375C6.625 3.9375 2.88875 6.65875 1.375 10.5C2.88875 14.3412 6.625 17.0625 11 17.0625C15.375 17.0625 19.1112 14.3412 20.625 10.5C19.1112 6.65875 15.3794 3.9375 11 3.9375ZM11 14.875C8.585 14.875 6.625 12.915 6.625 10.5C6.625 8.085 8.585 6.125 11 6.125C13.415 6.125 15.375 8.085 15.375 10.5C15.375 12.915 13.415 14.875 11 14.875ZM11 7.875C9.55188 7.875 8.375 9.05188 8.375 10.5C8.375 11.9481 9.55188 13.125 11 13.125C12.4481 13.125 13.625 11.9481 13.625 10.5C13.625 9.05188 12.4481 7.875 11 7.875Z" fill="currentColor"/>
</svg>
