<svg width="60" height="29" viewBox="0 8 60 18" fill="none" xmlns="http://www.w3.org/2000/svg">
<path d="M13 5.75H45C46.7949 5.75 48.25 7.20508 48.25 9V10.8C48.25 11.3247 48.6753 11.75 49.2 11.75H51C51.6904 11.75 52.25 12.3096 52.25 13V21C52.25 21.6904 51.6904 22.25 51 22.25H49.2C48.6753 22.25 48.25 22.6753 48.25 23.2V25C48.25 26.7949 46.7949 28.25 45 28.25H13C11.2051 28.25 9.75 26.7949 9.75 25V9C9.75 7.20508 11.2051 5.75 13 5.75Z" stroke="currentColor" stroke-width="1.5"/>
<path d="M30 13V17L39 16L28 21V17L19 18L30 13Z" fill="currentColor"/>
</svg>
