<svg width="18" height="20" viewBox="0 0 18 20" fill="none" xmlns="http://www.w3.org/2000/svg">
<path fill-rule="evenodd" clip-rule="evenodd" d="M8 0H10V2.07645C13.0985 2.5549 15.4746 5.22166 15.4998 8.44824L15.5 8.5V10.5194L18 12.5194V17H12.874C12.4299 18.7252 10.8638 20 9 20C7.13616 20 5.57006 18.7252 5.12602 17H0V12.5194L2.5 10.5194V8H2.51894C2.74888 4.97734 5.04617 2.53255 8 2.07645V0ZM16 15V13.4806L13.5 11.4806V8.5C13.5 6.01472 11.4853 4 9 4C6.51472 4 4.5 6.01472 4.5 8.5V11.4806L2 13.4806V15H16ZM10.7324 17H7.26756C7.61337 17.5978 8.25972 18 9 18C9.74028 18 10.3866 17.5978 10.7324 17Z" fill="#626262"/>
</svg>
