<svg width="14" height="14" viewBox="0 0 14 14" fill="none" xmlns="http://www.w3.org/2000/svg">
<path d="M8.75 12.25H5.25C5.25 13.2125 6.0375 14 7 14C7.9625 14 8.75 13.2125 8.75 12.25Z" fill="#DD4534"/>
<path d="M13.125 9.625H12.6875C12.075 9.0125 11.375 8.1375 11.375 7V4.375C11.375 1.925 9.45 0 7 0C4.55 0 2.625 1.925 2.625 4.375V7C2.625 8.1375 1.925 9.0125 1.3125 9.625H0.875C0.35 9.625 0 9.975 0 10.5C0 11.025 0.35 11.375 0.875 11.375H13.125C13.65 11.375 14 11.025 14 10.5C14 9.975 13.65 9.625 13.125 9.625Z" fill="#DD4534"/>
</svg>
