<svg width="14" height="14" viewBox="0 0 14 14" fill="none" xmlns="http://www.w3.org/2000/svg">
<path d="M1 4.99805H13" stroke="currentColor" stroke-miterlimit="10" stroke-linecap="round" stroke-linejoin="round"/>
<path d="M12.2 2.60144H1.8C1.58783 2.60144 1.38434 2.68571 1.23431 2.83572C1.08429 2.98573 1 3.18918 1 3.40133V12.2001C1 12.4122 1.08429 12.6157 1.23431 12.7657C1.38434 12.9157 1.58783 13 1.8 13H12.2C12.4122 13 12.6157 12.9157 12.7657 12.7657C12.9157 12.6157 13 12.4122 13 12.2001V3.40133C13 3.18918 12.9157 2.98573 12.7657 2.83572C12.6157 2.68571 12.4122 2.60144 12.2 2.60144V2.60144Z" stroke="currentColor" stroke-miterlimit="10" stroke-linecap="round" stroke-linejoin="round"/>
<path d="M4.19998 1V2.59977" stroke="currentColor" stroke-miterlimit="10" stroke-linecap="round" stroke-linejoin="round"/>
<path d="M9.80002 1V2.59977" stroke="currentColor" stroke-miterlimit="10" stroke-linecap="round" stroke-linejoin="round"/>
</svg>
