<svg width="22" height="24" viewBox="0 0 22 24" fill="none" xmlns="http://www.w3.org/2000/svg">
<path d="M8.99926 2.49952C8.99917 2.69653 9.0379 2.89164 9.11322 3.07368C9.18855 3.25573 9.299 3.42116 9.43826 3.56052L18.3783 12.4995L9.43826 21.4385C9.15687 21.7199 8.99878 22.1016 8.99878 22.4995C8.99878 22.8975 9.15687 23.2791 9.43826 23.5605C9.71965 23.8419 10.1013 24 10.4993 24C10.8972 24 11.2789 23.8419 11.5603 23.5605L21.5603 13.5605C21.6997 13.4212 21.8102 13.2558 21.8857 13.0738C21.9611 12.8917 21.9999 12.6966 21.9999 12.4995C21.9999 12.3025 21.9611 12.1073 21.8857 11.9253C21.8102 11.7432 21.6997 11.5778 21.5603 11.4385L11.5603 1.43852C11.3505 1.2286 11.0831 1.08563 10.7921 1.02769C10.501 0.969761 10.1993 0.999467 9.92515 1.11305C9.65097 1.22664 9.41665 1.41901 9.25184 1.6658C9.08703 1.9126 8.99913 2.20274 8.99926 2.49952V2.49952Z" fill="#9E9E9E"/>
<path d="M0.999263 2.49952C0.999173 2.69653 1.0379 2.89164 1.11322 3.07368C1.18855 3.25573 1.299 3.42116 1.43826 3.56052L10.3783 12.4995L1.43826 21.4385C1.15687 21.7199 0.99878 22.1016 0.998779 22.4995C0.998779 22.8975 1.15687 23.2791 1.43826 23.5605C1.71965 23.8419 2.10131 24 2.49926 24C2.89721 24 3.27887 23.8419 3.56026 23.5605L13.5603 13.5605C13.6997 13.4212 13.8102 13.2558 13.8857 13.0738C13.9611 12.8917 13.9999 12.6966 13.9999 12.4995C13.9999 12.3025 13.9611 12.1073 13.8857 11.9253C13.8102 11.7432 13.6997 11.5778 13.5603 11.4385L3.56026 1.43852C3.35048 1.2286 3.08315 1.08563 2.79209 1.02769C2.50102 0.969761 2.19932 0.999467 1.92515 1.11305C1.65097 1.22664 1.41665 1.41901 1.25184 1.6658C1.08703 1.9126 0.999128 2.20274 0.999263 2.49952Z" fill="#9E9E9E"/>
</svg>
