<svg width="37" height="37" viewBox="0 0 37 37" fill="none" xmlns="http://www.w3.org/2000/svg">
<ellipse cx="18" cy="18.5" rx="18" ry="18.5" fill="#707070"/>
<path d="M18.1566 18.4495C20.1769 16.4292 22.1421 8.29292 22.1421 8.29292C22.1421 8.29292 24.2635 17.4853 26.3159 19.0327C28.3683 20.5801 36.0317 22.6876 36.0317 22.6876C36.0317 22.6876 27.8954 24.6528 25.8751 26.6731C23.8548 28.6934 22.3947 36.3247 22.3947 36.3247C22.3947 36.3247 19.7683 27.6373 17.7158 26.09C15.6634 24.5426 8 22.4351 8 22.4351C8 22.4351 16.1363 20.4699 18.1566 18.4495Z" fill="#52B8FF"/>
<path d="M11.0626 6.06253C11.8708 5.25441 12.6569 1.99988 12.6569 1.99988C12.6569 1.99988 13.5054 5.67684 14.3264 6.29579C15.1473 6.91474 18.2127 7.75775 18.2127 7.75775C18.2127 7.75775 14.9582 8.54384 14.15 9.35196C13.3419 10.1601 12.7579 13.2126 12.7579 13.2126C12.7579 13.2126 11.7073 9.73765 10.8863 9.1187C10.0654 8.49976 7 7.65674 7 7.65674C7 7.65674 10.2545 6.87066 11.0626 6.06253Z" fill="#52B8FF"/>
<circle cx="6" cy="15" r="2" fill="#52B8FF"/>
</svg>
