<svg width="26" height="26" viewBox="0 0 26 26" fill="none" xmlns="http://www.w3.org/2000/svg">
<path d="M6 13C6 9.13401 9.13401 6 13 6C14.2029 6 15.3322 6.30259 16.3188 6.835L17.2686 5.07492C15.9974 4.38894 14.5426 4 13 4C8.02944 4 4 8.02944 4 13H6Z" fill="#333333"/>
<path d="M16 16.333C16 17.9899 14.6569 19.333 13 19.333C11.3431 19.333 10 17.9899 10 16.333C10 14.6762 11.3431 13.333 13 13.333C13.1329 13.333 13.2637 13.3416 13.392 13.3584L20.2412 7.20202L15.8636 15.4361C15.9522 15.7193 16 16.0206 16 16.333Z" fill="#333333"/>
<path fill-rule="evenodd" clip-rule="evenodd" d="M26 13C26 20.1797 20.1797 26 13 26C5.8203 26 0 20.1797 0 13C0 5.8203 5.8203 0 13 0C20.1797 0 26 5.8203 26 13ZM24 13C24 19.0751 19.0751 24 13 24C6.92487 24 2 19.0751 2 13C2 6.92487 6.92487 2 13 2C19.0751 2 24 6.92487 24 13Z" fill="#333333"/>
</svg>
