<svg width="17" height="17" viewBox="0 0 17 17" fill="none" xmlns="http://www.w3.org/2000/svg">
<path d="M16.25 8.5C16.25 12.7802 12.7802 16.25 8.5 16.25C4.21979 16.25 0.75 12.7802 0.75 8.5C0.75 4.21979 4.21979 0.75 8.5 0.75C12.7802 0.75 16.25 4.21979 16.25 8.5Z" fill="white" stroke="#1A1A1A" stroke-width="1.5"/>
<path d="M11.8043 9.91667H8.02648C7.5042 9.91667 7.08203 9.4945 7.08203 8.97222V5.19444C7.08203 4.67217 7.5042 4.25 8.02648 4.25C8.54875 4.25 8.97092 4.67217 8.97092 5.19444V8.02778H11.8043C12.3265 8.02778 12.7487 8.44994 12.7487 8.97222C12.7487 9.4945 12.3265 9.91667 11.8043 9.91667Z" fill="#1A1A1A"/>
</svg>
