<svg width="32" height="32" viewBox="0 0 32 32" fill="none" xmlns="http://www.w3.org/2000/svg">
<path d="M9 16C9 12.134 12.134 9 16 9C17.2029 9 18.3322 9.30259 19.3188 9.835L20.2686 8.07492C18.9974 7.38894 17.5426 7 16 7C11.0294 7 7 11.0294 7 16H9Z" fill="#626262"/>
<path d="M19 19.333C19 20.9899 17.6569 22.333 16 22.333C14.3431 22.333 13 20.9899 13 19.333C13 17.6762 14.3431 16.333 16 16.333C16.1329 16.333 16.2637 16.3416 16.392 16.3584L23.2412 10.202L18.8636 18.4361C18.9522 18.7193 19 19.0206 19 19.333Z" fill="#626262"/>
<path fill-rule="evenodd" clip-rule="evenodd" d="M29 16C29 23.1797 23.1797 29 16 29C8.8203 29 3 23.1797 3 16C3 8.8203 8.8203 3 16 3C23.1797 3 29 8.8203 29 16ZM27 16C27 22.0751 22.0751 27 16 27C9.92487 27 5 22.0751 5 16C5 9.92487 9.92487 5 16 5C22.0751 5 27 9.92487 27 16Z" fill="#626262"/>
</svg>
