<svg width="19" height="19" viewBox="0 0 19 19" fill="none" xmlns="http://www.w3.org/2000/svg">
<path d="M0.707107 18.0313C0.316582 17.6408 0.316583 17.0076 0.707107 16.6171L16.2635 1.06076C16.654 0.670239 17.2871 0.670239 17.6777 1.06076C18.0682 1.45129 18.0682 2.08445 17.6777 2.47498L2.12132 18.0313C1.7308 18.4218 1.09763 18.4218 0.707107 18.0313Z" fill="#C4C4C4"/>
<path d="M1.06072 0.707107C1.45124 0.316582 2.0844 0.316583 2.47493 0.707107L18.0313 16.2635C18.4218 16.654 18.4218 17.2871 18.0313 17.6777C17.6408 18.0682 17.0076 18.0682 16.6171 17.6777L1.06072 2.12132C0.670192 1.7308 0.670191 1.09763 1.06072 0.707107Z" fill="#C4C4C4"/>
</svg>
