<svg width="15" height="13" viewBox="0 0 15 13" fill="none" xmlns="http://www.w3.org/2000/svg">
<path d="M3.00001 9L5.55164 4.67985L8.81375 8.44455L12 4" stroke="currentColor" stroke-width="1.5" stroke-miterlimit="10" stroke-linecap="round" stroke-linejoin="round"/>
<path d="M14.5 1C14.7761 1 15 1.22386 15 1.5L15 3.5C15 3.77614 14.7761 4 14.5 4C14.2239 4 14 3.77614 14 3.5L14 1.5C14 1.22386 14.2239 1 14.5 1Z" fill="currentColor"/>
<path d="M0.5 1C0.776142 1 1 1.22386 1 1.5L1 3.5C1 3.77614 0.776142 4 0.5 4C0.223858 4 -1.21349e-07 3.77614 -1.09278e-07 3.5L-2.18557e-08 1.5C-9.78513e-09 1.22386 0.223858 1 0.5 1Z" fill="currentColor"/>
<path d="M14.5 5C14.7761 5 15 5.22386 15 5.5L15 7.5C15 7.77614 14.7761 8 14.5 8C14.2239 8 14 7.77614 14 7.5L14 5.5C14 5.22386 14.2239 5 14.5 5Z" fill="currentColor"/>
<path d="M0.5 5C0.776142 5 1 5.22386 1 5.5L1 7.5C1 7.77614 0.776142 8 0.5 8C0.223858 8 -1.21349e-07 7.77614 -1.09278e-07 7.5L-2.18557e-08 5.5C-9.78513e-09 5.22386 0.223858 5 0.5 5Z" fill="currentColor"/>
<path d="M14.5 9C14.7761 9 15 9.22386 15 9.5L15 11.5C15 11.7761 14.7761 12 14.5 12C14.2239 12 14 11.7761 14 11.5L14 9.5C14 9.22386 14.2239 9 14.5 9Z" fill="currentColor"/>
<path d="M0.5 9C0.776142 9 1 9.22386 1 9.5L1 11.5C1 11.7761 0.776142 12 0.5 12C0.223858 12 -1.21349e-07 11.7761 -1.09278e-07 11.5L-2.18557e-08 9.5C-9.78513e-09 9.22386 0.223858 9 0.5 9Z" fill="currentColor"/>
<path d="M2 12.5C2 12.2239 2.22386 12 2.5 12H4.5C4.77614 12 5 12.2239 5 12.5C5 12.7761 4.77614 13 4.5 13H2.5C2.22386 13 2 12.7761 2 12.5Z" fill="currentColor"/>
<path d="M2 0.5C2 0.223858 2.22386 0 2.5 0H4.5C4.77614 0 5 0.223858 5 0.5C5 0.776142 4.77614 1 4.5 1H2.5C2.22386 1 2 0.776142 2 0.5Z" fill="currentColor"/>
<path d="M6 12.5C6 12.2239 6.22386 12 6.5 12H8.5C8.77614 12 9 12.2239 9 12.5C9 12.7761 8.77614 13 8.5 13H6.5C6.22386 13 6 12.7761 6 12.5Z" fill="currentColor"/>
<path d="M6 0.5C6 0.223858 6.22386 0 6.5 0H8.5C8.77614 0 9 0.223858 9 0.5C9 0.776142 8.77614 1 8.5 1H6.5C6.22386 1 6 0.776142 6 0.5Z" fill="currentColor"/>
<path d="M10 12.5C10 12.2239 10.2239 12 10.5 12H12.5C12.7761 12 13 12.2239 13 12.5C13 12.7761 12.7761 13 12.5 13H10.5C10.2239 13 10 12.7761 10 12.5Z" fill="currentColor"/>
<path d="M10 0.5C10 0.223858 10.2239 0 10.5 0H12.5C12.7761 0 13 0.223858 13 0.5C13 0.776142 12.7761 1 12.5 1H10.5C10.2239 1 10 0.776142 10 0.5Z" fill="currentColor"/>
</svg>
