<svg width="60" height="41" viewBox="0 5 60 41" fill="none" xmlns="http://www.w3.org/2000/svg">
<path d="M39.4662 29.3449L50.3088 39.0153C51.5241 40.0992 51.5779 41.982 50.4264 43.1335V43.1335C49.2749 44.285 47.3921 44.2312 46.3082 43.0159L36.6378 32.1734L39.4662 29.3449Z" stroke="currentColor" stroke-width="1.5"/>
<path d="M18.5164 21.826H23.5873C23.6341 21.826 23.6747 21.7935 23.6849 21.7479L25.1099 15.3901C25.1324 15.2896 25.2738 15.2847 25.3033 15.3834L27.2073 21.7546C27.2199 21.797 27.2589 21.826 27.3031 21.826H29.9451C29.9926 21.826 30.0335 21.8594 30.0431 21.9059L31.2095 27.5829C31.2309 27.6873 31.379 27.6902 31.4045 27.5867L32.806 21.9021C32.817 21.8574 32.8571 21.826 32.9031 21.826H38.5164" stroke="currentColor" stroke-width="1.5"/>
<path d="M42.4714 32.3501L39.643 35.1786" stroke="currentColor" stroke-width="1.5"/>
<circle cx="28.5061" cy="20.5061" r="13.75" transform="rotate(45 28.5061 20.5061)" stroke="currentColor" stroke-width="1.5"/>
<circle cx="28.5061" cy="20.5061" r="10.75" transform="rotate(45 28.5061 20.5061)" stroke="currentColor" stroke-width="1.5"/>
</svg>
