<svg width="25" height="25" viewBox="0 0 25 25" fill="none" xmlns="http://www.w3.org/2000/svg">
<path fill-rule="evenodd" clip-rule="evenodd" d="M24.2667 12.1333C24.2667 18.8344 18.8344 24.2667 12.1333 24.2667C5.43228 24.2667 0 18.8344 0 12.1333C0 5.43228 5.43228 0 12.1333 0C18.8344 0 24.2667 5.43228 24.2667 12.1333ZM22.4 12.1334C22.4 13.37 22.1814 14.5556 21.7807 15.6535C21.63 15.572 21.4438 15.4822 21.2124 15.3858C19.3094 14.5931 17.3684 15.7988 17 17.5C16.6811 18.973 17.101 20.1445 17.7072 20.7567C16.102 21.7964 14.1882 22.4 12.1334 22.4C11.705 22.4 11.2827 22.3738 10.8681 22.3228C11.5508 21.6081 11.6284 20.5744 11.3541 20.2295C10.0893 18.64 10.6288 17.3037 11.074 16.2005C11.4058 15.3787 11.6853 14.6864 11.1276 14.1152C8.66585 11.5939 3.61382 13.875 2.8737 16.4506L2.84685 16.5168C2.21825 15.1875 1.8667 13.7015 1.8667 12.1334C1.8667 11.2004 1.99114 10.2966 2.22432 9.43744C2.74149 9.78994 3.25522 10.0983 3.50684 10.1333C4.57381 10.2815 6.02413 10.1488 7.00684 8.6333C7.14615 8.41845 7.27968 8.19735 7.41151 7.97908C7.89806 7.17346 8.36141 6.40627 9.00684 6.1333C9.64025 5.86541 10.5268 6.44396 11.4664 7.05715C12.1439 7.49934 12.8491 7.95954 13.5068 8.1333C14.8947 8.49991 16.5068 7.1333 17.0068 6.1333C17.2858 5.57546 17.333 4.8985 17.3781 4.25109C17.3997 3.9415 17.4208 3.63867 17.4666 3.35885C20.4247 5.16068 22.4 8.41634 22.4 12.1334Z" fill="currentColor"/>
</svg>
