<svg width="30" height="30" viewBox="0 0 30 30" fill="none" xmlns="http://www.w3.org/2000/svg">
<path fill-rule="evenodd" clip-rule="evenodd" d="M28.8201 26.4799L23.1359 23.9927H23.1281C22.4119 24.5292 20.5619 26.2812 20.5619 26.2812C20.5619 26.2812 18.7119 24.5292 17.9957 23.9927H17.9879L17.9343 24.0195L12.3051 26.4799C11.6527 26.7651 11.1238 27.5754 11.1238 28.2875V29.5696C11.1238 29.8073 11.3168 29.9999 11.5535 29.9999H29.5703C29.8077 29.9999 30 29.812 30 29.5696V28.2875C30 27.5744 29.4728 26.7656 28.8201 26.4799Z" fill="#FFD732"/>
<path d="M21.5966 8.50052C20.6668 6.30124 19.1115 4.56176 17.2296 3.38623C16.8959 4.29542 16.2885 5.56529 15.8385 6.17926C15.3408 6.85819 13.8609 8.52437 12.473 8.15777C10.9032 7.74304 9.38387 5.26286 8.29367 5.72393C7.47337 6.07086 7.02802 7.62843 6.3745 8.63627C5.3918 10.1518 3.87803 10.2916 2.81106 10.1433C2.36381 10.0812 1.41789 9.68997 0.76698 9.18797C-0.110528 11.7105 -0.104043 14.5501 1.01785 17.2038C1.08444 17.3613 1.16576 17.5076 1.23861 17.6604L1.50782 16.9966C2.24794 14.4209 7.29997 12.1399 9.7617 14.6612C11.068 15.999 7.78122 18.0018 9.98819 20.7755C10.3913 21.2822 10.0346 23.2755 8.11565 23.5602C10.516 24.2773 13.1705 24.1956 15.658 23.1435C21.3407 20.7402 23.9995 14.1843 21.5966 8.50052Z" fill="url(#paint0_radial)"/>
<path d="M9.98713 20.7757C7.78015 18.002 11.0669 15.9992 9.76063 14.6613C7.29891 12.14 2.24687 14.4211 1.50675 16.9967L1.23755 17.6605C2.64293 20.6083 5.1834 22.6846 8.11458 23.5604C10.0336 23.2757 10.3902 21.2823 9.98713 20.7757Z" fill="#9E9E9E"/>
<path d="M2.8102 10.1448C3.87717 10.293 5.39093 10.1533 6.37364 8.63775C7.02716 7.62991 7.4725 6.07234 8.2928 5.72541C9.38301 5.26433 10.9023 7.74452 12.4721 8.15925C13.86 8.52585 15.3399 6.85967 15.8376 6.18074C16.2876 5.56677 16.895 4.2969 17.2287 3.38771C14.247 1.52521 10.4393 1.08888 6.95555 2.56227C3.92611 3.8435 1.76805 6.30919 0.766113 9.18945C1.41702 9.69145 2.36294 10.0827 2.8102 10.1448Z" fill="#9E9E9E"/>
<path d="M16.5909 17.1293C16.5909 18.0772 16.3348 18.8456 16.0189 18.8456C15.703 18.8456 15.4469 18.0772 15.4469 17.1293C15.4469 16.1813 15.703 15.4129 16.0189 15.4129C16.3348 15.4129 16.5909 16.1813 16.5909 17.1293Z" fill="#E2BA98"/>
<path d="M25.7104 17.1292C25.7104 18.0771 25.4543 18.8456 25.1384 18.8456C24.8224 18.8456 24.5663 18.0771 24.5663 17.1292C24.5663 16.1813 24.8224 15.4128 25.1384 15.4128C25.4543 15.4128 25.7104 16.1813 25.7104 17.1292Z" fill="#E2BA98"/>
<path d="M23.1357 19.7019H17.9877V26.1382H23.1357V19.7019Z" fill="#EABD97"/>
<path d="M20.5617 22.2764C17.9596 22.2764 16.7007 19.988 15.9857 17.5565L15.8427 15.8401C15.8427 13.2375 17.9596 11.1201 20.5617 11.1201C23.1638 11.1201 25.2808 13.2375 25.2808 15.8401L25.1378 17.5565C24.4228 19.988 23.1638 22.2764 20.5617 22.2764Z" fill="#EAC3A2"/>
<path d="M20.5617 22.2764C17.9596 22.2764 16.7007 19.988 15.9857 17.5565L15.8427 15.8401C15.8427 13.2375 17.9596 11.1201 20.5617 11.1201C23.1638 11.1201 25.2808 13.2375 25.2808 15.8401L25.1378 17.5565C24.4228 19.988 23.1638 22.2764 20.5617 22.2764Z" fill="url(#paint1_linear)"/>
<path fill-rule="evenodd" clip-rule="evenodd" d="M24.5567 24.6145L23.1357 23.9927H23.1279C22.4117 24.5292 20.5617 25.9951 20.5617 25.9951C20.5617 25.9951 18.7117 24.5292 17.9955 23.9927H17.9876L17.934 24.0195L16.5267 24.6346L18.8458 27.9975L20.5417 26.2812L22.2778 27.9975L24.5567 24.6145Z" fill="white"/>
<path d="M18.4183 12.0736C16.6439 12.241 16.6366 16.6351 16.1912 16.2325C15.7458 15.83 14.855 15.9398 15.3003 13.0825C15.7457 10.2252 17.1018 9.57555 18.8638 9.30133C24.8029 8.37702 25.5453 11.1494 25.9907 13.0825C26.4361 15.0156 25.0998 17.1568 24.8029 16.1136C24.5059 15.0705 23.3181 11.6115 18.4183 12.0736Z" fill="#444444"/>
<defs>
<radialGradient id="paint0_radial" cx="0" cy="0" r="1" gradientUnits="userSpaceOnUse" gradientTransform="translate(14.9001 9.16062) rotate(123.42) scale(29.8971 25.3006)">
<stop stop-color="#E8E8E8"/>
<stop offset="1" stop-color="#BFBFBF"/>
</radialGradient>
<linearGradient id="paint1_linear" x1="20.3131" y1="18.9679" x2="21.2088" y2="1.50585" gradientUnits="userSpaceOnUse">
<stop stop-color="#EDC39F"/>
<stop offset="1" stop-color="white" stop-opacity="0"/>
</linearGradient>
</defs>
</svg>
