<svg width="44" height="49" viewBox="0 0 44 49" fill="none" xmlns="http://www.w3.org/2000/svg">
<path d="M9 12C9 10.8954 9.89543 10 11 10H33C34.1046 10 35 10.8954 35 12V40C35 41.1046 34.1046 42 33 42H11C9.89543 42 9 41.1046 9 40V12Z" fill="#707070"/>
<path d="M9 12.8486C9 11.4626 10.3756 10.4968 11.6793 10.9675L27.6793 16.7453C28.4718 17.0315 29 17.7838 29 18.6264V46.1514C29 47.5374 27.6244 48.5032 26.3207 48.0325L10.3207 42.2547C9.52816 41.9685 9 41.2162 9 40.3736V12.8486Z" fill="#52B8FF"/>
</svg>

