<svg width="11" height="12" viewBox="0 0 11 12" fill="none" xmlns="http://www.w3.org/2000/svg">
<path d="M5.07716 0.782926C5.07711 0.885712 5.09476 0.9875 5.12907 1.08248C5.16339 1.17745 5.21371 1.26376 5.27716 1.33646L9.35004 6.00005L5.27715 10.6636C5.14896 10.8105 5.07693 11.0096 5.07693 11.2172C5.07693 11.4248 5.14896 11.6239 5.27715 11.7707C5.40535 11.9175 5.57923 12 5.76052 12C5.94182 12 6.1157 11.9175 6.2439 11.7707L10.7997 6.55359C10.8632 6.48092 10.9136 6.39462 10.948 6.29965C10.9823 6.20467 11 6.10287 11 6.00005C11 5.89724 10.9823 5.79544 10.948 5.70046C10.9136 5.60548 10.8632 5.51919 10.7997 5.44652L6.2439 0.229389C6.14832 0.119872 6.02653 0.0452836 5.89393 0.0150587C5.76133 -0.0151671 5.62388 0.000331061 5.49897 0.0595914C5.37406 0.118852 5.26731 0.21921 5.19223 0.347968C5.11714 0.476726 5.07709 0.628097 5.07716 0.782926Z" fill="#767676"/>
<path d="M0.000220593 0.782926C0.000179911 0.885712 0.0178216 0.9875 0.0521379 1.08248C0.0864543 1.17745 0.136773 1.26376 0.20022 1.33646L4.27311 6.00005L0.200219 10.6636C0.072021 10.8105 1.47594e-07 11.0096 1.16655e-07 11.2172C8.57162e-08 11.4248 0.0720209 11.6239 0.200219 11.7707C0.328417 11.9175 0.50229 12 0.68359 12C0.864889 12 1.03876 11.9175 1.16696 11.7707L5.72277 6.55359C5.78627 6.48092 5.83665 6.39462 5.87102 6.29965C5.90539 6.20467 5.92308 6.10287 5.92308 6.00005C5.92308 5.89724 5.90539 5.79544 5.87102 5.70046C5.83665 5.60548 5.78627 5.51919 5.72277 5.44652L1.16696 0.229389C1.07139 0.119872 0.949597 0.0452835 0.816996 0.0150587C0.684394 -0.0151671 0.546943 0.000331053 0.422035 0.0595914C0.297127 0.118852 0.190376 0.21921 0.115291 0.347968C0.0402051 0.476726 0.000159331 0.628097 0.000220593 0.782926Z" fill="#767676"/>
</svg>
