<svg width="20" height="20" viewBox="0 0 20 20" fill="none" xmlns="http://www.w3.org/2000/svg">
<path fill-rule="evenodd" clip-rule="evenodd" d="M10 18C14.4183 18 18 14.4183 18 10C18 8.10184 17.3389 6.35808 16.2344 4.9864C16.1575 4.99538 16.0793 5 16 5C15.7702 5 15.5494 4.96124 15.3439 4.88989L11.7395 9.01234C11.9053 9.3037 12 9.64079 12 10C12 11.1046 11.1046 12 10 12C8.89543 12 8 11.1046 8 10C8 8.89543 8.89543 8 10 8C10.1952 8 10.3838 8.02796 10.5621 8.08008L14.2147 3.90248C14.0874 3.65119 14.0116 3.36939 14.0012 3.07097C12.8243 2.38985 11.4577 2 10 2C5.58172 2 2 5.58172 2 10C2 14.4183 5.58172 18 10 18ZM16 1C15.6108 1 15.2475 1.11119 14.9403 1.30353C13.483 0.473902 11.7968 0 10 0C4.47715 0 0 4.47715 0 10C0 15.5228 4.47715 20 10 20C15.5228 20 20 15.5228 20 10C20 7.65325 19.1916 5.49531 17.8382 3.78943C17.9423 3.54724 18 3.28036 18 3C18 1.89543 17.1046 1 16 1Z" fill="currentColor"/>
</svg>
