<svg width="22" height="22" viewBox="0 0 22 22" fill="none" xmlns="http://www.w3.org/2000/svg">
<path d="M12.0307 0.78125C11.649 0.40625 11.0765 0.40625 10.6948 0.78125L1.15236 10.1562C0.961513 10.3438 0.866089 10.5312 0.866089 10.8125V14.5625C0.866089 15.125 1.24779 15.5 1.82033 15.5H5.63729C5.92357 15.5 6.11441 15.4062 6.30526 15.2188L15.8477 5.84375C16.2294 5.46875 16.2294 4.90625 15.8477 4.53125L12.0307 0.78125ZM5.2556 13.625H2.77457V11.1875L8.50002 5.5625L10.981 8L5.2556 13.625ZM12.317 6.6875L9.83595 4.25L11.3627 2.75L13.8438 5.1875L12.317 6.6875Z" fill="#333333"/>
</svg>
