<svg width="30" height="30" viewBox="0 0 30 30" fill="none" xmlns="http://www.w3.org/2000/svg">
<rect x="4.5" y="7.5" width="20" height="18" rx="2.5" fill="white" stroke="#AFAFAF"/>
<path d="M4 6C4 4.34315 5.34315 3 7 3H22C23.6569 3 25 4.34315 25 6V11H4V6Z" fill="#FFD732"/>
<rect x="4" y="10" width="21" height="1" fill="black" fill-opacity="0.1"/>
<path d="M21 6.5C21 7.32843 20.3284 8 19.5 8C18.6716 8 18 7.32843 18 6.5C18 5.67157 18.6716 5 19.5 5C20.3284 5 21 5.67157 21 6.5Z" fill="#3A3E41"/>
<circle cx="9.5" cy="6.5" r="1.5" fill="#3A3E41"/>
<path d="M8.5 1C8.5 0.447715 8.94772 0 9.5 0C10.0523 0 10.5 0.447715 10.5 1V6C10.5 6.55228 10.0523 7 9.5 7C8.94772 7 8.5 6.55228 8.5 6V1Z" fill="#9E9E9E"/>
<path d="M18.5 1C18.5 0.447715 18.9477 0 19.5 0C20.0523 0 20.5 0.447715 20.5 1V6C20.5 6.55228 20.0523 7 19.5 7C18.9477 7 18.5 6.55228 18.5 6V1Z" fill="#9E9E9E"/>
<rect x="13" y="19" width="3" height="3" fill="#9E9E9E"/>
<rect x="8" y="19" width="3" height="3" fill="#9E9E9E"/>
<rect x="18" y="14" width="3" height="3" fill="#9E9E9E"/>
<rect x="13" y="14" width="3" height="3" fill="#9E9E9E"/>
<rect x="8" y="14" width="3" height="3" fill="#9E9E9E"/>
<path d="M28.25 24C28.25 26.8995 25.8995 29.25 23 29.25C20.1005 29.25 17.75 26.8995 17.75 24C17.75 21.1005 20.1005 18.75 23 18.75C25.8995 18.75 28.25 21.1005 28.25 24Z" fill="white" stroke="#626262" stroke-width="1.5"/>
<path d="M25.3333 25H22.6667C22.298 25 22 24.702 22 24.3333V21.6667C22 21.298 22.298 21 22.6667 21C23.0353 21 23.3333 21.298 23.3333 21.6667V23.6667H25.3333C25.702 23.6667 26 23.9647 26 24.3333C26 24.702 25.702 25 25.3333 25Z" fill="#444444"/>
</svg>
