<svg width="24" height="24" viewBox="0 0 24 24" fill="none" xmlns="http://www.w3.org/2000/svg">
<path fill-rule="evenodd" clip-rule="evenodd" d="M6.61865 17.9375L3.99999 20.5562L5.4142 21.9704L8.32228 19.0623C9.48032 19.6681 10.7103 19.9998 12.0007 19.9998C15.905 19.9998 19.2568 16.9633 21.7338 12.4837L22.0014 11.9998L21.7338 11.5159C21.0151 10.2161 20.2228 9.03781 19.3646 8.01995L22.3848 4.9998L20.9706 3.58559L17.9814 6.57473C17.9814 6.57469 17.9813 6.57466 17.9813 6.57462L16.566 7.98991C16.566 7.98994 16.5661 7.98998 16.5661 7.99001L15.0932 9.46294C15.0932 9.4629 15.0931 9.46286 15.0931 9.46282L13.665 10.8909C13.6651 10.8909 13.6651 10.891 13.6651 10.891L10.8917 13.6644C10.8917 13.6644 10.8917 13.6643 10.8916 13.6643L9.46353 15.0924C9.46357 15.0924 9.46361 15.0925 9.46365 15.0925L8.04338 16.5128C8.04334 16.5127 8.0433 16.5127 8.04325 16.5127L6.61852 17.9374C6.61856 17.9374 6.61861 17.9375 6.61865 17.9375ZM9.82895 17.5556C10.55 17.851 11.2769 17.9998 12.0007 17.9998C14.6782 17.9998 17.3985 15.9639 19.7089 11.9998C19.1437 11.03 18.554 10.1756 17.9463 9.43825L15.9591 11.4254C15.9861 11.6128 16 11.8044 16 11.9993C16 14.2084 14.2091 15.9993 12 15.9993C11.8051 15.9993 11.6135 15.9854 11.4261 15.9584L9.82895 17.5556ZM5.15983 16.5711L6.5735 15.1575C5.78214 14.2968 5.01715 13.2431 4.29248 11.9998C6.60285 8.03567 9.32314 5.99977 12.0007 5.99977C12.9769 5.99977 13.9588 6.27041 14.9245 6.80647L16.3851 5.34583C15.025 4.48207 13.5567 3.99977 12.0007 3.99977C8.09642 3.99977 4.74454 7.0362 2.26756 11.5159L2 11.9998L2.26756 12.4837C3.1301 14.0436 4.09873 15.4285 5.15983 16.5711ZM8.27393 13.457L13.4577 8.27322C13.0061 8.09637 12.5144 7.99928 12 7.99928C9.79086 7.99928 8 9.79014 8 11.9993C8 12.5137 8.09708 13.0053 8.27393 13.457Z" fill="currentColor"/>
</svg>
