<svg width="24" height="24" viewBox="0 0 24 24" fill="none" xmlns="http://www.w3.org/2000/svg">
<path fill-rule="evenodd" clip-rule="evenodd" d="M12.0007 4C8.09642 4 4.74454 7.03643 2.26756 11.5161L2 12L2.26756 12.4839C4.74454 16.9636 8.09642 20 12.0007 20C15.905 20 19.2568 16.9636 21.7338 12.4839L22.0014 12L21.7338 11.5161C19.2568 7.03643 15.905 4 12.0007 4ZM12.0007 18C9.32314 18 6.60285 15.9641 4.29248 12C6.60285 8.0359 9.32314 6 12.0007 6C14.6782 6 17.3985 8.0359 19.7089 12C17.3985 15.9641 14.6782 18 12.0007 18ZM10 12C10 10.8954 10.8954 10 12 10C13.1046 10 14 10.8954 14 12C14 13.1046 13.1046 14 12 14C10.8954 14 10 13.1046 10 12ZM12 8C9.79086 8 8 9.79086 8 12C8 14.2091 9.79086 16 12 16C14.2091 16 16 14.2091 16 12C16 9.79086 14.2091 8 12 8Z" fill="currentColor"/>
</svg>
