<svg width="24" height="24" viewBox="0 0 24 24" fill="none" xmlns="http://www.w3.org/2000/svg">
<path d="M17.61 15.62C18.128 15.1354 18.5442 14.5524 18.8344 13.9051C19.1246 13.2578 19.2828 12.5591 19.3 11.85C19.3 8.6 16.115 6 12.15 6C8.185 6 5 8.6 5 11.85C5 15.1 8.185 17.7 12.15 17.7C12.8309 17.7139 13.51 17.6262 14.165 17.44L18 19L17.61 15.62Z" stroke="currentColor" stroke-width="1.5" stroke-miterlimit="10" stroke-linecap="round" stroke-linejoin="round"/>
<path d="M12.15 8.6001V12.5001" stroke="currentColor" stroke-width="1.5" stroke-miterlimit="10" stroke-linecap="round" stroke-linejoin="round"/>
<path d="M12.15 15.75C12.509 15.75 12.8 15.4589 12.8 15.1C12.8 14.741 12.509 14.45 12.15 14.45C11.791 14.45 11.5 14.741 11.5 15.1C11.5 15.4589 11.791 15.75 12.15 15.75Z" fill="currentColor"/>
</svg>
