<svg width="40" height="60" viewBox="0 0 40 60" fill="none" xmlns="http://www.w3.org/2000/svg">
<path d="M0.000309575 7.10912C0.00061915 4.07565 9.29433 0.502197 19.612 0.502197C29.9297 0.502197 39.5693 4.07565 39.569 7.10912C39.5687 10.1426 39.3036 50.7368 39.3036 52.7051C39.3036 54.6735 35.3735 59.9647 19.6521 59.9647C3.9307 59.9647 0 54.6735 0 52.7051C0 50.7368 0 10.1426 0.000309575 7.10912Z" fill="white"/>
<path d="M0.000309575 7.10912C0.00061915 4.07565 9.29433 0.502197 19.612 0.502197C29.9297 0.502197 39.5693 4.07565 39.569 7.10912C39.5687 10.1426 39.3036 50.7368 39.3036 52.7051C39.3036 54.6735 35.3735 59.9647 19.6521 59.9647C3.9307 59.9647 0 54.6735 0 52.7051C0 50.7368 0 10.1426 0.000309575 7.10912Z" fill="url(#paint0_linear)"/>
<rect x="8.1" y="14" width="23px" height="35px" fill="#FFD732"/>
<rect x="8" y="13.8" width="23.2px" height="7px" fill="white" class="empty-tank-portion"/>
<defs>
<linearGradient id="paint0_linear" x1="29.01" y1="15.1478" x2="29.1094" y2="62.0026" gradientUnits="userSpaceOnUse">
<stop stop-color="#C4C4C4"/>
<stop offset="1" stop-color="#898989"/>
</linearGradient>
</defs>
</svg>
