<svg width="13" height="12" viewBox="0 0 13 12" fill="none"
    xmlns="http://www.w3.org/2000/svg">
    <path d="M1.03048 6.42263C1.13327 6.42267 1.23506 6.40503 1.33004 6.37071C1.42501 6.3364 1.51132 6.28608 1.58402 6.22263L6.24761 2.14974L10.9112 6.22263C11.058 6.35083 11.2571 6.42285 11.4647 6.42285C11.6724 6.42285 11.8715 6.35083 12.0183 6.22263C12.1651 6.09443 12.2476 5.92056 12.2476 5.73926C12.2476 5.55796 12.1651 5.38409 12.0183 5.25589L6.80115 0.700081C6.72847 0.636577 6.64218 0.586201 6.5472 0.551831C6.45223 0.517461 6.35042 0.499771 6.24761 0.499771C6.1448 0.499771 6.043 0.517461 5.94802 0.551831C5.85304 0.586201 5.76675 0.636577 5.69408 0.700081L0.476947 5.25589C0.367431 5.35146 0.292842 5.47325 0.262617 5.60586C0.232391 5.73846 0.24789 5.87591 0.30715 6.00082C0.36641 6.12573 0.466768 6.23248 0.595527 6.30756C0.724284 6.38265 0.875655 6.42269 1.03048 6.42263Z" fill="currentColor"/>
    <path d="M1.03048 11.4998C1.13327 11.4998 1.23506 11.4822 1.33004 11.4479C1.42501 11.4135 1.51132 11.3632 1.58402 11.2998L6.24761 7.22689L10.9112 11.2998C11.058 11.428 11.2571 11.5 11.4647 11.5C11.6724 11.5 11.8715 11.428 12.0183 11.2998C12.1651 11.1716 12.2476 10.9977 12.2476 10.8164C12.2476 10.6351 12.1651 10.4612 12.0183 10.333L6.80115 5.77724C6.72847 5.71373 6.64218 5.66336 6.5472 5.62899C6.45223 5.59462 6.35042 5.57693 6.24761 5.57693C6.1448 5.57693 6.043 5.59462 5.94802 5.62899C5.85304 5.66336 5.76675 5.71373 5.69408 5.77724L0.476947 10.333C0.367431 10.4286 0.292842 10.5504 0.262617 10.683C0.232391 10.8156 0.24789 10.9531 0.30715 11.078C0.36641 11.2029 0.466768 11.3096 0.595527 11.3847C0.724284 11.4598 0.875655 11.4998 1.03048 11.4998Z" fill="currentColor"/>
</svg>
