<svg width="60" height="34" viewBox="0 3 60 34" fill="none" xmlns="http://www.w3.org/2000/svg">
<path d="M15 29H45V30.5H15V29Z" fill="currentColor"/>
<path d="M15 24H44V25.5H15V24Z" fill="currentColor"/>
<path d="M32 24L32 14L33.5 14L33.5 24L32 24Z" fill="currentColor"/>
<path d="M27 24L27 14L28.5 14L28.5 24L27 24Z" fill="currentColor"/>
<rect x="8.75" y="18.75" width="6.5" height="16.5" rx="2.25" stroke="currentColor" stroke-width="1.5"/>
<rect x="39.25" y="5.75" width="8.5" height="18.5" rx="2.25" transform="rotate(90 39.25 5.75)" stroke="currentColor" stroke-width="1.5"/>
<circle cx="26" cy="10" r="1" fill="currentColor"/>
<circle cx="30" cy="10" r="1" fill="currentColor"/>
<circle cx="34" cy="10" r="1" fill="currentColor"/>
<rect x="44.75" y="18.75" width="6.5" height="16.5" rx="2.25" stroke="currentColor" stroke-width="1.5"/>
</svg>
