<svg width="80" height="80" viewBox="0 0 80 80" fill="none" xmlns="http://www.w3.org/2000/svg">
<path d="M64.8656 47.9411L58.7096 48.9916L51.6002 44.8867L62.0893 40.263L51.6023 35.638L58.7096 31.5348L64.8656 32.5853L65.433 29.2588L60.6819 28.4475L62.355 23.9267L59.191 22.7552L57.0225 28.6121L49.9152 32.7152L51.1543 21.3208L41.9042 28.0927V20.963L45.8922 16.1549L43.2964 14L40.2167 17.71L37.137 14L34.5412 16.1549L38.5292 20.9614V28.091L29.2834 21.3208L30.5229 32.7173L23.4113 28.6121L21.2433 22.7552L18.0793 23.9267L19.7516 28.4475L15 29.2588L15.5678 32.5849L21.7238 31.5344L28.8329 35.6384L18.3484 40.263L28.835 44.8859L21.7238 48.9912L15.5678 47.9411L15 51.2672L19.7516 52.0784L18.078 56.5993L21.2421 57.7708L23.4101 51.9139L30.5212 47.8082L29.2822 59.2022L38.5292 52.4337V59.5633L34.5412 64.3693L37.1383 66.5243L40.218 62.8147L43.2977 66.5243L45.8947 64.3693L41.9042 59.5625V52.4328L51.1543 59.2043L49.9156 47.8137L57.0217 51.9164L59.1901 57.7733L62.3542 56.6018L60.6819 52.0784L65.433 51.2672L64.8656 47.9411ZM53.7243 40.263L47.9792 42.7942L43.5917 40.263L47.9792 37.7292L53.7243 40.263ZM46.9718 28.5657L46.2917 34.8065L41.9042 37.3402V32.2752L46.9718 28.5657ZM33.4667 28.5661L38.5292 32.2723V37.3402L34.1451 34.809L33.4667 28.5661ZM26.7138 40.263L32.4542 37.7317L36.8417 40.263L32.4572 42.7942L26.7138 40.263ZM33.4667 51.9574L34.1455 45.717L38.5301 43.1857V48.2512L33.4667 51.9574ZM46.9726 51.9574L41.9042 48.2482V43.1857L46.2917 45.7199L46.9726 51.9574Z" fill="currentColor"/>
</svg>
