<svg width="22" height="22" viewBox="0 0 22 22" fill="none" xmlns="http://www.w3.org/2000/svg">
<path d="M11.6619 14.3909C13.527 14.3909 15.0391 12.8519 15.0391 10.9534C15.0391 9.05495 13.527 7.51593 11.6619 7.51593C9.79669 7.51593 8.28467 9.05495 8.28467 10.9534C8.28467 12.8519 9.79669 14.3909 11.6619 14.3909Z" stroke="currentColor" stroke-width="1.5" stroke-miterlimit="10" stroke-linecap="round" stroke-linejoin="round"/>
<path d="M18.5523 11C18.5512 10.5199 18.4973 10.0413 18.3914 9.57248L20.7134 7.85998L19.0023 4.97331L16.3132 6.07831C15.585 5.42806 14.7207 4.93933 13.7798 4.64581L13.4188 1.83331H9.99644L9.63538 4.64581C8.69454 4.93933 7.83022 5.42806 7.10201 6.07831L4.41291 4.97331L2.70175 7.85998L5.0238 9.57248C4.80938 10.5127 4.80938 11.4873 5.0238 12.4275L2.70175 14.14L4.41291 17.0266L7.10201 15.9216C7.83022 16.5719 8.69454 17.0606 9.63538 17.3541L9.99644 20.1666H13.4188L13.7798 17.3541C14.7207 17.0606 15.585 16.5719 16.3132 15.9216L19.0023 17.0266L20.7134 14.14L18.3914 12.4275C18.4973 11.9586 18.5512 11.48 18.5523 11V11Z" stroke="currentColor" stroke-width="1.5" stroke-miterlimit="10" stroke-linecap="round" stroke-linejoin="round"/>
</svg>
