<svg width="24" height="24" viewBox="0 0 24 24" fill="none" xmlns="http://www.w3.org/2000/svg">
<path fill-rule="evenodd" clip-rule="evenodd" d="M12 4.75C10.1718 4.75 8.75 6.15617 8.75 7.81818C8.75 8.17413 8.93765 8.82092 9.31323 9.68815C9.67374 10.5206 10.1599 11.4523 10.654 12.3328C11.1417 13.2017 11.6302 14.0086 12 14.603C12.3698 14.0086 12.8583 13.2017 13.346 12.3328C13.8401 11.4523 14.3263 10.5206 14.6868 9.68815C15.0623 8.82092 15.25 8.17413 15.25 7.81818C15.25 6.15617 13.8282 4.75 12 4.75ZM12 16C11.3737 16.4125 11.3736 16.4125 11.3735 16.4124L11.3702 16.4073L11.3611 16.3934L11.3266 16.3405C11.2965 16.2944 11.2527 16.2268 11.1972 16.1404C11.0861 15.9676 10.928 15.7191 10.7383 15.4145C10.3594 14.806 9.85319 13.9707 9.34596 13.0669C8.84009 12.1655 8.32626 11.1836 7.93677 10.2843C7.56235 9.41971 7.25 8.51659 7.25 7.81818C7.25 5.26275 9.40991 3.25 12 3.25C14.5901 3.25 16.75 5.26275 16.75 7.81818C16.75 8.51659 16.4377 9.41971 16.0632 10.2843C15.6737 11.1836 15.1599 12.1655 14.654 13.0669C14.1468 13.9707 13.6406 14.806 13.2617 15.4145C13.072 15.7191 12.9139 15.9676 12.8028 16.1404C12.7473 16.2268 12.7035 16.2944 12.6734 16.3405L12.6389 16.3934L12.6267 16.4121C12.6266 16.4122 12.6263 16.4125 12 16ZM12 16L12.6267 16.4121L12 17.3635L11.3735 16.4124L12 16Z" fill="currentColor"/>
<path d="M14 8C14 9.10457 13.1046 10 12 10C10.8954 10 10 9.10457 10 8C10 6.89543 10.8954 6 12 6C13.1046 6 14 6.89543 14 8Z" fill="currentColor"/>
<path fill-rule="evenodd" clip-rule="evenodd" d="M15.3488 13.6279C15.5543 13.2683 16.0125 13.1433 16.3721 13.3488L19.8721 15.3488C20.0978 15.4778 20.2406 15.7144 20.2496 15.9742C20.2585 16.234 20.1323 16.4799 19.916 16.624L12.416 21.624C12.1749 21.7848 11.8627 21.7922 11.6141 21.6431L4.11413 17.1431C3.89735 17.0131 3.76069 16.7825 3.7506 16.5299C3.74051 16.2773 3.85836 16.0366 4.06407 15.8897L7.56407 13.3897C7.90113 13.1489 8.36954 13.227 8.6103 13.5641C8.85106 13.9011 8.77299 14.3695 8.43593 14.6103L5.86677 16.4454L11.9789 20.1127L18.0743 16.0491L15.6279 14.6512C15.2683 14.4457 15.1433 13.9875 15.3488 13.6279Z" fill="currentColor"/>
</svg>
