<svg width="60" height="42" viewBox="0 3 60 42" fill="none" xmlns="http://www.w3.org/2000/svg">
<path d="M41.3272 16.5385C41.3272 17.9402 40.6805 19.7549 39.6124 21.7587C38.5564 23.7399 37.1397 25.8135 35.7095 27.7069C34.2814 29.5975 32.8516 31.2931 31.7778 32.5169C31.2727 33.0926 30.8472 33.563 30.5387 33.8992C30.2302 33.563 29.8047 33.0926 29.2996 32.5169C28.2259 31.2931 26.796 29.5975 25.3679 27.7069C23.9378 25.8135 22.521 23.7399 21.465 21.7587C20.3969 19.7549 19.7502 17.9402 19.7502 16.5385C19.7502 10.5802 24.5804 5.75 30.5387 5.75C36.497 5.75 41.3272 10.5802 41.3272 16.5385Z" stroke="currentColor" stroke-width="1.5"/>
<circle cx="30.5388" cy="16.5385" r="5.01923" stroke="currentColor" stroke-width="1.5"/>
<path d="M15.6013 42.25L19.3513 37.75H41.6487L45.3987 42.25H15.6013Z" stroke="currentColor" stroke-width="1.5"/>
</svg>
