<svg width="24" height="24" viewBox="0 0 24 24" fill="none" xmlns="http://www.w3.org/2000/svg">
<path d="M9.99993 7.5V6C9.99993 6 9.49993 5 13.9999 5C18.4999 5 17.9999 6 17.9999 6C17.9999 6 17.9999 16 17.9999 16.6667C17.9999 17.3333 15.3461 17.8333 15.3461 17.8333" stroke="currentColor" stroke-width="1.5"/>
<path d="M10 7C10 7 11 7.5 14 7.5C17 7.5 18 7 18 7" stroke="currentColor" stroke-width="1.5"/>
<path d="M14.9312 8.20485C15.0742 8.25684 15.1775 8.30518 15.25 8.34454V8.34514V8.35687V8.36879V8.38087V8.39314V8.40558V8.4182V8.43099V8.44395V8.45709V8.4704V8.48388V8.49753V8.51135V8.52534V8.5395V8.55382V8.56831V8.58296V8.59778V8.61276V8.6279V8.64321V8.65867V8.6743V8.69008V8.70602V8.72212V8.73837V8.75478V8.77135V8.78807V8.80494V8.82196V8.83914V8.85646V8.87394V8.89156V8.90933V8.92725V8.94531V8.96352V8.98187V9.00036V9.019V9.03778V9.0567V9.07576V9.09496V9.1143V9.13377V9.15338V9.17313V9.19301V9.21303V9.23317V9.25345V9.27387V9.29441V9.31508V9.33588V9.35681V9.37786V9.39904V9.42035V9.44178V9.46333V9.485V9.5068V9.52872V9.55076V9.57292V9.59519V9.61759V9.6401V9.66272V9.68546V9.70831V9.73128V9.75436V9.77755V9.80085V9.82426V9.84778V9.87141V9.89515V9.91899V9.94293V9.96698V9.99114V10.0154V10.0398V10.0642V10.0888V10.1134V10.1382V10.163V10.188V10.213V10.2382V10.2634V10.2887V10.3142V10.3397V10.3653V10.391V10.4168V10.4426V10.4686V10.4946V10.5208V10.547V10.5733V10.5997V10.6261V10.6527V10.6793V10.706V10.7328V10.7596V10.7866V10.8136V10.8407V10.8678V10.8951V10.9224V10.9497V10.9772V11.0047V11.0323V11.0599V11.0877V11.1155V11.1433V11.1712V11.1992V11.2273V11.2554V11.2835V11.3118V11.3401V11.3684V11.3968V11.4253V11.4538V11.4824V11.511V11.5397V11.5684V11.5972V11.626V11.6549V11.6839V11.7128V11.7419V11.771V11.8001V11.8292V11.8585V11.8877V11.917V11.9464V11.9757V12.0052V12.0346V12.0641V12.0936V12.1232V12.1528V12.1825V12.2121V12.2418V12.2716V12.3013V12.3311V12.361V12.3908V12.4207V12.4506V12.4805V12.5105V12.5405V12.5705V12.6005V12.6306V12.6606V12.6907V12.7209V12.751V12.7811V12.8113V12.8415V12.8717V12.9019V12.9321V12.9623V12.9926V13.0228V13.0531V13.0833V13.1136V13.1439V13.1742V13.2045V13.2348V13.2651V13.2954V13.3257V13.356V13.3863V13.4166V13.4469V13.4772V13.5075V13.5378V13.5681V13.5984V13.6287V13.6589V13.6892V13.7194V13.7497V13.7799V13.8101V13.8403V13.8705V13.9007V13.9308V13.961V13.9911V14.0212V14.0513V14.0813V14.1114V14.1414V14.1714V14.2014V14.2313V14.2613V14.2912V14.321V14.3509V14.3807V14.4105V14.4402V14.47V14.4997V14.5293V14.5589V14.5885V14.6181V14.6476V14.6771V14.7065V14.7359V14.7653V14.7946V14.8239V14.8532V14.8824V14.9115V14.9406V14.9697V14.9987V15.0277V15.0566V15.0855V15.1143V15.143V15.1718V15.2004V15.229V15.2576V15.2861V15.3145V15.3429V15.3712V15.3995V15.4277V15.4559V15.484V15.512V15.5399V15.5678V15.5957V15.6234V15.6511V15.6788V15.7063V15.7338V15.7613V15.7886V15.8159V15.8431V15.8702V15.8973V15.9243V15.9512V15.978V16.0048V16.0315V16.0581V16.0846V16.111V16.1374V16.1636V16.1898V16.2159V16.2419V16.2678V16.2937V16.3194V16.3451V16.3707V16.3962V16.4215V16.4468V16.472V16.4972V16.5222V16.5471V16.5719V16.5966V16.6213V16.6458V16.6702V16.6945V16.7188V16.7429V16.7669V16.7908V16.8146V16.8383V16.8619V16.8854V16.9087V16.932V16.9552V16.9782V17.0011V17.0239V17.0466V17.0692V17.0917V17.114V17.1363V17.1584V17.1804V17.2023V17.224V17.2457V17.2672V17.2886V17.3098V17.331V17.352V17.3729V17.3936V17.4142V17.4347V17.4551V17.4753V17.4954V17.5154V17.5352V17.5549V17.5745V17.5939V17.6132V17.6324V17.6514V17.6703V17.689V17.7076V17.726V17.7443V17.7625V17.7805V17.7984V17.8161V17.8337V17.8511V17.8683V17.8855V17.9024V17.9193V17.9359V17.9524V17.9688V17.985V18.001V18.0169V18.0327V18.0482V18.0636V18.0789V18.094V18.1089V18.1237V18.1383V18.1527V18.1669V18.181V18.195V18.2087V18.2223V18.2358V18.249V18.2621V18.275V18.2877V18.3003V18.3127V18.3249V18.3369V18.3487V18.3604V18.3719V18.3832V18.3943V18.4053V18.416V18.4266V18.437V18.4472V18.4572V18.4671V18.4767V18.4862V18.4954V18.5045V18.5134V18.5221V18.5306V18.5389V18.547V18.5549V18.5626V18.5701V18.5774V18.5845V18.5914V18.5982V18.6047V18.611V18.6171V18.623V18.6287V18.6341V18.6373C15.2454 18.6476 15.2218 18.7204 15.1199 18.8508C14.9873 19.0206 14.7612 19.2343 14.4194 19.4446C13.7408 19.8622 12.6308 20.25 11 20.25C9.36916 20.25 8.25919 19.8622 7.58057 19.4446C7.23884 19.2343 7.01274 19.0206 6.88008 18.8508C6.77824 18.7204 6.7546 18.6476 6.75 18.6373V13.0833V9.57292V9.55076V9.52872V9.5068V9.485V9.46333V9.44178V9.42035V9.39904V9.37786V9.35681V9.33588V9.31508V9.29441V9.27387V9.25345V9.23317V9.21303V9.19301V9.17313V9.15338V9.13377V9.1143V9.09496V9.07576V9.0567V9.03778V9.019V9.00036V8.98187V8.96352V8.94531V8.92725V8.43099V8.4182V8.40558V8.39314V8.38087V8.36879V8.35687V8.34514V8.34454C6.82252 8.30518 6.92581 8.25684 7.06881 8.20485C7.64232 7.99629 8.79552 7.75 11 7.75C13.2045 7.75 14.3577 7.99629 14.9312 8.20485Z" stroke="currentColor" stroke-width="1.5"/>
<path d="M7 10C7 10 8 10.5 11 10.5C14 10.5 15 10 15 10" stroke="currentColor" stroke-width="1.5"/>
<path d="M7 13C7 13 8 14 11 14C14 14 15 13 15 13" stroke="currentColor" stroke-width="1.5"/>
</svg>
