<svg width="22" height="22" viewBox="0 0 22 22" fill="none"
    xmlns="http://www.w3.org/2000/svg">
    <path d="M2.00009 1.9761L3.6011 1.25519V1.25519C6.34318 0.436268 9.26477 0.436268 12.0068 1.25519V1.25519L13.6316 1.9761C13.6316 1.9761 13.6315 15.1445 13.6315 15.7311C13.6315 16.3177 12.4684 17.8947 7.81584 17.8947C3.16325 17.8947 2 16.3177 2 15.7311C2 15.1445 2.00009 1.9761 2.00009 1.9761Z" fill="#FFD732"/>
    <path d="M2.00009 1.9761L3.6011 1.25519V1.25519C6.34318 0.436268 9.26477 0.436268 12.0068 1.25519V1.25519L13.6316 1.9761C13.6316 1.9761 13.6315 15.1445 13.6315 15.7311C13.6315 16.3177 12.4684 17.8947 7.81584 17.8947C3.16325 17.8947 2 16.3177 2 15.7311C2 15.1445 2.00009 1.9761 2.00009 1.9761Z" fill="black" fill-opacity="0.35"/>
    <path d="M7.3685 5.55508L8.9695 4.83417V4.83417C11.7116 4.01525 14.6332 4.01525 17.3753 4.83417V4.83417L19 5.55508C19 5.55508 18.9999 18.7234 18.9999 19.3101C18.9999 19.8967 17.8368 21.4737 13.1842 21.4737C8.53166 21.4737 7.36841 19.8967 7.36841 19.3101C7.36841 18.7234 7.3685 5.55508 7.3685 5.55508Z" fill="#FFD732"/>
</svg>
