<svg width="20" height="21" viewBox="0 0 20 21" fill="none" xmlns="http://www.w3.org/2000/svg">
<path fill-rule="evenodd" clip-rule="evenodd" d="M18 10.5C18 14.9183 14.4183 18.5 10 18.5C5.58172 18.5 2 14.9183 2 10.5C2 6.08172 5.58172 2.5 10 2.5C14.4183 2.5 18 6.08172 18 10.5ZM20 10.5C20 16.0228 15.5228 20.5 10 20.5C4.47715 20.5 0 16.0228 0 10.5C0 4.97715 4.47715 0.5 10 0.5C15.5228 0.5 20 4.97715 20 10.5ZM11 14.5V16.5H9V14.5H11ZM6 8.5C6 6.29 7.79 4.5 10 4.5C12.21 4.5 14 6.29 14 8.5C14 9.78292 13.21 10.4733 12.4408 11.1455C11.711 11.7833 11 12.4046 11 13.5H9C9 11.6787 9.94212 10.9566 10.7704 10.3217C11.4202 9.82361 12 9.37922 12 8.5C12 7.4 11.1 6.5 10 6.5C8.9 6.5 8 7.4 8 8.5H6Z" fill="#1A1A1A"/>
</svg>
