<svg width="30" height="30" viewBox="0 0 30 30" fill="none" xmlns="http://www.w3.org/2000/svg">
<path d="M27.9231 15C27.9231 22.1372 22.1372 27.9231 15 27.9231C7.86276 27.9231 2.0769 22.1372 2.0769 15C2.0769 7.86276 7.86276 2.0769 15 2.0769C22.1372 2.0769 27.9231 7.86276 27.9231 15Z" fill="white"/>
<path fill-rule="evenodd" clip-rule="evenodd" d="M15 25.2307C20.6503 25.2307 25.2307 20.6503 25.2307 15C25.2307 9.34968 20.6503 4.76921 15 4.76921C9.34968 4.76921 4.76921 9.34968 4.76921 15C4.76921 20.6503 9.34968 25.2307 15 25.2307ZM15 27.9231C22.1372 27.9231 27.9231 22.1372 27.9231 15C27.9231 7.86276 22.1372 2.0769 15 2.0769C7.86276 2.0769 2.0769 7.86276 2.0769 15C2.0769 22.1372 7.86276 27.9231 15 27.9231Z" fill="#FFD732"/>
<path d="M15 25.4807C20.7883 25.4807 25.4807 20.7883 25.4807 15C25.4807 9.21161 20.7883 4.51921 15 4.51921C9.21161 4.51921 4.51921 9.21161 4.51921 15C4.51921 20.7883 9.21161 25.4807 15 25.4807ZM27.6731 15C27.6731 21.9991 21.9991 27.6731 15 27.6731C8.00083 27.6731 2.3269 21.9991 2.3269 15C2.3269 8.00083 8.00083 2.3269 15 2.3269C21.9991 2.3269 27.6731 8.00083 27.6731 15Z" stroke="black" stroke-opacity="0.1" stroke-width="0.5"/>
<path d="M16.6348 19.3501C16.6348 20.1735 15.9673 20.841 15.1439 20.841C14.3206 20.841 13.6531 20.1735 13.6531 19.3501H16.6348Z" fill="#626262"/>
<path d="M19.3814 18.6088H10.9069C10.8203 18.6088 10.7406 18.5634 10.6996 18.4909C10.6585 18.4181 10.663 18.3299 10.7109 18.2613C10.7199 18.2484 11.6131 16.9499 11.6131 15.2543V13.018C11.6131 11.1683 13.1972 9.66357 15.1442 9.66357C17.0912 9.66357 18.6752 11.1683 18.6752 13.018V15.2543C18.6752 16.956 19.5683 18.2482 19.5773 18.2611C19.6255 18.3297 19.6299 18.4179 19.589 18.4906C19.548 18.5634 19.4682 18.6088 19.3814 18.6088Z" fill="#626262"/>
</svg>
