<svg width="28" height="25" viewBox="0 0 28 25" fill="none" xmlns="http://www.w3.org/2000/svg">
<path d="M1 1H21V16.0858L16.0858 21H1V1Z" stroke="currentColor" stroke-width="2"/>
<path d="M12.9628 5V8.35928L12.6451 12.0197H9.5381L9.03721 8.35928V5H12.9628ZM11.0093 13.7485C11.6295 13.7485 12.1132 13.8922 12.4605 14.1796C12.8202 14.4671 13 14.8623 13 15.3653C13 15.8802 12.8202 16.2814 12.4605 16.5689C12.1132 16.8563 11.6295 17 11.0093 17C10.3767 17 9.88062 16.8563 9.52093 16.5689C9.17364 16.2814 9 15.8802 9 15.3653C9 14.8623 9.17364 14.4671 9.52093 14.1796C9.88062 13.8922 10.3767 13.7485 11.0093 13.7485Z" fill="currentColor"/>
<g clip-path="url(#clip0_49_62)">
<path d="M13.375 21.6563V24.625H16.3438L25.0996 15.8692L22.1308 12.9004L13.375 21.6563ZM27.3954 13.5734C27.7042 13.2646 27.7042 12.7659 27.3954 12.4571L25.5429 10.6046C25.2342 10.2959 24.7354 10.2959 24.4267 10.6046L22.9779 12.0534L25.9467 15.0221L27.3954 13.5734V13.5734Z" fill="currentColor"/>
</g>
<defs>
<clipPath id="clip0_49_62">
<rect width="17" height="17" fill="white" transform="translate(11 8)"/>
</clipPath>
</defs>
</svg>
