<svg width="20" height="20" viewBox="0 0 20 20" fill="none" xmlns="http://www.w3.org/2000/svg">
<path d="M9.05617 2.47263V0.55H10.8327V2.47263V2.51542L10.875 2.52203C13.758 2.97276 15.9696 5.48535 15.993 8.52622L15.9932 8.575V8.57519V10.4934V10.5173L16.0117 10.5323L18.3389 12.4173V16.6H13.5793H13.5404L13.5308 16.6377C13.1196 18.2554 11.6694 19.45 9.94444 19.45C8.21946 19.45 6.76929 18.2554 6.35806 16.6377L6.34848 16.6H6.3096H1.55V12.4173L3.87715 10.5323L3.89568 10.5173V10.4934V8.15H3.90984L3.91331 8.10375C4.12734 5.25515 6.26557 2.9517 9.0139 2.52203L9.05617 2.51542V2.47263ZM16.5123 14.8H16.5623V14.75V13.3066V13.2827L16.5438 13.2677L14.2167 11.3827V8.575C14.2167 6.18696 12.3045 4.25 9.94444 4.25C7.58438 4.25 5.67222 6.18696 5.67222 8.575V11.3827L3.34507 13.2677L3.32654 13.2827V13.3066V14.75V14.8H3.37654H16.5123ZM8.31895 16.6H8.2328L8.27554 16.6748C8.60843 17.2575 9.23098 17.65 9.94444 17.65C10.6579 17.65 11.2805 17.2575 11.6134 16.6748L11.6561 16.6H11.5699H8.31895Z" fill="currentColor" stroke="white" stroke-width="0.1" stroke-linecap="square"/>
</svg>
