<svg width="80" height="80" viewBox="0 0 56 38" fill="none" xmlns="http://www.w3.org/2000/svg">
<path fill-rule="evenodd" clip-rule="evenodd" d="M51.4039 4.66667V31.5H56C56 37.2449 52.4746 37.9436 47.9571 37.9436H9.19192C0 37.9436 0 31.5 0 31.5H5.44431V4.66667C5.44431 3.42899 5.92852 2.24201 6.79043 1.36683C7.65234 0.491665 8.82134 0 10.0403 0H46.808C48.0269 0 49.1959 0.491665 50.0578 1.36683C50.9197 2.24201 51.4039 3.42899 51.4039 4.66667ZM22.0606 31.5174H33.9394V32.6661C33.9394 32.8184 33.8351 32.9645 33.6495 33.0722C33.4638 33.18 33.212 33.2405 32.9495 33.2405H23.0505C22.788 33.2405 22.5362 33.18 22.3505 33.0722C22.1649 32.9645 22.0606 32.8184 22.0606 32.6661V31.5174ZM7.74242 4.66667H49.106V29.5556H7.74242V4.66667Z" fill="currentColor"/>
<path d="M32.7917 20.1667H31.9358L31.6325 19.8742C32.6942 18.6392 33.3333 17.0358 33.3333 15.2917C33.3333 11.4025 30.1808 8.25 26.2917 8.25C22.4025 8.25 19.25 11.4025 19.25 15.2917C19.25 19.1808 22.4025 22.3333 26.2917 22.3333C28.0358 22.3333 29.6392 21.6942 30.8742 20.6325L31.1667 20.9358V21.7917L36.5833 27.1975L38.1975 25.5833L32.7917 20.1667V20.1667ZM26.2917 20.1667C23.5942 20.1667 21.4167 17.9892 21.4167 15.2917C21.4167 12.5942 23.5942 10.4167 26.2917 10.4167C28.9892 10.4167 31.1667 12.5942 31.1667 15.2917C31.1667 17.9892 28.9892 20.1667 26.2917 20.1667Z" fill="currentColor"/>
</svg>
