<svg width="20" height="20" viewBox="0 0 20 20" fill="none" xmlns="http://www.w3.org/2000/svg">
<path d="M18.65 10C18.65 14.7773 14.7773 18.65 10 18.65C5.22274 18.65 1.35 14.7773 1.35 10C1.35 5.22274 5.22274 1.35 10 1.35C14.7773 1.35 18.65 5.22274 18.65 10Z" stroke="currentColor" stroke-width="1.7"/>
<path d="M13.6667 11.5H9.33333C8.8725 11.5 8.5 11.1275 8.5 10.6667V6.33333C8.5 5.8725 8.8725 5.5 9.33333 5.5C9.79417 5.5 10.1667 5.8725 10.1667 6.33333V9.83333H13.6667C14.1275 9.83333 14.5 10.2058 14.5 10.6667C14.5 11.1275 14.1275 11.5 13.6667 11.5Z" fill="currentColor"/>
</svg>
