<svg width="20" height="20" viewBox="0 0 20 20" fill="none" xmlns="http://www.w3.org/2000/svg">
<path d="M18.65 10C18.65 14.7773 14.7773 18.65 10 18.65C5.22274 18.65 1.35 14.7773 1.35 10C1.35 5.22274 5.22274 1.35 10 1.35C14.7773 1.35 18.65 5.22274 18.65 10Z" stroke="currentColor" stroke-width="1.7"/>
<path fill-rule="evenodd" clip-rule="evenodd" d="M10.875 13.3333V15H9.125V13.3333H10.875ZM6.5 8.33333C6.5 6.49167 8.06625 5 10 5C11.9337 5 13.5 6.49167 13.5 8.33333C13.5 9.40243 12.8087 9.97777 12.1357 10.5379C11.4971 11.0694 10.875 11.5872 10.875 12.5H9.125C9.125 10.9823 9.94935 10.3805 10.6741 9.8514C11.2427 9.43634 11.75 9.06601 11.75 8.33333C11.75 7.41667 10.9625 6.66667 10 6.66667C9.0375 6.66667 8.25 7.41667 8.25 8.33333H6.5Z" fill="currentColor"/>
</svg>
