<svg width="30" height="30" viewBox="0 0 30 30" fill="none" xmlns="http://www.w3.org/2000/svg">
<path d="M21.6471 20.5H1.35294C0.756252 20.5 0.5 20.1435 0.5 19.95V1.05C0.5 0.85654 0.756252 0.5 1.35294 0.5H21.6471C22.2437 0.5 22.5 0.856541 22.5 1.05V19.95C22.5 20.1435 22.2437 20.5 21.6471 20.5Z" fill="white" stroke="#A8A8A8"/>
<path d="M17.2778 7H5.72222C5.32356 7 5 6.552 5 6C5 5.448 5.32356 5 5.72222 5H17.2778C17.6764 5 18 5.448 18 6C18 6.552 17.6764 7 17.2778 7Z" fill="#C2C2C2"/>
<path d="M17.2778 11H5.72222C5.32356 11 5 10.552 5 10C5 9.448 5.32356 9 5.72222 9H17.2778C17.6764 9 18 9.448 18 10C18 10.552 17.6764 11 17.2778 11Z" fill="#C2C2C2"/>
<path d="M17.2778 15H5.72222C5.32356 15 5 14.552 5 14C5 13.448 5.32356 13 5.72222 13H17.2778C17.6764 13 18 13.448 18 14C18 14.552 17.6764 15 17.2778 15Z" fill="#C2C2C2"/>
<path d="M29 20C29 24.9706 24.9706 29 20 29C15.0294 29 11 24.9706 11 20C11 15.0294 15.0294 11 20 11C24.9706 11 29 15.0294 29 20Z" fill="white"/>
<path fill-rule="evenodd" clip-rule="evenodd" d="M20 27C23.866 27 27 23.866 27 20C27 16.134 23.866 13 20 13C16.134 13 13 16.134 13 20C13 23.866 16.134 27 20 27ZM20 29C24.9706 29 29 24.9706 29 20C29 15.0294 24.9706 11 20 11C15.0294 11 11 15.0294 11 20C11 24.9706 15.0294 29 20 29Z" fill="#FFD732"/>
<path d="M20 27.25C24.0041 27.25 27.25 24.0041 27.25 20C27.25 15.9959 24.0041 12.75 20 12.75C15.9959 12.75 12.75 15.9959 12.75 20C12.75 24.0041 15.9959 27.25 20 27.25ZM28.75 20C28.75 24.8325 24.8325 28.75 20 28.75C15.1675 28.75 11.25 24.8325 11.25 20C11.25 15.1675 15.1675 11.25 20 11.25C24.8325 11.25 28.75 15.1675 28.75 20Z" stroke="black" stroke-opacity="0.1" stroke-width="0.5"/>
<path d="M20.9671 16V15.95H20.9171H19.0829H19.0329V16V18.0509H19.0328L19.033 18.0537L19.2299 21.5028L19.2326 21.55H19.2798H20.7202H20.7674L20.7701 21.5028L20.967 18.0537L20.9671 18.0537V18.0509V16ZM19.2234 24.2716L19.2241 24.2722C19.4152 24.4591 19.6741 24.55 19.9948 24.55C20.3155 24.55 20.5745 24.4591 20.7655 24.2722C20.957 24.085 21.05 23.8274 21.05 23.506C21.05 23.177 20.9572 22.9151 20.7655 22.7277C20.5745 22.5408 20.3155 22.45 19.9948 22.45C19.6741 22.45 19.4152 22.5408 19.2241 22.7277L19.2241 22.7277L19.2234 22.7284C19.039 22.9159 18.95 23.1775 18.95 23.506C18.95 23.8268 19.0392 24.0842 19.2234 24.2716Z" fill="#626262" stroke="#626262" stroke-width="0.1"/>
</svg>
