<svg width="110" height="110" viewBox="0 0 110 110" fill="none" xmlns="http://www.w3.org/2000/svg">
<rect width="110" height="110" fill="#F5F5F5"/>
<rect width="110" height="110" fill="url(#paint0_linear)" fill-opacity="0.2"/>
<rect x="0.5" y="0.5" width="109" height="109" stroke="black" stroke-opacity="0.1"/>
<path d="M80.114 79.3438H32.136C30.5217 79.3438 29.4375 78.3434 29.4375 77.3516V32.4922C29.4375 31.5003 30.5217 30.5 32.136 30.5H80.114C81.7283 30.5 82.8125 31.5003 82.8125 32.4922V77.3516C82.8125 78.3434 81.7283 79.3438 80.114 79.3438Z" fill="white" stroke="#A8A8A8"/>
<path d="M69.7691 44.5H41.5747C40.6019 44.5 39.8125 43.688 39.8125 42.6875C39.8125 41.687 40.6019 40.875 41.5747 40.875H69.7691C70.7418 40.875 71.5312 41.687 71.5312 42.6875C71.5312 43.688 70.7418 44.5 69.7691 44.5Z" fill="#C2C2C2"/>
<path d="M69.7691 52.6562H41.5747C40.6019 52.6562 39.8125 51.8442 39.8125 50.8438C39.8125 49.8433 40.6019 49.0312 41.5747 49.0312H69.7691C70.7418 49.0312 71.5312 49.8433 71.5312 50.8438C71.5312 51.8442 70.7418 52.6562 69.7691 52.6562Z" fill="#C2C2C2"/>
<path d="M69.7691 60.8125H41.5747C40.6019 60.8125 39.8125 60.0005 39.8125 59C39.8125 57.9995 40.6019 57.1875 41.5747 57.1875H69.7691C70.7418 57.1875 71.5312 57.9995 71.5312 59C71.5312 60.0005 70.7418 60.8125 69.7691 60.8125Z" fill="#C2C2C2"/>
<path d="M69.7691 68.9688H41.5747C40.6019 68.9688 39.8125 68.1567 39.8125 67.1562C39.8125 66.1558 40.6019 65.3438 41.5747 65.3438H69.7691C70.7418 65.3438 71.5312 66.1558 71.5312 67.1562C71.5312 68.1567 70.7418 68.9688 69.7691 68.9688Z" fill="#C2C2C2"/>
<path d="M94.4165 65.9464H89.8501C89.6023 65.1393 89.2796 64.3592 88.886 63.6163L92.1142 60.3885C92.2626 60.2401 92.3461 60.0391 92.3461 59.8288C92.3461 59.6185 92.2626 59.4175 92.1142 59.269L87.6359 54.7904C87.3267 54.4812 86.8257 54.4812 86.5165 54.7904L83.288 58.0181C82.5454 57.6254 81.7653 57.3022 80.9582 57.0548V52.4881C80.9582 52.0505 80.6037 51.6964 80.1665 51.6964H73.8332C73.396 51.6964 73.0415 52.0505 73.0415 52.4881V57.0548C72.2344 57.3022 71.4543 57.6254 70.7117 58.0181L67.4832 54.7904C67.174 54.4812 66.673 54.4812 66.3637 54.7904L61.8855 59.269C61.7371 59.4175 61.6536 59.6185 61.6536 59.8288C61.6536 60.0391 61.7371 60.2401 61.8855 60.3885L65.1136 63.6163C64.7201 64.3592 64.3973 65.1393 64.1496 65.9464H59.5832C59.146 65.9464 58.7915 66.3005 58.7915 66.7381V73.0714C58.7915 73.509 59.146 73.8631 59.5832 73.8631H64.1496C64.3973 74.6702 64.7201 75.4503 65.1136 76.1932L61.8855 79.421C61.7371 79.5694 61.6536 79.7704 61.6536 79.9807C61.6536 80.191 61.7371 80.392 61.8855 80.5404L66.3637 85.0191C66.673 85.3283 67.174 85.3283 67.4832 85.0191L70.7117 81.7913C71.4543 82.1841 72.2344 82.5072 73.0415 82.7546V87.3214C73.0415 87.759 73.396 88.1131 73.8332 88.1131H80.1665C80.6037 88.1131 80.9582 87.759 80.9582 87.3214V82.7546C81.7653 82.5072 82.5454 82.1841 83.2879 81.7913L86.5165 85.0191C86.8257 85.3283 87.3267 85.3283 87.6359 85.0191L92.1142 80.5404C92.2626 80.392 92.3461 80.191 92.3461 79.9807C92.3461 79.7704 92.2626 79.5694 92.1142 79.421L88.886 76.1932C89.2796 75.4503 89.6023 74.6702 89.8501 73.8631H94.4165C94.8537 73.8631 95.2082 73.509 95.2082 73.0714V66.7381C95.2082 66.3005 94.8537 65.9464 94.4165 65.9464ZM76.9998 75.4464C73.9393 75.4464 71.4582 72.9653 71.4582 69.9047C71.4582 66.8441 73.9393 64.3631 76.9998 64.3631C80.0604 64.3631 82.5415 66.8441 82.5415 69.9047C82.5415 72.9653 80.0604 75.4464 76.9998 75.4464Z" fill="#5F5F5F"/>
<path d="M76.9998 61.1964C72.1904 61.1964 68.2915 65.0953 68.2915 69.9047C68.2915 74.7142 72.1904 78.6131 76.9998 78.6131C81.8093 78.6131 85.7082 74.7142 85.7082 69.9047C85.7082 65.0953 81.8093 61.1964 76.9998 61.1964ZM76.9998 75.4464C73.9393 75.4464 71.4582 72.9653 71.4582 69.9047C71.4582 66.8441 73.9393 64.3631 76.9998 64.3631C80.0604 64.3631 82.5415 66.8441 82.5415 69.9047C82.5415 72.9653 80.0604 75.4464 76.9998 75.4464Z" fill="#303030"/>
<defs>
<linearGradient id="paint0_linear" x1="55" y1="0" x2="55" y2="110" gradientUnits="userSpaceOnUse">
<stop stop-color="white"/>
<stop offset="1" stop-color="white" stop-opacity="0"/>
</linearGradient>
</defs>
</svg>
