<svg width="110" height="110" viewBox="0 0 110 110" fill="none" xmlns="http://www.w3.org/2000/svg">
<rect width="110" height="110" fill="#F5F5F5"/>
<rect width="110" height="110" fill="url(#paint0_linear)" fill-opacity="0.2"/>
<rect x="0.5" y="0.5" width="109" height="109" stroke="black" stroke-opacity="0.1"/>
<path d="M73 80.5H28C26.6186 80.5 25.5 79.3814 25.5 78V24C25.5 22.6186 26.6186 21.5 28 21.5H73C74.3814 21.5 75.5 22.6186 75.5 24V78C75.5 79.3814 74.3814 80.5 73 80.5Z" fill="white" stroke="#A8A8A8"/>
<path d="M83 89.5H38C36.6107 89.5 35.5 88.3958 35.5 87.05V33.95C35.5 32.6042 36.6107 31.5 38 31.5H83C84.3893 31.5 85.5 32.6042 85.5 33.95V87.05C85.5 88.3958 84.3893 89.5 83 89.5Z" fill="white" stroke="#A8A8A8"/>
<path d="M75.9579 75.5H45.8063C44.8696 75.5 44.1094 74.716 44.1094 73.75C44.1094 72.784 44.8696 72 45.8063 72H75.9579C76.8946 72 77.6548 72.784 77.6548 73.75C77.6548 74.716 76.8946 75.5 75.9579 75.5Z" fill="#767676"/>
<path d="M75.9579 82.5H45.8063C44.8696 82.5 44.1094 81.716 44.1094 80.75C44.1094 79.784 44.8696 79 45.8063 79H75.9579C76.8946 79 77.6548 79.784 77.6548 80.75C77.6548 81.716 76.8946 82.5 75.9579 82.5Z" fill="#767676"/>
<path d="M61.6167 45.9073C64.4939 46.1931 66.7815 48.4806 67.0672 51.3579H75C74.6884 44.1179 68.857 38.2862 61.6167 37.9746V45.9073Z" fill="#848484"/>
<path d="M56.1577 55.6397C55.3827 54.618 54.9174 53.3483 54.9174 51.9669C54.9174 48.8089 57.3211 46.213 60.3987 45.9073V37.9746C52.9562 38.2949 47 44.4473 47 51.9669C47 55.4242 48.2616 58.5907 50.3453 61.0366L56.1577 55.6397Z" fill="#474747"/>
<path d="M67.0677 52.5759C66.762 55.6535 64.1661 58.0572 61.0081 58.0572C59.4648 58.0572 58.0598 57.4785 56.9865 56.5323L51.1733 61.9298C53.7045 64.4287 57.1786 65.9746 61.0081 65.9746C68.5279 65.9746 74.6801 60.018 75.0004 52.5759H67.0677Z" fill="#C2C2C2"/>
<defs>
<linearGradient id="paint0_linear" x1="55" y1="0" x2="55" y2="110" gradientUnits="userSpaceOnUse">
<stop stop-color="white"/>
<stop offset="1" stop-color="white" stop-opacity="0"/>
</linearGradient>
</defs>
</svg>
