<svg xmlns="http://www.w3.org/2000/svg" width="26" height="26" viewBox="0 0 26 26">
  <g>
    <ellipse cx="13" cy="1.73" rx="8.67" ry="1.73" style="fill: #ffffff"/>
    <path d="M21.67,3.29h0Z" style="fill: #ffffff"/>
    <path d="M4.34,3.28h0Z" style="fill: #ffffff"/>
    <path d="M13,5C8.21,5,4.33,4.25,4.33,3.29V22.91C4.33,23.75,6.07,26,13,26s8.67-2.25,8.67-3.09V3.29C21.67,4.25,17.79,5,13,5Zm5.2,14.52S17.77,20.8,13,20.8s-5.2-1.26-5.2-1.26V7.8a20.18,20.18,0,0,0,2.9.49h.2a22.66,22.66,0,0,0,4.2,0h.16A21,21,0,0,0,18.2,7.8Z" style="fill: #ffffff"/>
  </g>
</svg>
