<svg width="110" height="110" viewBox="0 0 110 110" fill="none" xmlns="http://www.w3.org/2000/svg">
<rect width="110" height="110" rx="10" fill="#27B9E8"/>
<rect width="110" height="110" rx="10" fill="url(#paint0_linear)" fill-opacity="0.2"/>
<rect x="0.5" y="0.5" width="109" height="109" rx="9.5" stroke="black" stroke-opacity="0.1"/>
<path d="M79.4998 80.8334H30.4998C29.2112 80.8334 28.1665 79.7887 28.1665 78.5001V29.5001C28.1665 28.2114 29.2112 27.1667 30.4998 27.1667H79.4998C80.7885 27.1667 81.8332 28.2114 81.8332 29.5001V78.5001C81.8332 79.7887 80.7885 80.8334 79.4998 80.8334Z" fill="#595959"/>
<path d="M79 29.9998H31V61.9998H79V29.9998Z" fill="white"/>
<path d="M76 75.0001H59.6667C59.0218 75.0001 58.5 74.4783 58.5 73.8334C58.5 73.1886 59.0218 72.6667 59.6667 72.6667H76C76.6448 72.6667 77.1667 73.1886 77.1667 73.8334C77.1667 74.4783 76.6448 75.0001 76 75.0001Z" fill="#9E9E9E"/>
<path d="M63.1663 75.0001H33.9997C33.3548 75.0001 32.833 74.4783 32.833 73.8334C32.833 73.1886 33.3548 72.6667 33.9997 72.6667H63.1663C63.8112 72.6667 64.333 73.1886 64.333 73.8334C64.333 74.4783 63.8112 75.0001 63.1663 75.0001Z" fill="#27B9E8"/>
<path d="M63.1663 75.0001H33.9997C33.3548 75.0001 32.833 74.4783 32.833 73.8334C32.833 73.1886 33.3548 72.6667 33.9997 72.6667H63.1663C63.8112 72.6667 64.333 73.1886 64.333 73.8334C64.333 74.4783 63.8112 75.0001 63.1663 75.0001Z" fill="white" fill-opacity="0.3"/>
<path d="M61.9997 78.5001C59.4266 78.5001 57.333 76.4065 57.333 73.8334C57.333 71.2604 59.4266 69.1667 61.9997 69.1667C64.5727 69.1667 66.6663 71.2604 66.6663 73.8334C66.6663 76.4065 64.5727 78.5001 61.9997 78.5001Z" fill="white"/>
<path d="M52.3332 54.3329C52.144 54.3329 51.9549 54.2873 51.7829 54.1951C51.4035 53.9923 51.1665 53.5969 51.1665 53.1662V39.1663C51.1665 38.7356 51.4035 38.3402 51.7829 38.1374C52.1611 37.9346 52.6226 37.9574 52.9803 38.1955L63.4803 45.1955C63.805 45.412 63.9998 45.7766 63.9998 46.1663C63.9998 46.5559 63.805 46.9205 63.4803 47.137L52.9803 54.1369C52.7855 54.2668 52.5599 54.3329 52.3332 54.3329Z" fill="#676767"/>
<defs>
<linearGradient id="paint0_linear" x1="55" y1="0" x2="55" y2="110" gradientUnits="userSpaceOnUse">
<stop stop-color="white"/>
<stop offset="1" stop-color="white" stop-opacity="0"/>
</linearGradient>
</defs>
</svg>
