<svg width="26" height="26" viewBox="0 0 26 26" fill="none" xmlns="http://www.w3.org/2000/svg">
<path d="M4.33314 3.27688C5.91312 2.59539 7.5936 2.17595 9.30851 2.03507L10.8924 1.90495C12.2832 1.79069 13.681 1.79069 15.0717 1.90495L16.6232 2.03241C18.36 2.17509 20.0626 2.59524 21.6663 3.27688C21.6663 3.27688 21.6662 22.0741 21.6662 22.9115C21.6662 23.7489 19.933 25.9999 12.9997 25.9999C6.06648 25.9999 4.33301 23.7489 4.33301 22.9115C4.33301 22.0741 4.33314 3.27688 4.33314 3.27688Z" fill="#575757"/>
<path d="M4.33314 3.27688C5.91312 2.59539 7.5936 2.17595 9.30851 2.03507L10.8924 1.90495C12.2832 1.79069 13.681 1.79069 15.0717 1.90495L16.6232 2.03241C18.36 2.17509 20.0626 2.59524 21.6663 3.27688C21.6663 3.27688 21.6662 22.0741 21.6662 22.9115C21.6662 23.7489 19.933 25.9999 12.9997 25.9999C6.06648 25.9999 4.33301 23.7489 4.33301 22.9115C4.33301 22.0741 4.33314 3.27688 4.33314 3.27688Z" fill="#575757"/>
<path d="M4.33322 1.73328H21.6663L21.6662 3.46661H4.33301L4.33322 1.73328Z" fill="#EBEBEB"/>
<path d="M7.79989 7.80005C8.75292 8.03271 9.72177 8.19499 10.6986 8.28557L10.8965 8.30392C12.2957 8.43368 13.704 8.43331 15.1031 8.30283L15.2594 8.28825C16.2499 8.19588 17.2326 8.03273 18.1998 7.80005L18.1997 19.542C18.1997 19.542 17.7665 20.8 12.9998 20.8C8.23322 20.8 7.7998 19.542 7.7998 19.542L7.79989 7.80005Z" fill="#EBEBEB"/>
<ellipse cx="12.9997" cy="3.46661" rx="8.66667" ry="1.73333" fill="#EBEBEB"/>
<ellipse cx="12.9997" cy="1.73333" rx="8.66667" ry="1.73333" fill="#575757"/>
</svg>
