<svg xmlns="http://www.w3.org/2000/svg" xmlns:xlink="http://www.w3.org/1999/xlink" width="28" height="28" viewBox="0 0 28 28">
  <defs>
    <clipPath id="faa54832-5b8d-11eb-ae93-0242ac130002">
      <path d="M14,1.87A12.13,12.13,0,1,0,26.13,14,12.13,12.13,0,0,0,14,1.87Zm0,22.4A10.27,10.27,0,1,1,24.27,14,10.27,10.27,0,0,1,14,24.27Zm-1.35-5.92h3a1.5,1.5,0,0,1-3,0Zm5.93-1.09a5.75,5.75,0,0,1-.9-3V12a3.46,3.46,0,0,0-3.54-3.36A3.46,3.46,0,0,0,10.61,12v2.23a5.8,5.8,0,0,1-.9,3,.21.21,0,0,0,0,.23.24.24,0,0,0,.21.12h8.47a.24.24,0,0,0,.21-.12A.21.21,0,0,0,18.58,17.26Z" fill="none"/>
    </clipPath>
  </defs>
  <g clip-path="url(#faa54832-5b8d-11eb-ae93-0242ac130002)">
    <rect width="28" height="28" fill="currentColor"/>
  </g>
</svg>
