<svg width="110" height="110" viewBox="0 0 110 110" fill="none" xmlns="http://www.w3.org/2000/svg">
<rect width="110" height="110" fill="#F5F5F5"/>
<rect width="110" height="110" fill="url(#paint0_linear)" fill-opacity="0.2"/>
<rect x="0.5" y="0.5" width="109" height="109" stroke="black" stroke-opacity="0.1"/>
<path d="M29.0003 26.7188L29.6715 26.4086C32.812 24.9573 36.1799 24.0601 39.6262 23.7567L46.0088 23.1949C47.7591 23.0409 49.5195 23.0409 51.2697 23.1949L57.7382 23.7643C61.1285 24.0627 64.4434 24.9359 67.5408 26.3464L68.3585 26.7188C68.3585 26.7188 68.3582 72.45 68.3582 74.4873C68.3582 76.5246 64.4227 82.0012 48.6794 82.0012C32.9362 82.0012 29 76.5246 29 74.4873C29 72.45 29.0003 26.7188 29.0003 26.7188Z" fill="white"/>
<path d="M29.0003 26.7188L29.6715 26.4086C32.812 24.9573 36.1799 24.0601 39.6262 23.7567L46.0088 23.1949C47.7591 23.0409 49.5195 23.0409 51.2697 23.1949L57.7382 23.7643C61.1285 24.0627 64.4434 24.9359 67.5408 26.3464L68.3585 26.7188C68.3585 26.7188 68.3582 72.45 68.3582 74.4873C68.3582 76.5246 64.4227 82.0012 48.6794 82.0012C32.9362 82.0012 29 76.5246 29 74.4873C29 72.45 29.0003 26.7188 29.0003 26.7188Z" fill="url(#paint9_linear)"/>
<path d="M36.2932 40.6741L37.398 40.9438C38.8265 41.2925 40.2786 41.5358 41.7428 41.6715L45.3227 42.0035C47.1706 42.1749 49.0305 42.1744 50.8784 42.0021L54.4688 41.6672C55.8941 41.5343 57.308 41.2995 58.6998 40.9647L59.9081 40.6741L59.9079 67.3363C59.9079 67.3363 58.9241 70.193 48.1006 70.193C37.2771 70.193 36.293 67.3363 36.293 67.3363L36.2932 40.6741Z" fill="white"/>
<path d="M36.2932 54.6738L37.398 54.9436C38.8265 55.2923 40.2786 55.5355 41.7427 55.6713L45.3227 56.0033C47.1706 56.1746 49.0305 56.1741 50.8784 56.0018L54.4688 55.667C55.8941 55.5341 57.308 55.2993 58.6998 54.9645L59.9081 54.6738L59.9079 68.3361C59.9079 68.3361 58.9241 71.1927 48.1006 71.1927C37.2771 71.1927 36.293 68.3361 36.293 68.3361L36.2932 54.6738Z" fill="#CCCCCC"/>
<path d="M36.2932 54.6738L37.398 54.9436C38.8265 55.2923 40.2786 55.5355 41.7427 55.6713L45.3227 56.0033C47.1706 56.1746 49.0305 56.1741 50.8784 56.0018L54.4688 55.667C55.8941 55.5341 57.308 55.2993 58.6998 54.9645L59.9081 54.6738L59.9079 68.3361C59.9079 68.3361 58.9241 71.1927 48.1006 71.1927C37.2771 71.1927 36.293 68.3361 36.293 68.3361L36.2932 54.6738Z" fill="white" fill-opacity="0.3"/>
<path d="M68.3585 26.8985C68.3585 29.0722 59.5478 30.8344 48.6793 30.8344C37.8107 30.8344 29 29.0722 29 26.8985C29 24.7248 37.8107 20.6475 48.6793 20.6475C59.5478 20.6475 68.3585 24.7248 68.3585 26.8985Z" fill="#ACACAC"/>
<circle cx="73" cy="72" r="19" fill="white" stroke="#6D6D6D" stroke-width="2"/>
<circle cx="73" cy="72" r="14" fill="#CCCCCC"/>
<circle cx="73" cy="72" r="14" fill="white" fill-opacity="0.3"/>
<path d="M61.74 71.7513C61.74 65.8036 66.5616 60.9821 72.5092 60.9821C74.3599 60.9821 76.0972 61.4476 77.6151 62.2667L79.0763 59.5589C77.1206 58.5035 74.8825 57.9052 72.5092 57.9052C64.8622 57.9052 58.6631 64.1043 58.6631 71.7513H61.74Z" fill="#303030"/>
<path d="M77.6151 73.2252C77.6151 75.7742 75.5487 77.8406 72.9997 77.8406C70.4507 77.8406 68.3843 75.7742 68.3843 73.2252C68.3843 70.6762 70.4507 68.6099 72.9997 68.6099C73.2041 68.6099 73.4054 68.6231 73.6028 68.6489L80.8046 63.7073L77.4053 71.8454C77.5416 72.2811 77.6151 72.7446 77.6151 73.2252Z" fill="#303030"/>
<defs>
<linearGradient id="paint0_linear" x1="55" y1="0" x2="55" y2="110" gradientUnits="userSpaceOnUse">
<stop stop-color="white"/>
<stop offset="1" stop-color="white" stop-opacity="0"/>
</linearGradient>
<linearGradient id="paint9_linear" x1="58.0503" y1="35.6143" x2="58.1566" y2="84.1105" gradientUnits="userSpaceOnUse">
<stop stop-color="#919191"/>
<stop offset="1" stop-color="#5A5A5A"/>
</linearGradient>
</defs>
</svg>
