<svg width="110" height="110" viewBox="0 0 110 110" fill="none" xmlns="http://www.w3.org/2000/svg">
<rect width="110" height="110" fill="#F5F5F5"/>
<rect width="110" height="110" fill="url(#paint0_linear)" fill-opacity="0.2"/>
<rect x="0.5" y="0.5" width="109" height="109" stroke="black" stroke-opacity="0.1"/>
<path d="M21 67.625C21 67.625 21 75.2192 31.8333 75.2192H77.5208C82.845 75.2192 87 74.3958 87 67.625H21Z" fill="#838383"/>
<path d="M81.5832 67.625V36C81.5832 34.5413 81.0125 33.1424 79.9967 32.1109C78.9809 31.0795 77.6031 30.5 76.1665 30.5H32.8332C31.3966 30.5 30.0188 31.0795 29.003 32.1109C27.9872 33.1424 27.4165 34.5413 27.4165 36V67.625H81.5832Z" fill="#838383"/>
<path d="M47 67.6459H61V68.9997C61 69.1792 60.8771 69.3514 60.6583 69.4784C60.4395 69.6053 60.1427 69.6766 59.8333 69.6766H48.1667C47.8572 69.6766 47.5605 69.6053 47.3417 69.4784C47.1229 69.3514 47 69.1792 47 68.9997V67.6459Z" fill="#F4F4F4"/>
<path d="M78.875 36.0001H30.125V65.3335H78.875V36.0001Z" fill="white"/>
<path d="M67 58H91L87.6897 75H70.3103L67 58Z" fill="#CCCCCC"/>
<path d="M67 58H91L87.6897 75H70.3103L67 58Z" fill="white" fill-opacity="0.3"/>
<path d="M79.4367 48.5439L65.542 54.7194V63.9825C65.542 72.5587 71.4627 80.5559 79.4367 82.5089C87.4108 80.5559 93.3315 72.5587 93.3315 63.9825V54.7194L79.4367 48.5439ZM76.349 73.2457L70.1736 67.0703L72.3581 64.8857L76.349 68.8766L86.5153 58.7103L88.6999 60.8948L76.349 73.2457Z" fill="#474747"/>
<defs>
<linearGradient id="paint0_linear" x1="55" y1="0" x2="55" y2="110" gradientUnits="userSpaceOnUse">
<stop stop-color="white"/>
<stop offset="1" stop-color="white" stop-opacity="0"/>
</linearGradient>
</defs>
</svg>
