<svg width="110" height="110" viewBox="0 0 110 110" fill="none" xmlns="http://www.w3.org/2000/svg">
<rect width="110" height="110" fill="#F5F5F5"/>
<rect width="110" height="110" fill="url(#paint0_linear)" fill-opacity="0.2"/>
<rect x="0.5" y="0.5" width="109" height="109" stroke="black" stroke-opacity="0.1"/>
<rect x="34.0332" y="42.4333" width="43.8" height="39.5333" rx="2.5" fill="white" stroke="#A8A8A8"/>
<path d="M33.5332 36.4C33.5332 34.7432 34.8763 33.4 36.5332 33.4H75.3332C76.9901 33.4 78.3332 34.7432 78.3332 36.4V50.4667H33.5332V36.4Z" fill="#6A6A6A"/>
<rect x="33.5332" y="48.3334" width="44.8" height="2.13333" fill="black" fill-opacity="0.3"/>
<path d="M69.7999 40.8666C69.7999 42.6339 68.3672 44.0666 66.5999 44.0666C64.8326 44.0666 63.3999 42.6339 63.3999 40.8666C63.3999 39.0993 64.8326 37.6666 66.5999 37.6666C68.3672 37.6666 69.7999 39.0993 69.7999 40.8666Z" fill="#3A3E41"/>
<ellipse cx="45.2669" cy="40.8666" rx="3.2" ry="3.2" fill="#3A3E41"/>
<path d="M43 29C43 28.4477 43.4477 28 44 28H46.3333C46.8856 28 47.3333 28.4477 47.3333 29V40C47.3333 40.5523 46.8856 41 46.3333 41H44C43.4477 41 43 40.5523 43 40V29Z" fill="#888888"/>
<path d="M64.6667 29C64.6667 28.4477 65.1144 28 65.6667 28H68C68.5523 28 69 28.4477 69 29V40C69 40.5523 68.5523 41 68 41H65.6667C65.1144 41 64.6667 40.5523 64.6667 40V29Z" fill="#888888"/>
<rect x="52.7334" y="67.5333" width="6.4" height="6.4" fill="#9E9E9E"/>
<rect x="42.0669" y="67.5333" width="6.4" height="6.4" fill="#9E9E9E"/>
<rect x="63.3999" y="56.8667" width="6.4" height="6.4" fill="#9E9E9E"/>
<rect x="52.7334" y="56.8667" width="6.4" height="6.4" fill="#9E9E9E"/>
<rect x="42.0669" y="56.8667" width="6.4" height="6.4" fill="#9E9E9E"/>
<path d="M85.3666 78.2C85.3666 84.4408 80.3074 89.5 74.0666 89.5C67.8258 89.5 62.7666 84.4408 62.7666 78.2C62.7666 71.9592 67.8258 66.9 74.0666 66.9C80.3074 66.9 85.3666 71.9592 85.3666 78.2Z" fill="white" stroke="#626262" stroke-width="3"/>
<path d="M79.0442 80.3333H73.3553C72.5688 80.3333 71.9331 79.6975 71.9331 78.911V73.2221C71.9331 72.4357 72.5688 71.7999 73.3553 71.7999C74.1418 71.7999 74.7775 72.4357 74.7775 73.2221V77.4888H79.0442C79.8307 77.4888 80.4664 78.1245 80.4664 78.911C80.4664 79.6975 79.8307 80.3333 79.0442 80.3333Z" fill="#444444"/>
<defs>
<linearGradient id="paint0_linear" x1="55" y1="0" x2="55" y2="110" gradientUnits="userSpaceOnUse">
<stop stop-color="white"/>
<stop offset="1" stop-color="white" stop-opacity="0"/>
</linearGradient>
</defs>
</svg>
