<svg width="23" height="23" viewBox="0 0 23 23" fill="none" xmlns="http://www.w3.org/2000/svg">
<path d="M11.5002 15.3333L15.3335 11.5H12.4585V2.875H10.5418V11.5H7.66683L11.5002 15.3333ZM20.1252 2.875H14.3752V4.78208H20.1252V18.2275H2.87516V4.78208H8.62516V2.875H2.87516C1.821 2.875 0.958496 3.7375 0.958496 4.79167V18.2083C0.958496 19.2625 1.821 20.125 2.87516 20.125H20.1252C21.1793 20.125 22.0418 19.2625 22.0418 18.2083V4.79167C22.0418 3.7375 21.1793 2.875 20.1252 2.875ZM11.5002 15.3333L15.3335 11.5H12.4585V2.875H10.5418V11.5H7.66683L11.5002 15.3333ZM20.1252 2.875H14.3752V4.78208H20.1252V18.2275H2.87516V4.78208H8.62516V2.875H2.87516C1.821 2.875 0.958496 3.7375 0.958496 4.79167V18.2083C0.958496 19.2625 1.821 20.125 2.87516 20.125H20.1252C21.1793 20.125 22.0418 19.2625 22.0418 18.2083V4.79167C22.0418 3.7375 21.1793 2.875 20.1252 2.875Z" fill="currentColor"/>
</svg>
