<svg width="20" height="20" viewBox="0 0 20 20" fill="none" xmlns="http://www.w3.org/2000/svg">
<path fill-rule="evenodd" clip-rule="evenodd" d="M2 2H18V18H2V2ZM0 2C0 0.895431 0.895431 0 2 0H18C19.1046 0 20 0.895431 20 2V18C20 19.1046 19.1046 20 18 20H2C0.895431 20 0 19.1046 0 18V2ZM8.97996 6.922C9.20396 7.09933 9.55863 7.188 10.044 7.188C10.52 7.188 10.87 7.09933 11.094 6.922C11.318 6.73533 11.43 6.446 11.43 6.054C11.43 5.65266 11.318 5.36333 11.094 5.186C10.87 4.99933 10.52 4.906 10.044 4.906C9.55863 4.906 9.20396 4.99933 8.97996 5.186C8.76529 5.36333 8.65796 5.65266 8.65796 6.054C8.65796 6.446 8.76529 6.73533 8.97996 6.922ZM11.234 15V8H8.85396V15H11.234Z" fill="currentColor"/>
</svg>
