<svg width="33" height="33" viewBox="0 0 33 33" fill="none" xmlns="http://www.w3.org/2000/svg">
<path d="M16.5 0.25C7.54462 0.25 0.25 7.54462 0.25 16.5C0.25 25.4554 7.54462 32.75 16.5 32.75C25.4554 32.75 32.75 25.4554 32.75 16.5C32.75 7.54462 25.4554 0.25 16.5 0.25ZM16.5 3.5C23.699 3.5 29.5 9.30105 29.5 16.5C29.5 23.699 23.699 29.5 16.5 29.5C9.30105 29.5 3.5 23.699 3.5 16.5C3.5 9.30105 9.30105 3.5 16.5 3.5ZM14.875 8.375V11.625H18.125V8.375H14.875ZM14.875 14.875V24.625H18.125V14.875H14.875Z" fill="#333333"/>
</svg>
