<svg width="18" height="18" viewBox="0 0 18 18" fill="none" xmlns="http://www.w3.org/2000/svg">
<path d="M8.862 5.656C8.61 5.656 8.40467 5.58133 8.246 5.432C8.09667 5.27333 8.022 5.068 8.022 4.816C8.022 4.564 8.09667 4.36333 8.246 4.214C8.40467 4.05533 8.61 3.976 8.862 3.976C9.114 3.976 9.31467 4.05533 9.464 4.214C9.62267 4.36333 9.702 4.564 9.702 4.816C9.702 5.068 9.62267 5.27333 9.464 5.432C9.31467 5.58133 9.114 5.656 8.862 5.656ZM9.422 14H8.302V7H9.422V14Z" fill="#333333"/>
<circle cx="9" cy="9" r="8.5" stroke="#333333"/>
</svg>
