<svg width="24" height="24" viewBox="0 0 24 24" fill="none" xmlns="http://www.w3.org/2000/svg">
<path d="M12.048 13.08L12.682 11.275C12.0262 11.0748 11.3967 10.7968 10.807 10.447C11.2465 9.95941 11.6195 9.41567 11.916 8.83C12.2272 8.21891 12.4572 7.56973 12.6 6.899C13.189 6.899 13.579 6.919 14.019 6.959V5.15C13.5375 5.20203 13.0533 5.22541 12.569 5.22H10.187V4.61C10.1867 4.40518 10.2068 4.20083 10.247 4H8.238C8.27922 4.20406 8.29932 4.41182 8.298 4.62V5.22H6.089C5.60504 5.22515 5.12121 5.20177 4.64 5.15V6.959C5.14 6.919 5.479 6.899 6.069 6.899C6.23855 7.49125 6.46982 8.06406 6.759 8.608C7.10815 9.27061 7.5414 9.88536 8.048 10.437C6.95071 11.0769 5.74995 11.5199 4.5 11.746C4.92041 12.2752 5.24498 12.8739 5.459 13.515C6.8811 13.1351 8.22712 12.513 9.438 11.676C10.2443 12.2538 11.1215 12.7257 12.048 13.08V13.08ZM7.988 6.899H10.637C10.4242 7.79504 9.995 8.62526 9.387 9.317C8.72732 8.63952 8.24655 7.80857 7.988 6.899V6.899Z" fill="currentColor"/>
<path d="M18.217 19.5301L17.492 17.1511H13.849L13.124 19.5301H10.841L14.368 9.49512H16.959L20.5 19.5301H18.217ZM16.986 15.3741C16.3193 13.2181 15.9423 11.9991 15.855 11.7171C15.771 11.4341 15.71 11.2111 15.674 11.0471C15.5233 11.6298 15.0927 13.0721 14.382 15.3741H16.986Z" fill="currentColor"/>
</svg>
