<svg width="28" height="42" viewBox="0 0 28 42" fill="none" xmlns="http://www.w3.org/2000/svg">
<mask id="path-1-outside-1" maskUnits="userSpaceOnUse" x="0" y="0.428711" width="28" height="42" fill="black">
<rect fill="white" y="0.428711" width="28" height="42"/>
<path fill-rule="evenodd" clip-rule="evenodd" d="M14 39.0001C14 39.0001 26 21.0561 26 14.4287C26 7.80129 20.6274 2.42871 14 2.42871C7.37258 2.42871 2 7.80129 2 14.4287C2 21.0561 14 39.0001 14 39.0001ZM14 20.7143C17.4715 20.7143 20.2857 17.9001 20.2857 14.4286C20.2857 10.9571 17.4715 8.14286 14 8.14286C10.5285 8.14286 7.71429 10.9571 7.71429 14.4286C7.71429 17.9001 10.5285 20.7143 14 20.7143Z"/>
</mask>
<path fill-rule="evenodd" clip-rule="evenodd" d="M14 39.0001C14 39.0001 26 21.0561 26 14.4287C26 7.80129 20.6274 2.42871 14 2.42871C7.37258 2.42871 2 7.80129 2 14.4287C2 21.0561 14 39.0001 14 39.0001ZM14 20.7143C17.4715 20.7143 20.2857 17.9001 20.2857 14.4286C20.2857 10.9571 17.4715 8.14286 14 8.14286C10.5285 8.14286 7.71429 10.9571 7.71429 14.4286C7.71429 17.9001 10.5285 20.7143 14 20.7143Z" fill="#333333"/>
<path d="M14 39.0001L12.7531 39.834L14 41.6985L15.2469 39.834L14 39.0001ZM24.5 14.4287C24.5 15.7494 23.8693 17.8634 22.7472 20.471C21.6522 23.0154 20.1811 25.8275 18.6938 28.4623C17.2091 31.0923 15.7225 33.5208 14.6058 35.2933C14.0479 36.1789 13.5834 36.8993 13.2589 37.3973C13.0966 37.6463 12.9695 37.8396 12.8832 37.9702C12.8401 38.0355 12.8072 38.0851 12.7853 38.118C12.7743 38.1345 12.7661 38.1469 12.7607 38.155C12.758 38.159 12.756 38.162 12.7548 38.1639C12.7541 38.1648 12.7537 38.1655 12.7534 38.1659C12.7533 38.1661 12.7532 38.1662 12.7531 38.1663C12.7531 38.1663 12.7531 38.1663 14 39.0001C15.2469 39.834 15.247 39.8338 15.2472 39.8336C15.2473 39.8334 15.2475 39.8331 15.2477 39.8328C15.2482 39.8321 15.2488 39.8311 15.2496 39.8299C15.2513 39.8274 15.2536 39.8239 15.2567 39.8193C15.2628 39.8101 15.2718 39.7966 15.2836 39.7789C15.3071 39.7436 15.3416 39.6916 15.3863 39.6238C15.4759 39.4883 15.6065 39.2896 15.7724 39.035C16.1041 38.5259 16.5771 37.7926 17.1442 36.8924C18.2775 35.0932 19.7909 32.6215 21.3062 29.9371C22.8189 27.2575 24.3478 24.3409 25.5028 21.6569C26.6307 19.036 27.5 16.4217 27.5 14.4287H24.5ZM14 3.92871C19.799 3.92871 24.5 8.62972 24.5 14.4287H27.5C27.5 6.97287 21.4558 0.928711 14 0.928711V3.92871ZM3.5 14.4287C3.5 8.62972 8.20101 3.92871 14 3.92871V0.928711C6.54416 0.928711 0.5 6.97287 0.5 14.4287H3.5ZM14 39.0001C15.2469 38.1663 15.2469 38.1663 15.2469 38.1663C15.2468 38.1662 15.2467 38.1661 15.2466 38.1659C15.2463 38.1655 15.2459 38.1648 15.2453 38.1639C15.244 38.162 15.242 38.159 15.2393 38.155C15.2339 38.1469 15.2257 38.1345 15.2147 38.118C15.1928 38.0851 15.1599 38.0355 15.1168 37.9702C15.0305 37.8396 14.9034 37.6463 14.7411 37.3973C14.4166 36.8993 13.9521 36.1789 13.3942 35.2933C12.2775 33.5208 10.7909 31.0923 9.30625 28.4623C7.81889 25.8275 6.3478 23.0154 5.25284 20.471C4.1307 17.8634 3.5 15.7494 3.5 14.4287H0.5C0.5 16.4217 1.3693 19.036 2.49716 21.6569C3.6522 24.3409 5.18112 27.2575 6.69376 29.9371C8.20913 32.6215 9.72246 35.0932 10.8558 36.8924C11.4229 37.7926 11.8959 38.5259 12.2276 39.035C12.3935 39.2896 12.5241 39.4883 12.6137 39.6238C12.6584 39.6916 12.6929 39.7436 12.7164 39.7789C12.7282 39.7966 12.7372 39.8101 12.7433 39.8193C12.7464 39.8239 12.7487 39.8274 12.7504 39.8299C12.7512 39.8311 12.7518 39.8321 12.7523 39.8328C12.7525 39.8331 12.7527 39.8334 12.7528 39.8336C12.753 39.8338 12.7531 39.834 14 39.0001ZM18.7857 14.4286C18.7857 17.0716 16.6431 19.2143 14 19.2143V22.2143C18.2999 22.2143 21.7857 18.7285 21.7857 14.4286H18.7857ZM14 9.64286C16.6431 9.64286 18.7857 11.7855 18.7857 14.4286H21.7857C21.7857 10.1286 18.2999 6.64286 14 6.64286V9.64286ZM9.21429 14.4286C9.21429 11.7855 11.3569 9.64286 14 9.64286V6.64286C9.70007 6.64286 6.21429 10.1286 6.21429 14.4286H9.21429ZM14 19.2143C11.3569 19.2143 9.21429 17.0716 9.21429 14.4286H6.21429C6.21429 18.7285 9.70007 22.2143 14 22.2143V19.2143Z" fill="white" mask="url(#path-1-outside-1)"/>
</svg>
