<svg width="24" height="53" viewBox="0 0 24 53" fill="none" xmlns="http://www.w3.org/2000/svg">
<path d="M15.3019 48.5444C15.3019 52.7245 16.5639 50.3017 11.1509 50.3017C5.738 50.3017 6.53866 52.7245 6.53866 48.5444C6.53866 45.0371 4.86814 47.0449 7.94845 46C8.42777 45.9018 8.03741 12.5 7.94839 10.2871C7.94833 9.50012 9.19074 9.0033 11.1509 9.0033C12.8311 9.0033 14.0001 9.50001 14.0001 10.2871C14.0001 11.5 14.032 46.9785 14.5113 47.0768C17.3116 48.1217 15.3019 45.0371 15.3019 48.5444Z" fill="#707070"/>
<path d="M15.8102 46.8878C15.8102 51.6402 16.1205 46.8878 11.1727 46.8878C6.22489 46.8878 6.11359 50.7895 6.11359 46.0371C6.11359 42.0498 5.28549 44.783 8.1011 43.595C8.08583 42.7501 8.1011 32.0001 8.1011 32.0001L11.1727 32L14.1 32.0001C14.1 32.0001 14.2442 42.7188 14.2442 43.595C16.8039 44.783 15.8102 42.9005 15.8102 46.8878Z" fill="#52B8FF"/>
<ellipse cx="11" cy="44.5" rx="8" ry="8.5" fill="#52B8FF"/>
</svg>
