<svg width="22" height="26" viewBox="0 0 22 26" fill="none" xmlns="http://www.w3.org/2000/svg">
<path d="M18.8235 26H1.17647C0.526471 26 0 25.642 0 25.2V10.8C0 10.358 0.526471 10 1.17647 10H18.8235C19.4735 10 20 10.358 20 10.8V25.2C20 25.642 19.4735 26 18.8235 26Z" fill="#FFD732"/>
<path d="M4.5 26H1.17647C0.526471 26 0 25.642 0 25.2V10.8C0 10.358 0.526471 10 1.17647 10H14L4.5 26Z" fill="white" fill-opacity="0.5"/>
<path d="M18.8235 25.5H1.17647C0.93835 25.5 0.745161 25.4336 0.62564 25.3523C0.503549 25.2693 0.5 25.2065 0.5 25.2V10.8C0.5 10.7935 0.503549 10.7307 0.62564 10.6477C0.745161 10.5664 0.938349 10.5 1.17647 10.5H18.8235C19.0616 10.5 19.2548 10.5664 19.3744 10.6477C19.4965 10.7307 19.5 10.7935 19.5 10.8V25.2C19.5 25.2065 19.4965 25.2693 19.3744 25.3523C19.2548 25.4336 19.0616 25.5 18.8235 25.5Z" stroke="black" stroke-opacity="0.1"/>
<path d="M22 6.66667C22 10.3486 15 20 15 20C15 20 8 10.3486 8 6.66667C8 2.98477 11.134 0 15 0C18.866 0 22 2.98477 22 6.66667Z" fill="#636363"/>
<circle cx="15" cy="7" r="3" fill="white"/>
</svg>
