<svg width="57" height="57" viewBox="0 0 57 57" fill="none" xmlns="http://www.w3.org/2000/svg">
<path fill-rule="evenodd" clip-rule="evenodd" d="M31 38.8186C30.3514 38.9378 29.683 39 29 39C28.317 39 27.6486 38.9378 27 38.8186V40.8471C27.6519 40.9478 28.3199 41 29 41C29.6801 41 30.3481 40.9478 31 40.8471V38.8186ZM25 38.2501C20.9026 36.65 18 32.664 18 28C18 21.9249 22.9249 17 29 17C35.0751 17 40 21.9249 40 28C40 32.664 37.0974 36.65 33 38.2501V40.373C38.2225 38.6859 42 33.7841 42 28C42 20.8203 36.1797 15 29 15C21.8203 15 16 20.8203 16 28C16 33.7841 19.7775 38.6859 25 40.373V38.2501Z" fill="#949494"/>
<path fill-rule="evenodd" clip-rule="evenodd" d="M31 33.6586C30.3744 33.8797 29.7013 34 29 34C28.2987 34 27.6256 33.8797 27 33.6586V35.748C27.6392 35.9125 28.3094 36 29 36C29.6906 36 30.3608 35.9125 31 35.748V33.6586ZM25 32.4722C23.7725 31.3736 23 29.777 23 28C23 24.6863 25.6863 22 29 22C32.3137 22 35 24.6863 35 28C35 29.777 34.2275 31.3736 33 32.4722V34.9297C35.3912 33.5465 37 30.9611 37 28C37 23.5817 33.4183 20 29 20C24.5817 20 21 23.5817 21 28C21 30.9611 22.6088 33.5465 25 34.9297V32.4722Z" fill="#949494"/>
<path d="M27 30H31V45H27V30Z" fill="#949494"/>
<circle cx="29" cy="28" r="3" fill="#949494"/>
<circle cx="28.5" cy="28.5" r="27" stroke="#F04632" stroke-width="3"/>
<rect x="7.90894" y="47.6692" width="54.3692" height="2.63077" transform="rotate(-45 7.90894 47.6692)" fill="#F04632"/>
</svg>
