<svg width="80" height="80" viewBox="0 0 80 80" fill="none" xmlns="http://www.w3.org/2000/svg">
<path d="M40.9231 23.9615C48.238 23.9615 54.4009 22.6242 56.2671 21.1783C56.6445 20.8859 56.8462 20.5891 56.8462 20.2981C56.8462 18.5674 51.2967 16 40.778 16C34.096 16 29.1385 17.2159 26.6965 18.5383C26.0336 18.8973 25.556 19.2641 25.2797 19.6165C25.1766 19.748 25.1016 19.8774 25.0553 20.0038C25.021 20.0975 25.0025 20.1895 25.0002 20.2792C25.0001 20.2855 25 20.2918 25 20.2981C25 20.7307 25.4456 21.176 26.2513 21.6006C26.8904 21.9373 27.756 22.261 28.8056 22.555C28.9083 22.5838 29.0127 22.6123 29.1189 22.6405C29.157 22.6506 29.1954 22.6607 29.234 22.6707C30.0664 22.8875 31.0014 23.0859 32.0203 23.2587C34.5617 23.6897 37.6253 23.9615 40.9231 23.9615Z" fill="currentColor"/>
<path d="M40.9231 23.9615C48.238 23.9615 54.4009 22.6242 56.2671 21.1783C56.6445 20.8859 56.8462 20.5891 56.8462 20.2981C56.8462 18.5674 51.2967 16 40.778 16C34.096 16 29.1385 17.2159 26.6965 18.5383C26.0336 18.8973 25.556 19.2641 25.2797 19.6165C25.1766 19.748 25.1016 19.8774 25.0553 20.0038C25.021 20.0975 25.0025 20.1895 25.0002 20.2792C25.0001 20.2855 25 20.2918 25 20.2981C25 20.7307 25.4456 21.176 26.2513 21.6006C26.8904 21.9373 27.756 22.261 28.8056 22.555C28.9083 22.5838 29.0127 22.6123 29.1189 22.6405C29.157 22.6506 29.1954 22.6607 29.234 22.6707C30.0664 22.8875 31.0014 23.0859 32.0203 23.2587C34.5617 23.6897 37.6253 23.9615 40.9231 23.9615Z" fill="currentColor"/>
<path fill-rule="evenodd" clip-rule="evenodd" d="M52.5998 24.4981C49.5591 25.2363 45.4355 25.7308 40.9231 25.7308C36.4107 25.7308 32.2871 25.2363 29.2464 24.4981C27.7384 24.132 26.4148 23.6866 25.4265 23.1658C25.2837 23.0905 25.1408 23.01 25.0002 22.9238L25 55.9203C25 57.5687 28.127 62 40.6337 62C53.1404 62 56.2669 57.5687 56.2669 55.9203L56.2671 23.2442C55.297 23.7314 54.0315 24.1505 52.5998 24.4981ZM40.4808 32.3226C37.2828 32.2839 34.2702 31.9005 31.1925 31.0385L31.1923 52.6117C31.1923 52.6117 31.9665 54.9231 40.4808 54.9231C48.9952 54.9231 49.7691 52.6117 49.7691 52.6117L49.7692 31.0385C46.6984 31.7983 43.6767 32.3612 40.4808 32.3226Z" fill="currentColor"/>
<path fill-rule="evenodd" clip-rule="evenodd" d="M52.5998 24.4981C49.5591 25.2363 45.4355 25.7308 40.9231 25.7308C36.4107 25.7308 32.2871 25.2363 29.2464 24.4981C27.7384 24.132 26.4148 23.6866 25.4265 23.1658C25.2837 23.0905 25.1408 23.01 25.0002 22.9238L25 55.9203C25 57.5687 28.127 62 40.6337 62C53.1404 62 56.2669 57.5687 56.2669 55.9203L56.2671 23.2442C55.297 23.7314 54.0315 24.1505 52.5998 24.4981ZM40.4808 32.3226C37.2828 32.2839 34.2702 31.9005 31.1925 31.0385L31.1923 52.6117C31.1923 52.6117 31.9665 54.9231 40.4808 54.9231C48.9952 54.9231 49.7691 52.6117 49.7691 52.6117L49.7692 31.0385C46.6984 31.7983 43.6767 32.3612 40.4808 32.3226Z" fill="currentColor"/>
</svg>
