<svg width="60" height="32" viewBox="0 4 60 32" fill="none" xmlns="http://www.w3.org/2000/svg">
<circle cx="30.4983" cy="20.4996" r="5.5" fill="currentColor"/>
<path d="M37.7154 29.293C38.1268 29.8359 38.9053 29.9467 39.4052 29.484C40.5687 28.4072 41.5205 27.1171 42.2067 25.6797C43.0705 23.8704 43.4883 21.8805 43.4252 19.8766C43.362 17.8727 42.8197 15.913 41.8437 14.1617C41.0683 12.7704 40.0372 11.5428 38.8082 10.5414C38.2801 10.1111 37.5101 10.2708 37.1338 10.8385C36.7574 11.4063 36.9185 12.1663 37.4361 12.6091C38.3418 13.3841 39.1055 14.3157 39.6889 15.3626C40.4731 16.7697 40.9088 18.3442 40.9596 19.9543C41.0103 21.5644 40.6747 23.1632 39.9806 24.617C39.4643 25.6985 38.7607 26.6764 37.9056 27.5068C37.4169 27.9814 37.304 28.75 37.7154 29.293Z" fill="currentColor"/>
<path d="M23.3283 29.293C22.9169 29.8359 22.1384 29.9467 21.6385 29.484C20.475 28.4072 19.5232 27.1171 18.837 25.6797C17.9732 23.8704 17.5554 21.8805 17.6185 19.8766C17.6817 17.8727 18.224 15.913 19.2 14.1617C19.9754 12.7704 21.0065 11.5428 22.2355 10.5414C22.7636 10.1111 23.5336 10.2708 23.9099 10.8385C24.2863 11.4063 24.1252 12.1663 23.6076 12.6091C22.7019 13.3841 21.9382 14.3157 21.3548 15.3626C20.5706 16.7697 20.1349 18.3442 20.0841 19.9543C20.0334 21.5644 20.369 23.1632 21.0631 24.617C21.5794 25.6985 22.283 26.6764 23.1381 27.5068C23.6268 27.9814 23.7397 28.75 23.3283 29.293Z" fill="currentColor"/>
<path d="M42.0419 33.191C42.4736 33.7607 43.2891 33.876 43.8261 33.4041C45.6357 31.8138 47.1081 29.8703 48.1499 27.6881C49.3779 25.1159 49.9719 22.2868 49.8821 19.4378C49.7923 16.5889 49.0214 13.8028 47.6338 11.313C46.4566 9.20079 44.8648 7.35386 42.9585 5.88064C42.3929 5.44349 41.5864 5.60993 41.1913 6.20575C40.7963 6.80157 40.9632 7.60062 41.5234 8.0447C43.0876 9.28467 44.3967 10.8223 45.3725 12.5732C46.5588 14.7019 47.2179 17.0837 47.2946 19.5194C47.3714 21.9551 46.8636 24.3737 45.8137 26.5728C44.9501 28.3817 43.7404 29.9987 42.2574 31.3347C41.7263 31.8132 41.6101 32.6212 42.0419 33.191Z" fill="currentColor"/>
<path d="M19.0021 33.191C18.5703 33.7607 17.7549 33.876 17.2179 33.4041C15.4082 31.8138 13.9359 29.8703 12.8941 27.6881C11.666 25.1159 11.072 22.2868 11.1618 19.4378C11.2516 16.5889 12.0226 13.8028 13.4102 11.313C14.5873 9.20079 16.1792 7.35386 18.0854 5.88064C18.651 5.44349 19.4576 5.60993 19.8526 6.20575C20.2476 6.80157 20.0808 7.60062 19.5206 8.0447C17.9564 9.28467 16.6473 10.8223 15.6715 12.5732C14.4852 14.7019 13.8261 17.0837 13.7493 19.5194C13.6725 21.9551 14.1804 24.3737 15.2302 26.5728C16.0938 28.3817 17.3035 29.9987 18.7865 31.3347C19.3176 31.8132 19.4338 32.6212 19.0021 33.191Z" fill="currentColor"/>
</svg>
