<svg width="16" height="15" viewBox="0 0 16 15" fill="none" xmlns="http://www.w3.org/2000/svg">
<path d="M11.2965 0.28125C10.933 -0.09375 10.3877 -0.09375 10.0242 0.28125L0.936215 9.65625C0.754454 9.84375 0.663574 10.0312 0.663574 10.3125V14.0625C0.663574 14.625 1.02709 15 1.57238 15H5.20758C5.48022 15 5.66198 14.9062 5.84374 14.7188L14.9318 5.34375C15.2953 4.96875 15.2953 4.40625 14.9318 4.03125L11.2965 0.28125ZM4.84406 13.125H2.48118V10.6875L7.93398 5.0625L10.2969 7.5L4.84406 13.125ZM11.5692 6.1875L9.2063 3.75L10.6604 2.25L13.0233 4.6875L11.5692 6.1875Z" fill="currentColor"/>
</svg>
