<svg width="25" height="15" viewBox="0 0 25 15" fill="none" xmlns="http://www.w3.org/2000/svg">
<path d="M11.1646 0.28125C10.7829 -0.09375 10.2104 -0.09375 9.82868 0.28125L0.286272 9.65625C0.0954241 9.84375 0 10.0312 0 10.3125V14.0625C0 14.625 0.381696 15 0.954241 15H4.77121C5.05748 15 5.24833 14.9062 5.43917 14.7188L14.9816 5.34375C15.3633 4.96875 15.3633 4.40625 14.9816 4.03125L11.1646 0.28125ZM4.38951 13.125H1.90848V10.6875L7.63393 5.0625L10.115 7.5L4.38951 13.125ZM11.4509 6.1875L8.96987 3.75L10.4967 2.25L12.9777 4.6875L11.4509 6.1875Z" fill="#333333"/>
<rect x="14" y="9" width="6" height="2" fill="#333333"/>
<rect x="14" y="13" width="10" height="2" fill="#333333"/>
</svg>
