<svg width="95" height="65" viewBox="0 0 95 65" fill="none" xmlns="http://www.w3.org/2000/svg">
<path d="M0 48C0 48 0 57 14.2803 57H74.5047C81.523 57 87 56.0241 87 48H0Z" fill="#A0A0A0"/>
<path d="M81 48V7.11111C81 5.22513 80.2414 3.41639 78.8912 2.0828C77.5409 0.749204 75.7096 0 73.8 0H16.2C14.2904 0 12.4591 0.749204 11.1088 2.0828C9.75857 3.41639 9 5.22513 9 7.11111V48H81Z" fill="#A0A0A0"/>
<path d="M38 48H55V49.3333C55 49.5101 54.8507 49.6797 54.5851 49.8047C54.3194 49.9298 53.9591 50 53.5833 50H39.4167C39.0409 50 38.6806 49.9298 38.4149 49.8047C38.1493 49.6797 38 49.5101 38 49.3333V48Z" fill="#F4F4F4"/>
<path d="M77 4H13V45H77V4Z" fill="white"/>
<path d="M72 9H18V40H72V9Z" fill="#FFD732"/>
<path d="M64 36H92L88.1379 56H67.8621L64 36Z" fill="white"/>
<path d="M78.5 25L62 32.2727V43.1818C62 53.2818 69.0308 62.7 78.5 65C87.9692 62.7 95 53.2818 95 43.1818V32.2727L78.5 25ZM74.8333 54.0909L67.5 46.8182L70.0942 44.2455L74.8333 48.9455L86.9058 36.9727L89.5 39.5455L74.8333 54.0909Z" fill="#474747"/>
</svg>
