<svg width="13" height="15" viewBox="0 0 13 15" fill="none" xmlns="http://www.w3.org/2000/svg">
<mask id="path-1-inside-1" fill="white">
<rect width="12.5" height="15" rx="1"/>
</mask>
<rect width="12.5" height="15" rx="1" stroke="currentColor" stroke-width="3" mask="url(#path-1-inside-1)"/>
<path d="M2.5 3.75C2.5 3.33579 2.83579 3 3.25 3H8.75C9.16421 3 9.5 3.33579 9.5 3.75C9.5 4.16421 9.16421 4.5 8.75 4.5H3.25C2.83579 4.5 2.5 4.16421 2.5 3.75Z" fill="currentColor"/>
<path d="M5.5 6.5C5.5 6.91421 5.16421 7.25 4.75 7.25L3.25 7.25C2.83579 7.25 2.5 6.91421 2.5 6.5C2.5 6.08579 2.83579 5.75 3.25 5.75L4.75 5.75C5.16421 5.75 5.5 6.08579 5.5 6.5Z" fill="currentColor"/>
<path d="M7.5 5.99963L7.5 12.0707" stroke="currentColor" stroke-width="1.5" stroke-miterlimit="10" stroke-linecap="round" stroke-linejoin="round"/>
<path d="M9.32131 10.2498L7.50007 12.0711L5.67876 10.2498" stroke="currentColor" stroke-width="1.5" stroke-miterlimit="10" stroke-linecap="round" stroke-linejoin="round"/>
</svg>
