<svg width="56" height="53" viewBox="0 0 56 53" fill="none" xmlns="http://www.w3.org/2000/svg">
<path d="M27.6558 8.13465L29.3569 8.16193L29.2842 12.6983L27.5831 12.671L27.6558 8.13465Z" fill="currentColor"/>
<path d="M16.0532 20.7058L15.4023 22.2778L11.2105 20.5421L11.8614 18.9702L16.0532 20.7058Z" fill="currentColor"/>
<path d="M39.9663 20.7058L40.6172 22.2778L44.809 20.5421L44.1581 18.9702L39.9663 20.7058Z" fill="currentColor"/>
<path fill-rule="evenodd" clip-rule="evenodd" d="M10.8423 25.7148C10.8423 16.2073 18.5496 8.5 28.0571 8.5C37.5646 8.5 45.2719 16.2073 45.2719 25.7148C45.2719 28.0864 44.7923 30.3459 43.9249 32.4018L45.1831 33.2726C46.2046 30.9613 46.7719 28.4043 46.7719 25.7148C46.7719 15.3789 38.393 7 28.0571 7C17.7212 7 9.34229 15.3789 9.34229 25.7148C9.34229 28.4138 9.91364 30.9794 10.942 33.2972L12.1998 32.4266C11.3257 30.3641 10.8423 28.0959 10.8423 25.7148Z" fill="currentColor"/>
</svg>
