<svg width="31" height="31" viewBox="0 0 31 31" fill="none" xmlns="http://www.w3.org/2000/svg">
<path d="M15.9479 16.076L16.0163 16.085L16.0676 16.0389L23.6031 9.26574L18.7819 18.3342L18.7525 18.3896L18.7712 18.4494C18.8723 18.7727 18.9269 19.1168 18.9269 19.474C18.9269 21.3666 17.3926 22.9009 15.5 22.9009C13.6074 22.9009 12.0731 21.3666 12.0731 19.474C12.0731 17.5813 13.6074 16.047 15.5 16.047C15.6519 16.047 15.8014 16.0569 15.9479 16.076ZM15.5 7.00385C10.8578 7.00385 7.08518 10.7269 7.00515 15.35H4.92028C5.00051 9.57555 9.70649 4.91923 15.5 4.91923C17.2604 4.91923 18.9232 5.34997 20.3857 6.11257L19.3956 7.94735C18.2298 7.34463 16.9061 7.00385 15.5 7.00385ZM30.85 15.5C30.85 23.9776 23.9776 30.85 15.5 30.85C7.02243 30.85 0.15 23.9776 0.15 15.5C0.15 7.02243 7.02243 0.15 15.5 0.15C23.9776 0.15 30.85 7.02243 30.85 15.5ZM15.5 28.7654C22.8263 28.7654 28.7654 22.8263 28.7654 15.5C28.7654 8.17373 22.8263 2.23462 15.5 2.23462C8.17373 2.23462 2.23462 8.17373 2.23462 15.5C2.23462 22.8263 8.17373 28.7654 15.5 28.7654Z" fill="#6C6C6C" stroke="white" stroke-width="0.3"/>
</svg>
