<svg width="23" height="22" viewBox="0 0 23 22" fill="none"
    xmlns="http://www.w3.org/2000/svg">
    <path fill-rule="evenodd" clip-rule="evenodd" d="M20.1739 0C21.1824 0 22 0.895431 22 2V20C22 21.1046 21.1824 22 20.1739 22H2.82609C1.81757 22 1 21.1046 1 20V2C1 0.895429 1.81757 0 2.82609 0H20.1739ZM4.0525 5.04994C4.02394 4.47875 4.47935 4 5.05125 4H5.94875C6.52065 4 6.97606 4.47875 6.9475 5.04994L6.5475 13.0499C6.52089 13.5821 6.08162 14 5.54875 14H5.45125C4.91838 14 4.47911 13.5821 4.4525 13.0499L4.0525 5.04994ZM5.5 18C6.32843 18 7 17.3284 7 16.5C7 15.6716 6.32843 15 5.5 15C4.67157 15 4 15.6716 4 16.5C4 17.3284 4.67157 18 5.5 18ZM10 4H19V6H10V4ZM19 8H10V10H19V8ZM10 12H19V14H10V12ZM19 16H10V18H19V16Z" fill="currentColor"/>
</svg>
