<svg width="24" height="24" viewBox="0 0 24 24" fill="none" xmlns="http://www.w3.org/2000/svg">
<mask id="path-1-inside-1" fill="white">
<rect x="6" y="4" width="12.5" height="15" rx="1"/>
</mask>
<rect x="6" y="4" width="12.5" height="15" rx="1" stroke="#ED2D2D" stroke-width="3" mask="url(#path-1-inside-1)"/>
<rect x="9" y="7" width="6.5" height="1.5" rx="0.75" fill="#ED2D2D"/>
<rect x="9" y="10" width="6.5" height="1.5" rx="0.75" fill="#ED2D2D"/>
<path d="M9.75 13C10.1642 13 10.5 13.3358 10.5 13.75L10.5 15.25C10.5 15.6642 10.1642 16 9.75 16C9.33579 16 9 15.6642 9 15.25L9 13.75C9 13.3358 9.33579 13 9.75 13Z" fill="#ED2D2D"/>
<path d="M12.25 13C12.6642 13 13 13.3358 13 13.75L13 15.25C13 15.6642 12.6642 16 12.25 16C11.8358 16 11.5 15.6642 11.5 15.25L11.5 13.75C11.5 13.3358 11.8358 13 12.25 13Z" fill="#ED2D2D"/>
<path d="M14.75 13C15.1642 13 15.5 13.3358 15.5 13.75L15.5 15.25C15.5 15.6642 15.1642 16 14.75 16C14.3358 16 14 15.6642 14 15.25L14 13.75C14 13.3358 14.3358 13 14.75 13Z" fill="#ED2D2D"/>
<circle cx="7.5" cy="6.5" r="5.9" fill="white" stroke="#ED2D2D" stroke-width="1.2"/>
<path d="M8.17 3.4V5.8L8 7.87H6.9L6.73 5.8V3.4H8.17ZM7.45 8.55C7.71 8.55 7.91667 8.62 8.07 8.76C8.22333 8.9 8.3 9.08667 8.3 9.32C8.3 9.56 8.22333 9.75 8.07 9.89C7.91667 10.0233 7.71 10.09 7.45 10.09C7.19 10.09 6.98333 10.0233 6.83 9.89C6.67667 9.75 6.6 9.56 6.6 9.32C6.6 9.08667 6.67667 8.9 6.83 8.76C6.98333 8.62 7.19 8.55 7.45 8.55Z" fill="#EF4747"/>
</svg>
