<svg width="80" height="80" viewBox="0 0 80 80" fill="none" xmlns="http://www.w3.org/2000/svg">
<path fill-rule="evenodd" clip-rule="evenodd" d="M19.7059 63H60.2941C61.7891 63 63 61.9707 63 60.7V19.3C63 18.0292 61.7891 17 60.2941 17H19.7059C18.2109 17 17 18.0292 17 19.3V60.7C17 61.9707 18.2109 63 19.7059 63ZM46.4027 39.1481C46.1117 36.2179 43.782 33.8883 40.8519 33.5973V25.5185C48.2254 25.8358 54.1642 31.7749 54.4815 39.1481H46.4027ZM34.8341 43.7887C34.0457 42.7319 33.5724 41.4187 33.5724 39.99C33.5724 36.7239 36.0175 34.0391 39.1481 33.7229V25.5185C31.5774 25.8497 25.5185 32.2129 25.5185 39.99C25.5185 43.5658 26.8019 46.8407 28.9215 49.3704L34.8341 43.7887ZM39.9744 46.4276C43.2485 46.4276 45.94 43.9825 46.2569 40.8519H54.4815C54.1495 48.4222 47.7709 54.4815 39.9744 54.4815C36.004 54.4815 32.402 52.9089 29.7778 50.3669L35.8048 44.8764C36.9176 45.8389 38.3743 46.4276 39.9744 46.4276Z" fill="currentColor"/>
</svg>
