<svg width="13" height="15" viewBox="0 0 13 15" fill="none" xmlns="http://www.w3.org/2000/svg">
<mask id="path-1-inside-1" fill="white">
<rect width="12.5" height="15" rx="1"/>
</mask>
<rect width="12.5" height="15" rx="1" stroke="currentColor" stroke-width="3" mask="url(#path-1-inside-1)"/>
<rect x="3" y="3" width="6.5" height="1.5" rx="0.75" fill="currentColor"/>
<rect x="3" y="6" width="6.5" height="1.5" rx="0.75" fill="currentColor"/>
<path d="M3.75 9C4.16421 9 4.5 9.33579 4.5 9.75L4.5 11.25C4.5 11.6642 4.16421 12 3.75 12C3.33579 12 3 11.6642 3 11.25L3 9.75C3 9.33579 3.33579 9 3.75 9Z" fill="currentColor"/>
<path d="M6.25 9C6.66421 9 7 9.33579 7 9.75L7 11.25C7 11.6642 6.66421 12 6.25 12C5.83579 12 5.5 11.6642 5.5 11.25L5.5 9.75C5.5 9.33579 5.83579 9 6.25 9Z" fill="currentColor"/>
<path d="M8.75 9C9.16421 9 9.5 9.33579 9.5 9.75L9.5 11.25C9.5 11.6642 9.16421 12 8.75 12C8.33579 12 8 11.6642 8 11.25L8 9.75C8 9.33579 8.33579 9 8.75 9Z" fill="currentColor"/>
</svg>
