<svg width="26" height="24" viewBox="0 0 26 24" fill="none" xmlns="http://www.w3.org/2000/svg">
<path fill-rule="evenodd" clip-rule="evenodd" d="M5.92834 7.36285C7.25704 4.86081 9.92587 3.15 13 3.15C16.8725 3.15 20.093 5.85203 20.8155 9.44706L20.838 9.55939L20.9524 9.56716C23.6943 9.75333 25.85 11.9654 25.85 14.6875C25.85 17.5344 23.4933 19.85 20.5834 19.85H16.8301V18.025H20.5834C22.4618 18.025 23.9834 16.5368 23.9834 14.6875C23.9834 12.8382 22.4618 11.35 20.5834 11.35H19.1084V10.9688C19.1084 7.65318 16.3734 4.975 13 4.975C10.2429 4.975 7.92607 6.76277 7.15777 9.225H6.50002C4.02577 9.225 2.01669 11.1913 2.01669 13.625C2.01669 16.0587 4.02577 18.025 6.50002 18.025H8.21013V19.85H6.50002C2.99427 19.85 0.150024 17.0563 0.150024 13.625C0.150024 10.4217 2.62401 7.77404 5.81141 7.44169L5.89087 7.43341L5.92834 7.36285Z" fill="currentColor"/>
<path d="M16.6801 14L12.5201 10L8.36011 14" stroke="currentColor" stroke-width="1.5" stroke-miterlimit="10" stroke-linecap="square"/>
<path d="M12.52 21V10" stroke="currentColor" stroke-width="1.5" stroke-miterlimit="10"/>
</svg>
