<svg width="80" height="80" viewBox="0 0 80 80" fill="none" xmlns="http://www.w3.org/2000/svg">
<path d="M47.3208 18.0893C47.3208 18.0594 47.3214 18.0296 47.3226 18H32.9712C32.9724 18.0296 32.973 18.0594 32.973 18.0893V23.4698C32.973 24.7079 31.9693 25.7116 30.7311 25.7116C29.493 25.7116 28.4893 24.7079 28.4893 23.4698V18.0893C28.4893 18.0594 28.4899 18.0296 28.491 18H22.6902C21.2045 18 20 19.2045 20 20.6902V30.6437H60.174V20.6902C60.174 19.2045 58.9696 18 57.4838 18H51.8028C51.804 18.0296 51.8046 18.0594 51.8046 18.0893V23.4698C51.8046 24.7079 50.8008 25.7116 49.5627 25.7116C48.3246 25.7116 47.3208 24.7079 47.3208 23.4698V18.0893Z" fill="currentColor"/>
<path fill-rule="evenodd" clip-rule="evenodd" d="M60.174 32.4372L20 32.4378V59.3098C20 60.7955 21.2045 62 22.6902 62H57.4838C58.9696 62 60.174 60.7955 60.174 59.3098V32.4372ZM43.7339 49.0269H37.4567V55.3041H43.7339V49.0269ZM27.5925 55.3041V49.0269H33.8697V55.3041H27.5925ZM53.598 39.0437H47.3208V45.3208H53.598V39.0437ZM47.3208 49.0269H53.598V55.3041H47.3208V49.0269ZM43.7339 39.1628H37.4567V45.4399H43.7339V39.1628ZM27.6525 39.1628H33.9297V45.4399H27.6525V39.1628Z" fill="currentColor"/>
</svg>
