<svg width="113" height="79" viewBox="0 0 113 79" fill="none"
    xmlns="http://www.w3.org/2000/svg">
    <path d="M90.4156 29.5C90.4156 30.5127 90.3645 31.5135 90.2649 32.5C101.5 25.5 112.5 35 112 45.5C111.5 56 100 59 94 59C88 59 28.5119 59 23 59C12.6052 59 1.4941e-10 51 0 36C0 21 12.5 13 22.0001 13C31.5001 13 34.5 16.3526 34.5 16.3526C39.3341 6.6588 49.3472 0 60.9156 0C77.208 0 90.4156 13.2076 90.4156 29.5Z" fill="#FFD732"/>
    <path d="M90.4156 29.5C90.4156 30.5127 90.3645 31.5135 90.2649 32.5C101.5 25.5 112.5 35 112 45.5C111.5 56 100 59 94 59C88 59 28.5119 59 23 59C12.6052 59 1.4941e-10 51 0 36C0 21 12.5 13 22.0001 13C31.5001 13 34.5 16.3526 34.5 16.3526C39.3341 6.6588 49.3472 0 60.9156 0C77.208 0 90.4156 13.2076 90.4156 29.5Z" fill="white" fill-opacity="0.4"/>
    <path d="M74 59C74 59 28.5119 59 23 59C12.6052 59 0 51 0 36C0 21 12.5001 13 22.0001 13C31.5001 13 34.5 16.3526 34.5 16.3526C61 45.5 74 59 74 59Z" fill="white" fill-opacity="0.4"/>
    <path fill-rule="evenodd" clip-rule="evenodd" d="M75.3834 62.8496L87.9505 75.4167L85.4167 77.9505L72.8496 65.3834L75.3834 62.8496Z" fill="#494949"/>
    <path fill-rule="evenodd" clip-rule="evenodd" d="M63.9167 39.5833C56.0006 39.5833 49.5833 46.0006 49.5833 53.9167C49.5833 61.8327 56.0006 68.25 63.9167 68.25C71.8327 68.25 78.25 61.8327 78.25 53.9167C78.25 46.0006 71.8327 39.5833 63.9167 39.5833ZM46 53.9167C46 44.0216 54.0216 36 63.9167 36C73.8118 36 81.8333 44.0216 81.8333 53.9167C81.8333 63.8118 73.8118 71.8333 63.9167 71.8333C54.0216 71.8333 46 63.8118 46 53.9167Z" fill="#494949"/>
</svg>
