<svg width="60" height="55" viewBox="0 0 60 55" fill="none" xmlns="http://www.w3.org/2000/svg">
<path d="M22.7457 42.3617C22.3051 42.6956 22.2152 43.3273 22.5906 43.733C23.4645 44.6772 24.5114 45.4496 25.6778 46.0064C27.146 46.7074 28.7608 47.0464 30.387 46.9952C32.0132 46.9439 33.6034 46.5038 35.0246 45.7118C36.1536 45.0826 37.1498 44.2458 37.9624 43.2485C38.3116 42.82 38.1821 42.1952 37.7213 41.8897C37.2606 41.5843 36.6439 41.715 36.2845 42.135C35.6556 42.87 34.8997 43.4898 34.0501 43.9632C32.9082 44.5996 31.6305 44.9532 30.3239 44.9944C29.0173 45.0355 27.7199 44.7631 26.5402 44.1999C25.6625 43.7809 24.869 43.21 24.1951 42.5161C23.81 42.1195 23.1863 42.0279 22.7457 42.3617Z" fill="#C4C4C4"/>
<path d="M22.7462 11.6867C22.3056 11.3528 22.2157 10.7211 22.5911 10.3154C23.4649 9.37123 24.5119 8.59885 25.6783 8.04199C27.1465 7.34103 28.7613 7.00199 30.3875 7.05324C32.0137 7.1045 33.6039 7.54456 35.0251 8.33659C36.1541 8.96579 37.1503 9.80257 37.9629 10.7999C38.3121 11.2284 38.1826 11.8532 37.7218 12.1587C37.2611 12.4641 36.6444 12.3334 36.285 11.9134C35.6561 11.1784 34.9001 10.5586 34.0506 10.0852C32.9087 9.4488 31.631 9.09522 30.3244 9.05404C29.0178 9.01285 27.7204 9.28527 26.5407 9.84847C25.663 10.2675 24.8695 10.8384 24.1956 11.5323C23.8105 11.9289 23.1867 12.0205 22.7462 11.6867Z" fill="#C4C4C4"/>
<path d="M19.583 45.8726C19.1206 46.223 19.0271 46.8847 19.41 47.3205C20.7006 48.789 22.2777 49.9838 24.0485 50.8292C26.1359 51.8258 28.4316 52.3078 30.7436 52.2349C33.0555 52.1621 35.3163 51.5364 37.3368 50.4104C39.0509 49.4552 40.5496 48.1634 41.7451 46.6165C42.0999 46.1575 41.9648 45.503 41.4813 45.1824C40.9978 44.8619 40.3494 44.9973 39.989 45.4519C38.9828 46.7212 37.735 47.7835 36.3141 48.5754C34.5868 49.538 32.6539 50.0729 30.6774 50.1352C28.7008 50.1975 26.7381 49.7854 24.9536 48.9334C23.4857 48.2326 22.1735 47.251 21.0893 46.0475C20.701 45.6165 20.0454 45.5223 19.583 45.8726Z" fill="#C4C4C4"/>
<path d="M19.583 8.17594C19.1206 7.82558 19.0271 7.16386 19.41 6.7281C20.7006 5.25959 22.2777 4.06475 24.0485 3.21935C26.1359 2.22279 28.4316 1.74077 30.7436 1.81364C33.0555 1.88651 35.3163 2.51215 37.3368 3.63818C39.0509 4.59342 40.5496 5.8852 41.7451 7.43208C42.0999 7.89108 41.9648 8.5456 41.4813 8.86615C40.9978 9.1867 40.3494 9.05133 39.989 8.59673C38.9828 7.32738 37.735 6.26505 36.3141 5.47321C34.5868 4.51054 32.6539 3.97566 30.6774 3.91337C28.7008 3.85107 26.7381 4.26316 24.9536 5.11514C23.4857 5.81593 22.1735 6.79757 21.0893 8.00103C20.701 8.43204 20.0453 8.5263 19.583 8.17594Z" fill="#C4C4C4"/>
<path fill-rule="evenodd" clip-rule="evenodd" d="M24.5 20.6023V32C24.5 32.1329 24.5047 32.2644 24.5139 32.3944L24.5564 32.997L24.7276 33.5721C25.404 35.8451 27.5107 37.5 30 37.5C32.4893 37.5 34.596 35.8451 35.2724 33.5721L35.4436 32.997L35.4861 32.3944C35.4953 32.2644 35.5 32.1329 35.5 32V20.6023L35.4442 20.2124C35.0632 17.5484 32.7695 15.5 30 15.5C27.2305 15.5 24.9368 17.5484 24.5558 20.2124L24.5 20.6023ZM36.9291 20H41C42.6569 20 44 21.3431 44 23V31C44 32.6569 42.6569 34 41 34H36.7101C35.8496 36.8915 33.171 39 30 39C26.829 39 24.1504 36.8915 23.2899 34H19C18.8964 34 18.7941 33.9948 18.6933 33.9845C17.1805 33.8309 16 32.5533 16 31V23C16 21.3431 17.3431 20 19 20H23.0709C23.5561 16.6077 26.4735 14 30 14C33.5265 14 36.4439 16.6077 36.9291 20ZM41 32.5C41.8284 32.5 42.5 31.8284 42.5 31V23C42.5 22.1716 41.8284 21.5 41 21.5H37V32C37 32.1681 36.9941 32.3348 36.9824 32.5H41ZM23 32C23 32.1681 23.0059 32.3348 23.0176 32.5H19C18.1716 32.5 17.5 31.8284 17.5 31L17.5 23C17.5 22.1716 18.1716 21.5 19 21.5H23V32Z" fill="#6C6C6C"/>
<circle cx="30" cy="27" r="3.25" stroke="#6C6C6C" stroke-width="1.5"/>
</svg>
