<svg width="17" height="19" viewBox="0 0 17 19" fill="none"
    xmlns="http://www.w3.org/2000/svg">
    <path d="M6.54347 1.67439C6.5434 1.82857 6.5737 1.98125 6.63265 2.12371C6.6916 2.26618 6.77803 2.39564 6.88702 2.50469L13.8832 9.50008L6.88702 16.4955C6.6668 16.7157 6.54309 17.0143 6.54309 17.3258C6.54309 17.6372 6.6668 17.9359 6.88701 18.1561C7.10723 18.3763 7.4059 18.5 7.71732 18.5C8.02875 18.5 8.32742 18.3763 8.54763 18.1561L16.3733 10.3304C16.4824 10.2214 16.5689 10.0919 16.628 9.94947C16.687 9.807 16.7174 9.6543 16.7174 9.50008C16.7174 9.34586 16.687 9.19316 16.628 9.05069C16.5689 8.90822 16.4824 8.77879 16.3733 8.66977L8.54763 0.84408C8.38346 0.679806 8.17425 0.567923 7.94648 0.522585C7.7187 0.477247 7.4826 0.500494 7.26804 0.589384C7.05348 0.678274 6.87011 0.828812 6.74113 1.02195C6.61215 1.21509 6.54336 1.44214 6.54347 1.67439Z" fill="currentColor"/>
    <path d="M0.283032 1.67439C0.282962 1.82857 0.313266 1.98125 0.372213 2.12371C0.431159 2.26618 0.517594 2.39564 0.62658 2.50469L7.62275 9.50008L0.626578 16.4955C0.406367 16.7157 0.282654 17.0143 0.282654 17.3258C0.282654 17.6372 0.406367 17.9359 0.626578 18.1561C0.846789 18.3763 1.14546 18.5 1.45688 18.5C1.76831 18.5 2.06698 18.3763 2.28719 18.1561L10.1129 10.3304C10.222 10.2214 10.3085 10.0919 10.3675 9.94947C10.4266 9.807 10.457 9.6543 10.457 9.50008C10.457 9.34586 10.4266 9.19316 10.3675 9.05069C10.3085 8.90822 10.222 8.77879 10.1129 8.66977L2.28719 0.84408C2.12302 0.679806 1.91381 0.567923 1.68604 0.522585C1.45826 0.477247 1.22216 0.500494 1.0076 0.589384C0.79304 0.678274 0.60967 0.828812 0.480693 1.02195C0.351715 1.21509 0.282927 1.44214 0.283032 1.67439Z" fill="currentColor"/>
</svg>
