<svg width="24" height="24" viewBox="0 0 24 24" fill="none" xmlns="http://www.w3.org/2000/svg">
<path d="M9.75 10V10.75H10.5H12H12.75V10V8.5C12.75 8.36193 12.8619 8.25 13 8.25H14.625C14.7631 8.25 14.875 8.36193 14.875 8.5V11V11.75H15.625H17C17.1381 11.75 17.25 11.8619 17.25 12V17C17.25 17.1381 17.1381 17.25 17 17.25H4.5C4.36193 17.25 4.25 17.1381 4.25 17V9V4C4.25 3.86193 4.36193 3.75 4.5 3.75H9.5C9.63807 3.75 9.75 3.86193 9.75 4V10Z" stroke="currentColor" stroke-width="1.5"/>
<path d="M9.5 10L9.5 17L8 17L8 11C8 10.4477 8.44772 10 9 10L9.5 10Z" fill="currentColor"/>
<path d="M11 14.5C11 14.2239 11.2239 14 11.5 14H12.5C12.7761 14 13 14.2239 13 14.5V16.5C13 16.7761 12.7761 17 12.5 17H11.5C11.2239 17 11 16.7761 11 16.5V14.5Z" fill="currentColor"/>
</svg>
