<svg width="80" height="80" viewBox="0 0 80 80" fill="none" xmlns="http://www.w3.org/2000/svg">
<path fill-rule="evenodd" clip-rule="evenodd" d="M63.4039 25.6667V52.5H68C68 58.2449 64.4746 58.9436 59.9571 58.9436H21.1919C12 58.9436 12 52.5 12 52.5H17.4443V25.6667C17.4443 24.429 17.9285 23.242 18.7904 22.3668C19.6523 21.4917 20.8213 21 22.0403 21H58.808C60.0269 21 61.1959 21.4917 62.0578 22.3668C62.9197 23.242 63.4039 24.429 63.4039 25.6667ZM34.0606 52.5174H45.9394V53.6661C45.9394 53.8184 45.8351 53.9645 45.6495 54.0722C45.4638 54.18 45.212 54.2405 44.9495 54.2405H35.0505C34.788 54.2405 34.5362 54.18 34.3505 54.0722C34.1649 53.9645 34.0606 53.8184 34.0606 53.6661V52.5174ZM19.7424 25.6667H61.106V50.5555H19.7424V25.6667Z" fill="currentColor"/>
</svg>
