<svg width="30" height="30" viewBox="0 0 30 30" fill="none" xmlns="http://www.w3.org/2000/svg">
<path d="M5.00016 3.78108C6.82321 2.99474 8.76223 2.51078 10.741 2.34822L12.5685 2.19808C14.1733 2.06625 15.7861 2.06625 17.3908 2.19808L19.181 2.34515C21.1849 2.50978 23.1495 2.99457 25 3.78108C25 3.78108 24.9998 25.4701 24.9998 26.4364C24.9998 27.4026 23 30 15.0001 30C7.00016 30 5 27.4026 5 26.4364C5 25.4701 5.00016 3.78108 5.00016 3.78108Z" fill="white"/>
<path d="M5.00016 3.78108C6.82321 2.99474 8.76223 2.51078 10.741 2.34822L12.5685 2.19808C14.1733 2.06625 15.7861 2.06625 17.3908 2.19808L19.181 2.34515C21.1849 2.50978 23.1495 2.99457 25 3.78108C25 3.78108 24.9998 25.4701 24.9998 26.4364C24.9998 27.4026 23 30 15.0001 30C7.00016 30 5 27.4026 5 26.4364C5 25.4701 5.00016 3.78108 5.00016 3.78108Z" fill="url(#paint9_linear)"/>
<path d="M5.00024 2H25L24.9998 4H5L5.00024 2Z" fill="#E6E6E6"/>
<path d="M9.00009 9C10.0997 9.26845 11.2177 9.4557 12.3448 9.56022L12.5731 9.58139C14.1876 9.73111 15.8125 9.73069 17.4269 9.58013L17.6072 9.56331C18.7502 9.45672 19.884 9.26847 21 9L20.9999 22.5484C20.9999 22.5484 20.5 24 15 24C9.50009 24 9 22.5484 9 22.5484L9.00009 9Z" fill="white"/>
<path d="M9.50009 13C10.5078 13.2772 11.5365 13.471 12.576 13.5796L12.7681 13.5997C14.252 13.7547 15.748 13.7543 17.2318 13.5984L17.3803 13.5828C18.4341 13.4721 19.4773 13.2772 20.5 13C20.5 13 20.4999 21.4 20.4999 22.0008C20.4999 22.6016 18.9635 23.5 15 23.5C11.0366 23.5 9.5 22.6016 9.5 22.0008C9.5 21.4 9.50009 13 9.50009 13Z" fill="#FFD732"/>
<ellipse cx="15" cy="4" rx="10" ry="2" fill="#E6E6E6"/>
<ellipse cx="15" cy="2" rx="10" ry="2" fill="#AAAAAA"/>
<defs>
<linearGradient id="paint9_linear" x1="19.7619" y1="8" x2="19.809" y2="31.0004" gradientUnits="userSpaceOnUse">
<stop stop-color="#C4C4C4"/>
<stop offset="1" stop-color="#898989"/>
</linearGradient>
</defs>
</svg>
