<svg width="24" height="24" viewBox="0 0 24 24" fill="none" xmlns="http://www.w3.org/2000/svg">
<path d="M5.75 17.1743V6.34454C5.82252 6.30518 5.92581 6.25684 6.06881 6.20485C6.64232 5.99629 7.79552 5.75 10 5.75C12.2045 5.75 13.3577 5.99629 13.9312 6.20485C14.0742 6.25684 14.1775 6.30518 14.25 6.34454V17.1743L13.7319 17.3988C12.9102 17.7548 12.0419 17.9915 11.1532 18.1015C10.3873 18.1963 9.61266 18.1963 8.84676 18.1015C7.9581 17.9915 7.08976 17.7548 6.26814 17.3988L5.75 17.1743Z" stroke="currentColor" stroke-width="1.5"/>
<path d="M5.75 17.2525V11.1401C6.76911 11.524 7.83612 11.772 8.92344 11.8761L9.01826 11.8852C9.78142 11.9584 10.55 11.9543 11.3123 11.8731C12.3203 11.7658 13.3082 11.5247 14.25 11.1571V17.2525L13.7682 17.4469C12.9304 17.7849 12.0508 18.0086 11.1533 18.1121C10.387 18.2004 9.61303 18.2004 8.84669 18.1121C7.94917 18.0086 7.06965 17.7849 6.2318 17.4469L5.75 17.2525Z" stroke="currentColor" stroke-width="1.5"/>
<path d="M6 8C6 8 7 8.5 10 8.5C13 8.5 14 8 14 8" stroke="currentColor" stroke-width="1.5"/>
<rect x="18" y="7" width="1.5" height="11" fill="currentColor"/>
<rect x="17" y="6" width="3.5" height="1.5" fill="currentColor"/>
<rect x="17" y="17" width="3.5" height="1.5" fill="currentColor"/>
</svg>
