<svg width="22" height="22" viewBox="0 0 22 22" fill="none" xmlns="http://www.w3.org/2000/svg">
<path d="M20.1425 7.70404C20.0739 7.54254 19.9154 7.43765 19.7398 7.43765H14.4035L11.8964 2.07529C11.8245 1.92126 11.67 1.823 11.5002 1.823C11.3303 1.823 11.1759 1.92126 11.1039 2.07529L8.59682 7.43765H3.26052C3.08492 7.43765 2.92641 7.54254 2.85784 7.70404C2.78927 7.86554 2.82366 8.05246 2.94564 8.17893L6.89724 12.2771L5.3081 18.6336C5.26559 18.8037 5.32861 18.9827 5.46831 19.0884C5.60802 19.1942 5.79751 19.2064 5.94961 19.1196L11.5002 15.9478L17.0507 19.1196C17.1182 19.1583 17.193 19.1773 17.2678 19.1773C17.3611 19.1773 17.4543 19.1474 17.532 19.0884C17.6717 18.9827 17.7348 18.8037 17.6922 18.6336L16.1031 12.2771L20.0547 8.17892C20.1767 8.05246 20.2111 7.86554 20.1425 7.70404Z" fill="#FFD732"/>
<path d="M13.9506 7.64942L14.0853 7.93765H14.4035H19.5928L15.7432 11.93L15.5508 12.1295L15.618 12.3983L17.1717 18.6128L11.7483 15.5136L11.5002 15.3719L11.2521 15.5136L5.82868 18.6129L7.38231 12.3983L7.44952 12.1295L7.25717 11.93L3.40757 7.93765H8.59682H8.91501L9.04976 7.64942L11.5002 2.40826L13.9506 7.64942ZM19.6948 7.83186L19.6947 7.8319L19.6948 7.83186ZM17.2072 18.7549C17.2072 18.7548 17.2071 18.7548 17.2071 18.7547L17.2072 18.7549ZM11.5568 2.28705C11.5568 2.28707 11.5568 2.28708 11.5568 2.28709L11.5568 2.28705ZM11.4435 2.28715C11.4435 2.2871 11.4435 2.28705 11.4435 2.287L11.4435 2.28705L11.4435 2.28715Z" stroke="black" stroke-opacity="0.03"/>
</svg>
