<svg width="80" height="80" viewBox="0 0 80 80" fill="none" xmlns="http://www.w3.org/2000/svg">
<path fill-rule="evenodd" clip-rule="evenodd" d="M18.087 56.7778H61.913C63.0656 56.7778 64 56.1203 64 55.3092V25.4686C64 24.6575 63.0656 24 61.913 24H18.087C16.9344 24 16 24.6575 16 25.4686V55.3092C16 56.1203 16.9344 56.7778 18.087 56.7778ZM37.1403 47.2847C37.2933 47.3667 37.4614 47.4073 37.6295 47.4073C37.831 47.4073 38.0315 47.3485 38.2047 47.2331L47.538 41.0108C47.8267 40.8184 47.9999 40.4943 47.9999 40.148C47.9999 39.8016 47.8267 39.4776 47.538 39.2851L38.2047 33.0629C37.8867 32.8513 37.4766 32.831 37.1403 33.0113C36.8031 33.1915 36.5924 33.543 36.5924 33.9258V46.3702C36.5924 46.753 36.8031 47.1045 37.1403 47.2847Z" fill="currentColor"/>
</svg>
