<svg width="60" height="33" viewBox="0 5 60 33" fill="none" xmlns="http://www.w3.org/2000/svg">
<path d="M16 35.0421C16 34.6279 16.3358 34.2921 16.75 34.2921H46.25C46.6642 34.2921 47 34.6279 47 35.0421C47 35.4563 46.6642 35.7921 46.25 35.7921H16.75C16.3358 35.7921 16 35.4563 16 35.0421Z" fill="currentColor"/>
<path d="M16.4632 6.45896C16.6827 6.16396 17.099 6.10116 17.3957 6.31829L42.7155 24.8451L43.8733 23.289L46.5283 28.5165L40.7583 27.4755L41.9161 25.9195L16.605 7.399C16.3048 7.1794 16.2412 6.75731 16.4632 6.45896Z" fill="currentColor"/>
<path d="M16 13.2921L21 16.935V31.2921H16V13.2921Z" fill="currentColor"/>
<path d="M24 18.2921L29 21.8921V31.2921H24V18.2921Z" fill="currentColor"/>
<path d="M32 23.2921L37 26.7921V31.2921H32V23.2921Z" fill="currentColor"/>
</svg>
