<svg width="27" height="26" viewBox="0 0 27 26" fill="none"
    xmlns="http://www.w3.org/2000/svg">
    <path d="M10.0167 16.5208C6.97466 16.5208 0.916656 18.1504 0.916656 21.3958V23.8333H19.1167V21.3958C19.1167 18.1504 13.0587 16.5208 10.0167 16.5208ZM10.0167 14.0833C12.5257 14.0833 14.5667 11.8965 14.5667 9.20825C14.5667 6.52004 12.5257 4.33325 10.0167 4.33325C7.50766 4.33325 5.46666 6.52004 5.46666 9.20825C5.46666 11.8965 7.50766 14.0833 10.0167 14.0833ZM19.1687 16.6043C20.6767 17.7743 21.7167 19.3343 21.7167 21.3958V23.8333H26.9167V21.3958C26.9167 18.5822 22.3667 16.9804 19.1687 16.6043ZM17.8167 14.0833C20.3257 14.0833 22.3667 11.8965 22.3667 9.20825C22.3667 6.52004 20.3257 4.33325 17.8167 4.33325C17.1147 4.33325 16.4647 4.51432 15.8667 4.82075C16.6857 6.06039 17.1667 7.57861 17.1667 9.20825C17.1667 10.8379 16.6857 12.3561 15.8667 13.5958C16.4647 13.9022 17.1147 14.0833 17.8167 14.0833Z" fill="currentColor"/>
</svg>
