<svg width="19" height="19" viewBox="0 0 19 19" fill="none" xmlns="http://www.w3.org/2000/svg">
<path fill-rule="evenodd" clip-rule="evenodd" d="M9.5 19C14.7467 19 19 14.7467 19 9.5C19 4.25329 14.7467 0 9.5 0C4.25329 0 0 4.25329 0 9.5C0 14.7467 4.25329 19 9.5 19ZM8.3125 4.75V10.6875H10.6875V4.75H8.3125ZM10.6875 13.0625C10.6875 13.7183 10.1558 14.25 9.5 14.25C8.84416 14.25 8.3125 13.7183 8.3125 13.0625C8.3125 12.4067 8.84416 11.875 9.5 11.875C10.1558 11.875 10.6875 12.4067 10.6875 13.0625Z" fill="#4CA02F"/>
</svg>
