<svg width="22" height="22" viewBox="0 0 22 22" fill="none"
    xmlns="http://www.w3.org/2000/svg">
    <path d="M11 4.75C6.83337 4.75 3.27504 7.34167 1.83337 11C3.27504 14.6583 6.83337 17.25 11 17.25C15.1667 17.25 18.725 14.6583 20.1667 11C18.725 7.34167 15.1709 4.75 11 4.75ZM11 15.1667C8.70004 15.1667 6.83337 13.3 6.83337 11C6.83337 8.7 8.70004 6.83333 11 6.83333C13.3 6.83333 15.1667 8.7 15.1667 11C15.1667 13.3 13.3 15.1667 11 15.1667ZM11 8.5C9.62087 8.5 8.50004 9.62083 8.50004 11C8.50004 12.3792 9.62087 13.5 11 13.5C12.3792 13.5 13.5 12.3792 13.5 11C13.5 9.62083 12.3792 8.5 11 8.5Z" fill="currentColor"/>
</svg>
