<svg width="13" height="12" viewBox="0 0 13 12" fill="none" xmlns="http://www.w3.org/2000/svg">
<path d="M1.28293 6.42287C1.38571 6.42291 1.4875 6.40527 1.58248 6.37096C1.67745 6.33664 1.76376 6.28632 1.83646 6.22287L6.50005 2.14999L11.1636 6.22288C11.3105 6.35107 11.5096 6.4231 11.7172 6.4231C11.9248 6.4231 12.1239 6.35107 12.2707 6.22288C12.4175 6.09468 12.5 5.92081 12.5 5.73951C12.5 5.55821 12.4175 5.38433 12.2707 5.25613L7.05359 0.700328C6.98092 0.636824 6.89463 0.586448 6.79965 0.552078C6.70467 0.517708 6.60287 0.500019 6.50005 0.500019C6.39724 0.500019 6.29544 0.517708 6.20046 0.552078C6.10548 0.586448 6.01919 0.636824 5.94652 0.700327L0.729389 5.25613C0.619872 5.3517 0.545284 5.4735 0.515059 5.6061C0.484833 5.7387 0.500331 5.87615 0.559591 6.00106C0.618852 6.12597 0.71921 6.23272 0.847968 6.3078C0.976726 6.38289 1.1281 6.42294 1.28293 6.42287Z" fill="currentColor"/>
<path d="M1.28293 11.4998C1.38571 11.4998 1.4875 11.4822 1.58248 11.4479C1.67745 11.4135 1.76376 11.3632 1.83646 11.2998L6.50005 7.22689L11.1636 11.2998C11.3105 11.428 11.5096 11.5 11.7172 11.5C11.9248 11.5 12.1239 11.428 12.2707 11.2998C12.4175 11.1716 12.5 10.9977 12.5 10.8164C12.5 10.6351 12.4175 10.4612 12.2707 10.333L7.05359 5.77723C6.98092 5.71373 6.89463 5.66335 6.79965 5.62898C6.70467 5.59461 6.60287 5.57692 6.50005 5.57692C6.39724 5.57692 6.29544 5.59461 6.20046 5.62898C6.10548 5.66335 6.01919 5.71373 5.94652 5.77723L0.729389 10.333C0.619872 10.4286 0.545284 10.5504 0.515059 10.683C0.484833 10.8156 0.500331 10.9531 0.559591 11.078C0.618852 11.2029 0.71921 11.3096 0.847968 11.3847C0.976726 11.4598 1.1281 11.4998 1.28293 11.4998Z" fill="currentColor"/>
</svg>
