<svg width="22" height="13" viewBox="0 0 22 13" fill="none" xmlns="http://www.w3.org/2000/svg">
<path d="M9.82487 0.24375C9.48897 -0.08125 8.98513 -0.08125 8.64924 0.24375L0.25192 8.36875C0.0839732 8.53125 0 8.69375 0 8.9375V12.1875C0 12.675 0.335893 13 0.839732 13H4.19866C4.45058 13 4.61853 12.9187 4.78647 12.7562L13.1838 4.63125C13.5197 4.30625 13.5197 3.81875 13.1838 3.49375L9.82487 0.24375ZM3.86277 11.375H1.67946V9.2625L6.71786 4.3875L8.90116 6.5L3.86277 11.375ZM10.0768 5.3625L7.89348 3.25L9.23705 1.95L11.4204 4.0625L10.0768 5.3625Z" fill="currentColor"/>
<rect x="12.32" y="7.79999" width="5.28" height="1.73333" fill="currentColor"/>
<rect x="12.32" y="11.2667" width="8.8" height="1.73333" fill="currentColor"/>
</svg>
