<svg width="377" height="216" viewBox="0 0 377 216" fill="none"
    xmlns="http://www.w3.org/2000/svg">
    <line x1="60.8232" y1="202.24" x2="61.9327" y2="152.158" stroke="#D7D7D7" stroke-width="1.5"/>
    <line x1="374.236" y1="202.24" x2="375.346" y2="152.158" stroke="#D7D7D7" stroke-width="1.5"/>
    <line x1="6.65649" y1="1.61572" x2="61.0184" y2="1.61572" stroke="#D7D7D7" stroke-width="1.5"/>
    <line x1="5.54712" y1="155.961" x2="59.909" y2="155.961" stroke="#D7D7D7" stroke-width="1.5"/>
    <path d="M60.6592 156.09L60.6592 1.74994L374.236 1.75115L374.236 156.091L60.6592 156.09Z" fill="#FFFBEA" stroke="#9E9E9E" stroke-width="1.5"/>
    <mask maskUnits="userSpaceOnUse" x="0" y="0" width="0" height="0" fill="red">
        <rect fill="red" width="0" height="0"/>
    </mask>
    <path d="M60.5806 184.439L65.5806 187.326V181.552L60.5806 184.439ZM372.33 184.439L367.33 181.552V187.326L372.33 184.439ZM65.0806 184.939L367.83 184.939V183.939L65.0806 183.939V184.939Z" fill="#9E9E9E" mask="url(#)"/>
    <mask maskUnits="userSpaceOnUse" x="0" y="0" width="0" height="0" fill="black">
        <rect fill="white" width="0" height="0"/>
    </mask>
    <path d="M25.437 2.82129L22.5503 7.82129L28.3238 7.82129L25.437 2.82129ZM25.437 154.89L28.3238 149.89L22.5503 149.89L25.437 154.89ZM24.937 7.32129L24.937 150.39L25.937 150.39L25.937 7.32129L24.937 7.32129Z" fill="#9E9E9E" mask="url(#)"/>
    <path class="tank-icon-text-color" d="M221.786 202.662V204.012H213.542V192.132H214.982V202.662H221.786Z" fill="black"/>
    <path class="tank-icon-text-color" d="M11.4954 72.9413C13.3674 72.9413 14.8314 73.4573 15.8874 74.4893C16.9434 75.5213 17.4714 76.9853 17.4714 78.8813C17.4714 80.7773 16.9434 82.2413 15.8874 83.2733C14.8314 84.3053 13.3674 84.8213 11.4954 84.8213H7.66137V72.9413H11.4954ZM11.6394 83.4713C12.9954 83.4713 14.0514 83.0693 14.8074 82.2653C15.5754 81.4493 15.9594 80.3213 15.9594 78.8813C15.9594 77.4413 15.5754 76.3193 14.8074 75.5153C14.0514 74.6993 12.9954 74.2913 11.6394 74.2913H9.10137V83.4713H11.6394Z" fill="black"/>
</svg>
