<svg width="483" height="238" viewBox="0 0 483 238" fill="none"
    xmlns="http://www.w3.org/2000/svg">
    <line x1="118.25" y1="221" x2="118.25" y2="171" stroke="#D7D7D7" stroke-width="1.5"/>
    <line x1="401.25" y1="221" x2="401.25" y2="171" stroke="#D7D7D7" stroke-width="1.5"/>
    <line x1="7" y1="0.75" x2="118" y2="0.75" stroke="#D7D7D7" stroke-width="1.5"/>
    <line x1="6" y1="170.25" x2="117" y2="170.25" stroke="#D7D7D7" stroke-width="1.5"/>
    <path d="M118.082 170.392C79.4028 170.392 38.2913 136.065 38.2913 85.7455C38.2913 35.4217 79.4069 0.750243 118.082 0.750241L259.758 0.750908L401.641 0.751574C440.593 0.751573 481.435 35.4212 481.435 85.5709C481.435 135.721 440.593 170.394 401.641 170.394C381.962 170.394 320.842 170.393 259.758 170.393L259.433 170.393C198.456 170.392 137.588 170.392 118.082 170.392Z" fill="#FFFBEA" stroke="#9E9E9E" stroke-width="1.5"/>
    <path d="M118.605 201.5L123.605 204.387V198.613L118.605 201.5ZM400.605 201.5L395.605 198.613V204.387L400.605 201.5ZM123.105 202L396.105 202V201L123.105 201V202Z" fill="#9E9E9E"/>

    <path d="M22.9773 2L20.0905 7L25.864 7L22.9773 2ZM22.9773 169L25.864 164L20.0905 164L22.9773 169ZM22.4773 6.5L22.4773 164.5L23.4773 164.5L23.4773 6.5L22.4773 6.5Z" fill="#9E9E9E" mask="url(#)"/>
    <line x1="118.25" y1="160.066" x2="118.25" y2="148.344" stroke="#9E9E9E" stroke-width="1.5"/>
    <line x1="118.25" y1="136.622" x2="118.25" y2="124.899" stroke="#9E9E9E" stroke-width="1.5"/>
    <line x1="118.25" y1="113.178" x2="118.25" y2="101.455" stroke="#9E9E9E" stroke-width="1.5"/>
    <line x1="118.25" y1="89.729" x2="118.25" y2="78.0063" stroke="#9E9E9E" stroke-width="1.5"/>
    <line x1="118.25" y1="66.2861" x2="118.25" y2="54.5634" stroke="#9E9E9E" stroke-width="1.5"/>
    <line x1="118.25" y1="42.8403" x2="118.25" y2="31.1176" stroke="#9E9E9E" stroke-width="1.5"/>
    <line x1="118.25" y1="19.3979" x2="118.25" y2="7.67522" stroke="#9E9E9E" stroke-width="1.5"/>
    <line x1="401.25" y1="160.066" x2="401.25" y2="148.344" stroke="#9E9E9E" stroke-width="1.5"/>
    <line x1="401.25" y1="136.622" x2="401.25" y2="124.899" stroke="#9E9E9E" stroke-width="1.5"/>
    <line x1="401.25" y1="113.178" x2="401.25" y2="101.455" stroke="#9E9E9E" stroke-width="1.5"/>
    <line x1="401.25" y1="89.729" x2="401.25" y2="78.0063" stroke="#9E9E9E" stroke-width="1.5"/>
    <line x1="401.25" y1="66.2861" x2="401.25" y2="54.5634" stroke="#9E9E9E" stroke-width="1.5"/>
    <line x1="401.25" y1="42.8403" x2="401.25" y2="31.1176" stroke="#9E9E9E" stroke-width="1.5"/>
    <line x1="401.25" y1="19.3979" x2="401.25" y2="7.67522" stroke="#9E9E9E" stroke-width="1.5"/>
    <path class="tank-icon-text-color" d="M263.851 219.978V221.178H256.523V210.618H257.803V219.978H263.851Z" fill="black"/>
    <path class="tank-icon-text-color" d="M10.3704 80.44C12.0344 80.44 13.3357 80.8987 14.2744 81.816C15.213 82.7333 15.6824 84.0347 15.6824 85.72C15.6824 87.4053 15.213 88.7067 14.2744 89.624C13.3357 90.5413 12.0344 91 10.3704 91H6.96238V80.44H10.3704ZM10.4984 89.8C11.7037 89.8 12.6424 89.4427 13.3144 88.728C13.997 88.0027 14.3384 87 14.3384 85.72C14.3384 84.44 13.997 83.4427 13.3144 82.728C12.6424 82.0027 11.7037 81.64 10.4984 81.64H8.24238V89.8H10.4984Z" fill="black"/>
</svg>
