<svg width="413" height="238" viewBox="0 0 413 238" fill="none"
    xmlns="http://www.w3.org/2000/svg">
    <line x1="88.25" y1="221" x2="88.25" y2="171" stroke="#D7D7D7" stroke-width="1.5"/>
    <line x1="371.25" y1="221" x2="371.25" y2="171" stroke="#D7D7D7" stroke-width="1.5"/>
    <path d="M411.5 221L411.5 83" stroke="#D7D7D7" stroke-width="1.5"/>
    <line x1="6" y1="0.75" x2="88" y2="0.75" stroke="#D7D7D7" stroke-width="1.5"/>
    <line x1="5" y1="170.25" x2="87" y2="170.25" stroke="#D7D7D7" stroke-width="1.5"/>
    <path d="M88.0816 170.392C87.1527 170.392 85.8181 170.018 84.1526 169.17C82.5027 168.33 80.5872 167.056 78.5129 165.334C74.3655 161.889 69.6229 156.684 65.1425 149.672C56.1856 135.656 48.2913 114.447 48.2913 85.7455C48.2913 57.0466 56.3308 35.7504 65.3623 21.6446C69.88 14.5888 74.6424 9.33746 78.765 5.8589C80.827 4.11903 82.719 2.83111 84.3305 1.98208C85.9616 1.12279 87.2358 0.750243 88.0816 0.750243L230.08 0.750909L371.641 0.751575C372.4 0.751575 373.612 1.12828 375.211 2.01488C376.785 2.88764 378.654 4.20906 380.705 5.98624C384.804 9.53916 389.588 14.8778 394.144 21.9848C403.252 36.1936 411.435 57.4464 411.435 85.5709C411.435 113.686 402.817 134.938 393.488 149.152C388.821 156.261 383.98 161.605 379.956 165.163C377.943 166.943 376.145 168.268 374.684 169.143C373.953 169.58 373.317 169.899 372.79 170.106C372.251 170.317 371.873 170.394 371.641 170.394L230.961 170.393L88.0816 170.392Z" fill="#FFFBEA" stroke="#9E9E9E" stroke-width="1.5"/>
    <path d="M88.6052 201.5L93.6052 204.387V198.613L88.6052 201.5ZM370.605 201.5L365.605 198.613V204.387L370.605 201.5ZM93.1052 202L366.105 202V201L93.1052 201V202Z" fill="#9E9E9E"/>

    <path d="M22.9773 2L20.0905 7L25.864 7L22.9773 2ZM22.9773 169L25.864 164L20.0905 164L22.9773 169ZM22.4773 6.5L22.4773 164.5L23.4773 164.5L23.4773 6.5L22.4773 6.5Z" fill="#9E9E9E" mask="url(#)"/>
    <path d="M372 201.5L377 204.387V198.613L372 201.5ZM410.5 201.5L405.5 198.613V204.387L410.5 201.5ZM376.5 202H406V201H376.5V202Z" fill="#9E9E9E"/>
    <line x1="88.25" y1="160.066" x2="88.25" y2="148.344" stroke="#9E9E9E" stroke-width="1.5"/>
    <line x1="88.25" y1="136.622" x2="88.25" y2="124.899" stroke="#9E9E9E" stroke-width="1.5"/>
    <line x1="88.25" y1="113.178" x2="88.25" y2="101.455" stroke="#9E9E9E" stroke-width="1.5"/>
    <line x1="88.25" y1="89.729" x2="88.25" y2="78.0063" stroke="#9E9E9E" stroke-width="1.5"/>
    <line x1="88.25" y1="66.2861" x2="88.25" y2="54.5634" stroke="#9E9E9E" stroke-width="1.5"/>
    <line x1="88.25" y1="42.8403" x2="88.25" y2="31.1176" stroke="#9E9E9E" stroke-width="1.5"/>
    <line x1="88.25" y1="19.3979" x2="88.25" y2="7.67522" stroke="#9E9E9E" stroke-width="1.5"/>
    <line x1="371.25" y1="160.066" x2="371.25" y2="148.344" stroke="#9E9E9E" stroke-width="1.5"/>
    <line x1="371.25" y1="136.622" x2="371.25" y2="124.899" stroke="#9E9E9E" stroke-width="1.5"/>
    <line x1="371.25" y1="113.178" x2="371.25" y2="101.455" stroke="#9E9E9E" stroke-width="1.5"/>
    <line x1="371.25" y1="89.729" x2="371.25" y2="78.0063" stroke="#9E9E9E" stroke-width="1.5"/>
    <line x1="371.25" y1="66.2861" x2="371.25" y2="54.5634" stroke="#9E9E9E" stroke-width="1.5"/>
    <line x1="371.25" y1="42.8403" x2="371.25" y2="31.1176" stroke="#9E9E9E" stroke-width="1.5"/>
    <line x1="371.25" y1="19.3979" x2="371.25" y2="7.67522" stroke="#9E9E9E" stroke-width="1.5"/>
    <path class="tank-icon-text-color" d="M233.851 219.978V221.178H226.523V210.618H227.803V219.978H233.851Z" fill="black"/>
    <path class="tank-icon-text-color" d="M10.3704 80.44C12.0344 80.44 13.3357 80.8987 14.2744 81.816C15.213 82.7333 15.6824 84.0347 15.6824 85.72C15.6824 87.4053 15.213 88.7067 14.2744 89.624C13.3357 90.5413 12.0344 91 10.3704 91H6.96238V80.44H10.3704ZM10.4984 89.8C11.7037 89.8 12.6424 89.4427 13.3144 88.728C13.997 88.0027 14.3384 87 14.3384 85.72C14.3384 84.44 13.997 83.4427 13.3144 82.728C12.6424 82.0027 11.7037 81.64 10.4984 81.64H8.24238V89.8H10.4984Z" fill="black"/>
    <path class="tank-icon-text-color" d="M386.129 210.44C387.793 210.44 389.094 210.899 390.033 211.816C390.972 212.733 391.441 214.035 391.441 215.72C391.441 217.405 390.972 218.707 390.033 219.624C389.094 220.541 387.793 221 386.129 221H382.721V210.44H386.129ZM386.257 219.8C387.462 219.8 388.401 219.443 389.073 218.728C389.756 218.003 390.097 217 390.097 215.72C390.097 214.44 389.756 213.443 389.073 212.728C388.401 212.003 387.462 211.64 386.257 211.64H384.001V219.8H386.257ZM401.5 219.8V221H394.172V210.44H395.452V219.8H401.5Z" fill="black"/>
</svg>
