<svg width="413" height="238" viewBox="0 0 413 238" fill="none"
    xmlns="http://www.w3.org/2000/svg">
    <line x1="88.25" y1="221" x2="88.25" y2="171" stroke="#D7D7D7" stroke-width="1.5"/>
    <line x1="371.25" y1="221" x2="371.25" y2="171" stroke="#D7D7D7" stroke-width="1.5"/>
    <line x1="6" y1="0.75" x2="88" y2="0.75" stroke="#D7D7D7" stroke-width="1.5"/>
    <line x1="5" y1="170.25" x2="87" y2="170.25" stroke="#D7D7D7" stroke-width="1.5"/>
    <path d="M88.0816 170.391C87.1527 170.391 85.8181 170.017 84.1526 169.17C82.5027 168.33 80.5872 167.056 78.5129 165.334C74.3655 161.889 69.6229 156.683 65.1425 149.672C56.1856 135.656 48.2913 114.447 48.2913 85.7453C48.2913 57.0464 56.3308 35.7502 65.3623 21.6444C69.88 14.5885 74.6424 9.33722 78.765 5.85866C80.827 4.11879 82.719 2.83087 84.3305 1.98184C85.9616 1.12254 87.2358 0.749999 88.0816 0.749999L230.08 0.750665L371.641 0.751331C372.4 0.751331 373.612 1.12804 375.211 2.01464C376.785 2.88739 378.654 4.20882 380.705 5.986C384.804 9.53891 389.588 14.8775 394.144 21.9846C403.252 36.1933 411.435 57.4462 411.435 85.5707C411.435 113.686 402.817 134.938 393.488 149.152C388.821 156.261 383.98 161.605 379.956 165.163C377.943 166.943 376.145 168.268 374.684 169.142C373.953 169.58 373.317 169.898 372.79 170.105C372.251 170.317 371.873 170.393 371.641 170.393L230.961 170.392L88.0816 170.391Z" fill="#FFFBEA" stroke="#9E9E9E" stroke-width="1.5"/>
    <path d="M88.6052 201.5L93.6052 204.387V198.613L88.6052 201.5ZM370.605 201.5L365.605 198.613V204.387L370.605 201.5ZM93.1052 202L366.105 202V201L93.1052 201V202Z" fill="#9E9E9E"/>

    <path d="M22.9774 2L20.0906 7L25.8641 7L22.9774 2ZM22.9773 169L25.8641 164L20.0906 164L22.9773 169ZM22.4774 6.5L22.4773 164.5L23.4773 164.5L23.4774 6.5L22.4774 6.5Z" fill="#9E9E9E" mask="url(#)"/>
    <line x1="88.25" y1="160.066" x2="88.25" y2="148.344" stroke="#9E9E9E" stroke-width="1.5"/>
    <line x1="88.25" y1="136.622" x2="88.25" y2="124.899" stroke="#9E9E9E" stroke-width="1.5"/>
    <line x1="88.25" y1="113.178" x2="88.25" y2="101.455" stroke="#9E9E9E" stroke-width="1.5"/>
    <line x1="88.25" y1="89.7288" x2="88.25" y2="78.006" stroke="#9E9E9E" stroke-width="1.5"/>
    <line x1="88.25" y1="66.2863" x2="88.25" y2="54.5635" stroke="#9E9E9E" stroke-width="1.5"/>
    <line x1="88.25" y1="42.8405" x2="88.25" y2="31.1177" stroke="#9E9E9E" stroke-width="1.5"/>
    <line x1="88.25" y1="19.3979" x2="88.25" y2="7.67522" stroke="#9E9E9E" stroke-width="1.5"/>
    <line x1="371.25" y1="160.066" x2="371.25" y2="148.344" stroke="#9E9E9E" stroke-width="1.5"/>
    <line x1="371.25" y1="136.622" x2="371.25" y2="124.899" stroke="#9E9E9E" stroke-width="1.5"/>
    <line x1="371.25" y1="113.178" x2="371.25" y2="101.455" stroke="#9E9E9E" stroke-width="1.5"/>
    <line x1="371.25" y1="89.7288" x2="371.25" y2="78.006" stroke="#9E9E9E" stroke-width="1.5"/>
    <line x1="371.25" y1="66.2863" x2="371.25" y2="54.5635" stroke="#9E9E9E" stroke-width="1.5"/>
    <line x1="371.25" y1="42.8405" x2="371.25" y2="31.1177" stroke="#9E9E9E" stroke-width="1.5"/>
    <line x1="371.25" y1="19.3979" x2="371.25" y2="7.67522" stroke="#9E9E9E" stroke-width="1.5"/>
    <path class="tank-icon-text-color" d="M233.851 219.978V221.178H226.523V210.618H227.803V219.978H233.851Z" fill="black"/>
    <path class="tank-icon-text-color" d="M10.3704 80.44C12.0344 80.44 13.3357 80.8987 14.2744 81.816C15.213 82.7333 15.6824 84.0347 15.6824 85.72C15.6824 87.4053 15.213 88.7067 14.2744 89.624C13.3357 90.5413 12.0344 91 10.3704 91H6.96238V80.44H10.3704ZM10.4984 89.8C11.7037 89.8 12.6424 89.4427 13.3144 88.728C13.997 88.0027 14.3384 87 14.3384 85.72C14.3384 84.44 13.997 83.4427 13.3144 82.728C12.6424 82.0027 11.7037 81.64 10.4984 81.64H8.24238V89.8H10.4984Z" fill="black"/>
</svg>
