<svg width="309" height="251" viewBox="0 0 309 251" fill="none"
    xmlns="http://www.w3.org/2000/svg">
    <line x1="0.823242" y1="231.241" x2="1.93267" y2="181.158" stroke="#D7D7D7" stroke-width="1.5"/>
    <line x1="161.25" y1="248.083" x2="162.359" y2="198" stroke="#D7D7D7" stroke-width="1.5"/>
    <line x1="271.75" y1="220.083" x2="272.859" y2="170" stroke="#D7D7D7" stroke-width="1.5"/>
    <line x1="272" y1="23.75" x2="309" y2="23.75" stroke="#D7D7D7" stroke-width="1.5"/>
    <line x1="272" y1="181.25" x2="309" y2="181.25" stroke="#D7D7D7" stroke-width="1.5"/>
    <path d="M161.25 203.197L0.749999 192.32L0.749988 12.6497L161.25 0.807368L161.25 203.197Z" fill="#FFFBEA" stroke="#9E9E9E" stroke-width="1.5"/>
    <path d="M161.25 203.089L271.75 181.436L271.75 23.5328L161.25 0.919055L161.25 203.089Z" fill="#F3EFDF" stroke="#9E9E9E" stroke-width="1.5"/>
    <path d="M1.58057 213.439L6.32647 216.727L6.80085 210.973L1.58057 213.439ZM160 226.5L155.254 223.212L154.78 228.966L160 226.5ZM6.02427 214.308L155.474 226.629L155.556 225.632L6.10643 213.311L6.02427 214.308Z" fill="#9E9E9E"/>
    <path d="M162.581 226.439L168.11 228.102L166.785 222.482L162.581 226.439ZM270.5 201L264.971 199.337L266.296 204.957L270.5 201ZM167.075 225.894L266.235 202.519L266.005 201.546L166.846 224.92L167.075 225.894Z" fill="#9E9E9E"/>
    <path d="M290.437 25.5L287.55 30.5L293.324 30.5L290.437 25.5ZM290.437 180.524L293.324 175.524L287.55 175.524L290.437 180.524ZM289.937 30L289.937 176.024L290.937 176.024L290.937 30L289.937 30Z" fill="#9E9E9E"/>
    <path class="tank-icon-text-color" d="M77.7916 239H76.0096L72.4996 227.12H74.0476L76.9096 237.866L79.7176 227.12H81.3556L84.1636 237.902L87.0436 227.12H88.5016L85.0096 239H83.2276L81.1216 231.296L80.5096 228.614H80.4916L79.8796 231.296L77.7916 239Z" fill="black"/>
    <path class="tank-icon-text-color" d="M215.292 223.12C217.164 223.12 218.628 223.636 219.684 224.668C220.74 225.7 221.268 227.164 221.268 229.06C221.268 230.956 220.74 232.42 219.684 233.452C218.628 234.484 217.164 235 215.292 235H211.458V223.12H215.292ZM215.436 233.65C216.792 233.65 217.848 233.248 218.604 232.444C219.372 231.628 219.756 230.5 219.756 229.06C219.756 227.62 219.372 226.498 218.604 225.694C217.848 224.878 216.792 224.47 215.436 224.47H212.898V233.65H215.436Z" fill="black"/>
    <path class="tank-icon-text-color" d="M306.659 102.12V114H305.219V108.654H298.775V114H297.335V102.12H298.775V107.304H305.219V102.12H306.659Z" fill="black"/>
</svg>
