<svg width="550" height="350" viewBox="0 0 550 350" fill="none"
    xmlns="http://www.w3.org/2000/svg">

    <path d="M146.5 70.75L287.471 70.75" stroke="#D7D7D7" stroke-width="1.5"/>
    <path d="M146.5 280.2L287.471 280.2" stroke="#D7D7D7" stroke-width="1.5"/>
    <path d="M166.437 71.8213L163.551 76.8213L169.324 76.8213L166.437 71.8213ZM166.438 279L169.324 274L163.551 274L166.438 279ZM165.937 76.3213L165.938 274.5L166.938 274.5L166.937 76.3213L165.937 76.3213Z" fill="#9E9E9E"/>
    <path class="tank-icon-text-color" d="M152.292 170.12C154.164 170.12 155.628 170.636 156.684 171.668C157.74 172.7 158.268 174.164 158.268 176.06C158.268 177.956 157.74 179.42 156.684 180.452C155.628 181.484 154.164 182 152.292 182H148.458V170.12H152.292ZM152.436 180.65C153.792 180.65 154.848 180.248 155.604 179.444C156.372 178.628 156.756 177.5 156.756 176.06C156.756 174.62 156.372 173.498 155.604 172.694C154.848 171.878 153.792 171.47 152.436 171.47H149.898V180.65H152.436Z" fill="black"/>
    <circle cx="289.5" cy="175.5" r="105" fill="#FFFBEA" stroke="#9E9E9E"/>
</svg>
