<svg width="550" height="350" viewBox="0 0 550 350" fill="none"
    xmlns="http://www.w3.org/2000/svg">

    <line x1="166.762" y1="69.5024" x2="209.576" y2="69.5024" stroke="#D7D7D7" stroke-width="1.5"/>
    <line x1="166.762" y1="232.323" x2="209.576" y2="232.323" stroke="#D7D7D7" stroke-width="1.5"/>
    <path d="M166.762 313.292L282.5 313.292" stroke="#D7D7D7" stroke-width="1.5"/>
    <line x1="355.466" y1="38.5088" x2="355.466" y2="92.2505" stroke="#D7D7D7" stroke-width="1.5"/>
    <line x1="210.325" y1="37.8535" x2="210.325" y2="91.5953" stroke="#D7D7D7" stroke-width="1.5"/>
    <path d="M355.25 69.3374L355.249 232.111L282.501 312.879L209.75 232.111L209.752 69.3374L355.25 69.3374Z" fill="#FFFBEA" stroke="#9E9E9E" stroke-width="1.5"/>
    <path d="M183 69.9937L180.113 74.9937L185.887 74.9937L183 69.9937ZM183 231.409L185.887 226.409L180.113 226.409L183 231.409ZM182.5 74.4937L182.5 226.909L183.5 226.909L183.5 74.4937L182.5 74.4937Z" fill="#9E9E9E"/>
    <path d="M183 233.297L180.113 238.297L185.887 238.297L183 233.297ZM183 312.112L185.887 307.112L180.113 307.112L183 312.112ZM182.5 237.797L182.5 307.612L183.5 307.612L183.5 237.797L182.5 237.797Z" fill="#9E9E9E"/>

    <path d="M354.287 49.8076L349.287 46.9209L349.287 52.6944L354.287 49.8076ZM211.288 49.8076L216.288 52.6944L216.288 46.9209L211.288 49.8076ZM349.787 49.3076L215.788 49.3076L215.788 50.3076L349.787 50.3076L349.787 49.3076Z" fill="#9E9E9E" mask="url(#)"/>
    <line x1="216.939" y1="232.323" x2="226.977" y2="232.323" stroke="#9E9E9E" stroke-width="1.5"/>
    <line x1="237.013" y1="232.323" x2="247.051" y2="232.323" stroke="#9E9E9E" stroke-width="1.5"/>
    <line x1="257.088" y1="232.323" x2="267.126" y2="232.323" stroke="#9E9E9E" stroke-width="1.5"/>
    <line x1="277.167" y1="232.323" x2="287.205" y2="232.323" stroke="#9E9E9E" stroke-width="1.5"/>
    <line x1="297.24" y1="232.323" x2="307.278" y2="232.323" stroke="#9E9E9E" stroke-width="1.5"/>
    <line x1="317.317" y1="232.323" x2="327.355" y2="232.323" stroke="#9E9E9E" stroke-width="1.5"/>
    <line x1="337.391" y1="232.323" x2="347.429" y2="232.323" stroke="#9E9E9E" stroke-width="1.5"/>
    <path class="tank-icon-text-color" d="M175.275 155.275L175.275 156.475L167.947 156.475L167.947 145.915L169.227 145.915L169.227 155.275L175.275 155.275Z" fill="black"/>
    <path class="tank-icon-text-color" d="M166.514 276.065C166.184 276.961 165.64 277.665 164.882 278.177C164.125 278.678 163.25 278.929 162.258 278.929C161.266 278.929 160.402 278.71 159.666 278.273C158.93 277.825 158.36 277.196 157.954 276.385C157.56 275.564 157.362 274.598 157.362 273.489C157.362 272.39 157.56 271.43 157.954 270.609C158.36 269.788 158.93 269.158 159.666 268.721C160.402 268.273 161.256 268.049 162.226 268.049C163.24 268.049 164.088 268.257 164.77 268.673C165.464 269.089 165.981 269.702 166.322 270.513L165.058 271.105C164.824 270.486 164.482 270.022 164.034 269.713C163.586 269.404 163.016 269.249 162.322 269.249C161.597 269.249 160.962 269.42 160.418 269.761C159.874 270.092 159.453 270.577 159.154 271.217C158.856 271.857 158.706 272.614 158.706 273.489C158.706 274.812 159.021 275.852 159.65 276.609C160.29 277.356 161.16 277.729 162.258 277.729C162.973 277.729 163.592 277.548 164.114 277.185C164.637 276.822 165.01 276.289 165.234 275.585L166.514 276.065ZM176.219 277.569L176.219 278.769L168.891 278.769L168.891 268.209L170.171 268.209L170.171 277.569L176.219 277.569Z" fill="black"/>
    <path class="tank-icon-text-color" d="M282.079 33.44C283.743 33.44 285.044 33.8987 285.983 34.816C286.921 35.7333 287.391 37.0347 287.391 38.72C287.391 40.4053 286.921 41.7067 285.983 42.624C285.044 43.5413 283.743 44 282.079 44H278.671V33.44H282.079ZM282.207 42.8C283.412 42.8 284.351 42.4427 285.023 41.728C285.705 41.0027 286.047 40 286.047 38.72C286.047 37.44 285.705 36.4427 285.023 35.728C284.351 35.0027 283.412 34.64 282.207 34.64H279.951V42.8H282.207Z" fill="black"/>
</svg>
