<svg width="550" height="350" viewBox="0 0 550 350" fill="none"
    xmlns="http://www.w3.org/2000/svg">

    <line x1="169.762" y1="93.0137" x2="212.576" y2="93.0137" stroke="#D7D7D7" stroke-width="1.5"/>
    <line x1="169.762" y1="289.513" x2="212.576" y2="289.513" stroke="#D7D7D7" stroke-width="1.5"/>
    <line x1="358.466" y1="36.1333" x2="358.466" y2="93.0695" stroke="#D7D7D7" stroke-width="1.5"/>
    <line x1="213.326" y1="35.439" x2="213.326" y2="92.3752" stroke="#D7D7D7" stroke-width="1.5"/>
    <path d="M358.25 93.1265L358.25 191.722L358.249 290.014C358.249 290.438 357.975 291.215 357.218 292.322C356.483 293.397 355.363 294.683 353.848 296.101C350.818 298.935 346.257 302.251 340.176 305.412C328.019 311.731 309.82 317.416 285.728 317.416C261.644 317.416 243.446 311.429 231.285 304.957C225.202 301.719 220.635 298.363 217.6 295.58C216.081 294.187 214.957 292.948 214.219 291.949C213.85 291.449 213.587 291.022 213.42 290.675C213.245 290.314 213.204 290.102 213.204 290.014L213.204 192.334L213.205 93.1265C213.205 92.5733 213.488 91.7063 214.206 90.5609C214.912 89.4365 215.99 88.1199 217.458 86.6864C220.393 83.8211 224.839 80.5346 230.838 77.426C242.831 71.2115 260.992 65.7275 285.578 65.7275C310.162 65.7275 328.398 71.3123 340.467 77.5786C346.505 80.7131 350.99 84.0135 353.955 86.8625C355.438 88.288 356.529 89.5889 357.243 90.6878C357.974 91.8129 358.25 92.6357 358.25 93.1265Z" fill="#FFFBEA" stroke="#9E9E9E" stroke-width="1.5"/>
    <path d="M186.46 93.4897L183.573 98.4897L189.347 98.4897L186.46 93.4897ZM186.46 289.295L189.347 284.295L183.573 284.295L186.46 289.295ZM185.96 97.9897L185.96 284.795L186.96 284.795L186.96 97.9897L185.96 97.9897Z" fill="#9E9E9E"/>

    <path d="M357.288 48.0742L352.288 45.1875L352.288 50.961L357.288 48.0742ZM214.289 48.0742L219.289 50.961L219.289 45.1875L214.289 48.0742ZM352.788 47.5742L218.789 47.5742L218.789 48.5742L352.788 48.5742L352.788 47.5742Z" fill="#9E9E9E" mask="url(#)"/>
    <line x1="221.94" y1="93.0137" x2="231.978" y2="93.0137" stroke="#9E9E9E" stroke-width="1.5"/>
    <line x1="242.014" y1="93.0137" x2="252.052" y2="93.0137" stroke="#9E9E9E" stroke-width="1.5"/>
    <line x1="262.089" y1="93.0137" x2="272.127" y2="93.0137" stroke="#9E9E9E" stroke-width="1.5"/>
    <line x1="282.168" y1="93.0137" x2="292.206" y2="93.0137" stroke="#9E9E9E" stroke-width="1.5"/>
    <line x1="302.241" y1="93.0137" x2="312.279" y2="93.0137" stroke="#9E9E9E" stroke-width="1.5"/>
    <line x1="322.318" y1="93.0137" x2="332.356" y2="93.0137" stroke="#9E9E9E" stroke-width="1.5"/>
    <line x1="342.392" y1="93.0137" x2="352.43" y2="93.0137" stroke="#9E9E9E" stroke-width="1.5"/>
    <line x1="221.94" y1="289.513" x2="231.978" y2="289.513" stroke="#9E9E9E" stroke-width="1.5"/>
    <line x1="242.014" y1="289.513" x2="252.052" y2="289.513" stroke="#9E9E9E" stroke-width="1.5"/>
    <line x1="262.089" y1="289.513" x2="272.127" y2="289.513" stroke="#9E9E9E" stroke-width="1.5"/>
    <line x1="282.168" y1="289.513" x2="292.206" y2="289.513" stroke="#9E9E9E" stroke-width="1.5"/>
    <line x1="302.241" y1="289.513" x2="312.279" y2="289.513" stroke="#9E9E9E" stroke-width="1.5"/>
    <line x1="322.318" y1="289.513" x2="332.356" y2="289.513" stroke="#9E9E9E" stroke-width="1.5"/>
    <line x1="342.392" y1="289.513" x2="352.43" y2="289.513" stroke="#9E9E9E" stroke-width="1.5"/>
    <path class="tank-icon-text-color" d="M174.211 195.89V197.09H166.883V186.53H168.163V195.89H174.211Z" fill="black"/>
    <path class="tank-icon-text-color" d="M285.079 30.44C286.743 30.44 288.044 30.8987 288.983 31.816C289.922 32.7333 290.391 34.0347 290.391 35.72C290.391 37.4053 289.922 38.7067 288.983 39.624C288.044 40.5413 286.743 41 285.079 41H281.671V30.44H285.079ZM285.207 39.8C286.412 39.8 287.351 39.4427 288.023 38.728C288.706 38.0027 289.047 37 289.047 35.72C289.047 34.44 288.706 33.4427 288.023 32.728C287.351 32.0027 286.412 31.64 285.207 31.64H282.951V39.8H285.207Z" fill="black"/>
</svg>
