<svg width="550" height="350" viewBox="0 0 550 350" fill="none"
    xmlns="http://www.w3.org/2000/svg">

    <line x1="167.762" y1="90.5024" x2="210.576" y2="90.5024" stroke="#D7D7D7" stroke-width="1.5"/>
    <line x1="167.762" y1="291.324" x2="210.576" y2="291.324" stroke="#D7D7D7" stroke-width="1.5"/>
    <line x1="356.466" y1="59.5088" x2="356.466" y2="113.251" stroke="#D7D7D7" stroke-width="1.5"/>
    <line x1="211.325" y1="58.8535" x2="211.325" y2="112.595" stroke="#D7D7D7" stroke-width="1.5"/>
    <path d="M356.25 90.75L356.249 291.25L210.75 291.25L210.752 90.75L356.25 90.75Z" fill="#FFFBEA" stroke="#9E9E9E" stroke-width="1.5"/>
    <path d="M184 90.9937L181.113 95.9937L186.887 95.9937L184 90.9937ZM184 290L186.887 285L181.113 285L184 290ZM183.5 95.4937L183.5 285.5L184.5 285.5L184.5 95.4937L183.5 95.4937Z" fill="#9E9E9E"/>

    <path d="M355.287 70.8076L350.287 67.9209L350.287 73.6944L355.287 70.8076ZM212.288 70.8076L217.288 73.6944L217.288 67.9209L212.288 70.8076ZM350.787 70.3076L216.788 70.3076L216.788 71.3076L350.787 71.3076L350.787 70.3076Z" fill="#9E9E9E" mask="url(#)"/>
    <path class="tank-icon-text-color" d="M176.275 194.8L176.275 196L168.947 196L168.947 185.44L170.227 185.44L170.227 194.8L176.275 194.8Z" fill="black"/>
    <path class="tank-icon-text-color" d="M283.079 54.44C284.743 54.44 286.044 54.8987 286.983 55.816C287.921 56.7333 288.391 58.0347 288.391 59.72C288.391 61.4053 287.921 62.7067 286.983 63.624C286.044 64.5413 284.743 65 283.079 65H279.671V54.44H283.079ZM283.207 63.8C284.412 63.8 285.351 63.4427 286.023 62.728C286.705 62.0027 287.047 61 287.047 59.72C287.047 58.44 286.705 57.4427 286.023 56.728C285.351 56.0027 284.412 55.64 283.207 55.64H280.951V63.8H283.207Z" fill="black"/>
</svg>
