<svg width="550" height="350" viewBox="0 0 550 350" fill="none"
    xmlns="http://www.w3.org/2000/svg">

    <line x1="166.762" y1="109.014" x2="209.576" y2="109.014" stroke="#D7D7D7" stroke-width="1.5"/>
    <line x1="166.762" y1="269.513" x2="209.576" y2="269.513" stroke="#D7D7D7" stroke-width="1.5"/>
    <line x1="355.75" y1="26" x2="355.75" y2="112" stroke="#D7D7D7" stroke-width="1.5"/>
    <line x1="210.75" y1="25" x2="210.75" y2="111" stroke="#D7D7D7" stroke-width="1.5"/>
    <path d="M355.25 112.126L355.249 190.623L355.249 269.014C355.249 290.558 330.764 326.416 282.727 326.416C234.691 326.416 210.203 290.558 210.203 269.014C210.203 258.039 210.204 224.438 210.204 190.784L210.204 190.623C210.204 156.915 210.205 123.19 210.205 112.126C210.205 90.4341 233.576 54.7275 282.578 54.7275C331.584 54.7275 355.25 90.4384 355.25 112.126Z" fill="#FFFBEA" stroke="#9E9E9E" stroke-width="1.5"/>
    <path d="M183.459 110L180.573 115L186.346 115L183.459 110ZM183.459 269L186.346 264L180.573 264L183.459 269ZM182.959 114.5L182.959 264.5L183.959 264.5L183.959 114.5L182.959 114.5Z" fill="#9E9E9E"/>

    <path d="M354.287 42.0742L349.287 39.1875L349.287 44.961L354.287 42.0742ZM211.288 42.0742L216.288 44.961L216.288 39.1875L211.288 42.0742ZM349.787 41.5742L215.788 41.5742L215.788 42.5742L349.787 42.5742L349.787 41.5742Z" fill="#9E9E9E" mask="url(#)"/>
    <line x1="218.939" y1="109.014" x2="228.977" y2="109.014" stroke="#9E9E9E" stroke-width="1.5"/>
    <line x1="239.013" y1="109.014" x2="249.051" y2="109.014" stroke="#9E9E9E" stroke-width="1.5"/>
    <line x1="259.088" y1="109.014" x2="269.126" y2="109.014" stroke="#9E9E9E" stroke-width="1.5"/>
    <line x1="279.167" y1="109.014" x2="289.205" y2="109.014" stroke="#9E9E9E" stroke-width="1.5"/>
    <line x1="299.24" y1="109.014" x2="309.278" y2="109.014" stroke="#9E9E9E" stroke-width="1.5"/>
    <line x1="319.317" y1="109.014" x2="329.355" y2="109.014" stroke="#9E9E9E" stroke-width="1.5"/>
    <line x1="339.391" y1="109.014" x2="349.429" y2="109.014" stroke="#9E9E9E" stroke-width="1.5"/>
    <line x1="218.939" y1="269.513" x2="228.977" y2="269.513" stroke="#9E9E9E" stroke-width="1.5"/>
    <line x1="239.013" y1="269.513" x2="249.051" y2="269.513" stroke="#9E9E9E" stroke-width="1.5"/>
    <line x1="259.088" y1="269.513" x2="269.126" y2="269.513" stroke="#9E9E9E" stroke-width="1.5"/>
    <line x1="279.167" y1="269.513" x2="289.205" y2="269.513" stroke="#9E9E9E" stroke-width="1.5"/>
    <line x1="299.24" y1="269.513" x2="309.278" y2="269.513" stroke="#9E9E9E" stroke-width="1.5"/>
    <line x1="319.317" y1="269.513" x2="329.355" y2="269.513" stroke="#9E9E9E" stroke-width="1.5"/>
    <line x1="339.391" y1="269.513" x2="349.429" y2="269.513" stroke="#9E9E9E" stroke-width="1.5"/>
    <path class="tank-icon-text-color" d="M171.275 193.8V195H163.947V184.44H165.227V193.8H171.275Z" fill="black"/>
    <path class="tank-icon-text-color" d="M282.079 24.44C283.743 24.44 285.044 24.8987 285.983 25.816C286.921 26.7333 287.391 28.0347 287.391 29.72C287.391 31.4053 286.921 32.7067 285.983 33.624C285.044 34.5413 283.743 35 282.079 35H278.671V24.44H282.079ZM282.207 33.8C283.412 33.8 284.351 33.4427 285.023 32.728C285.705 32.0027 286.047 31 286.047 29.72C286.047 28.44 285.705 27.4427 285.023 26.728C284.351 26.0027 283.412 25.64 282.207 25.64H279.951V33.8H282.207Z" fill="black"/>
</svg>
