<svg width="550" height="350" viewBox="0 0 550 350" fill="none"
    xmlns="http://www.w3.org/2000/svg">

    <line x1="162.762" y1="104.014" x2="205.576" y2="104.014" stroke="#D7D7D7" stroke-width="1.5"/>
    <line x1="162.762" y1="274.513" x2="205.576" y2="274.513" stroke="#D7D7D7" stroke-width="1.5"/>
    <path d="M162.5 321.513L274.576 321.513" stroke="#D7D7D7" stroke-width="1.5"/>
    <line x1="351.75" y1="31" x2="351.75" y2="117" stroke="#D7D7D7" stroke-width="1.5"/>
    <line x1="206.75" y1="30" x2="206.75" y2="116" stroke="#D7D7D7" stroke-width="1.5"/>
    <path d="M351.25 107.126L351.249 190.623L351.249 274.014C351.249 295.406 326.942 321.416 278.727 321.416C230.512 321.416 206.203 295.406 206.203 274.014C206.203 263.039 206.204 226.946 206.204 190.796L206.204 190.623C206.204 154.415 206.205 118.19 206.205 107.126C206.205 85.5881 229.397 59.7275 278.578 59.7275C327.763 59.7275 351.25 85.5917 351.25 107.126Z" fill="#FFFBEA" stroke="#9E9E9E" stroke-width="1.5"/>
    <path d="M179.46 105L176.573 110L182.347 110L179.46 105ZM179.46 274L182.347 269L176.573 269L179.46 274ZM178.96 109.5L178.96 269.5L179.96 269.5L179.96 109.5L178.96 109.5Z" fill="#9E9E9E"/>
    <path d="M179.46 275.5L176.573 280.5L182.347 280.5L179.46 275.5ZM179.46 321L182.347 316L176.573 316L179.46 321ZM178.96 280L178.96 316.5L179.96 316.5L179.96 280L178.96 280Z" fill="#9E9E9E"/>

    <path d="M350.287 47.0742L345.287 44.1875L345.287 49.961L350.287 47.0742ZM207.288 47.0742L212.288 49.961L212.288 44.1875L207.288 47.0742ZM345.787 46.5742L211.788 46.5742L211.788 47.5742L345.787 47.5742L345.787 46.5742Z" fill="#9E9E9E" mask="url(#)"/>
    <line x1="214.939" y1="104.014" x2="224.977" y2="104.014" stroke="#9E9E9E" stroke-width="1.5"/>
    <line x1="235.013" y1="104.014" x2="245.051" y2="104.014" stroke="#9E9E9E" stroke-width="1.5"/>
    <line x1="255.088" y1="104.014" x2="265.126" y2="104.014" stroke="#9E9E9E" stroke-width="1.5"/>
    <line x1="275.167" y1="104.014" x2="285.205" y2="104.014" stroke="#9E9E9E" stroke-width="1.5"/>
    <line x1="295.24" y1="104.014" x2="305.278" y2="104.014" stroke="#9E9E9E" stroke-width="1.5"/>
    <line x1="315.317" y1="104.014" x2="325.355" y2="104.014" stroke="#9E9E9E" stroke-width="1.5"/>
    <line x1="335.391" y1="104.014" x2="345.429" y2="104.014" stroke="#9E9E9E" stroke-width="1.5"/>
    <line x1="214.939" y1="274.513" x2="224.977" y2="274.513" stroke="#9E9E9E" stroke-width="1.5"/>
    <line x1="235.013" y1="274.513" x2="245.051" y2="274.513" stroke="#9E9E9E" stroke-width="1.5"/>
    <line x1="255.088" y1="274.513" x2="265.126" y2="274.513" stroke="#9E9E9E" stroke-width="1.5"/>
    <line x1="275.167" y1="274.513" x2="285.205" y2="274.513" stroke="#9E9E9E" stroke-width="1.5"/>
    <line x1="295.24" y1="274.513" x2="305.278" y2="274.513" stroke="#9E9E9E" stroke-width="1.5"/>
    <line x1="315.317" y1="274.513" x2="325.355" y2="274.513" stroke="#9E9E9E" stroke-width="1.5"/>
    <line x1="335.391" y1="274.513" x2="345.429" y2="274.513" stroke="#9E9E9E" stroke-width="1.5"/>
    <path class="tank-icon-text-color" d="M167.275 188.8V190H159.947V179.44H161.227V188.8H167.275Z" fill="black"/>
    <path class="tank-icon-text-color" d="M154.629 292.44C156.293 292.44 157.594 292.899 158.533 293.816C159.472 294.733 159.941 296.035 159.941 297.72C159.941 299.405 159.472 300.707 158.533 301.624C157.594 302.541 156.293 303 154.629 303H151.221V292.44H154.629ZM154.757 301.8C155.962 301.8 156.901 301.443 157.573 300.728C158.256 300.003 158.597 299 158.597 297.72C158.597 296.44 158.256 295.443 157.573 294.728C156.901 294.003 155.962 293.64 154.757 293.64H152.501V301.8H154.757ZM170 301.8V303H162.672V292.44H163.952V301.8H170Z" fill="black"/>
    <path class="tank-icon-text-color" d="M278.079 29.44C279.743 29.44 281.044 29.8987 281.983 30.816C282.921 31.7333 283.391 33.0347 283.391 34.72C283.391 36.4053 282.921 37.7067 281.983 38.624C281.044 39.5413 279.743 40 278.079 40H274.671V29.44H278.079ZM278.207 38.8C279.412 38.8 280.351 38.4427 281.023 37.728C281.705 37.0027 282.047 36 282.047 34.72C282.047 33.44 281.705 32.4427 281.023 31.728C280.351 31.0027 279.412 30.64 278.207 30.64H275.951V38.8H278.207Z" fill="black"/>
</svg>
