<?xml version="1.0" encoding="utf-8"?>
<!-- Generator: Adobe Illustrator 25.2.1, SVG Export Plug-In . SVG Version: 6.00 Build 0)  -->
<svg version="1.1" id="custom_transcend_logo_id"
	xmlns="http://www.w3.org/2000/svg"
	xmlns:xlink="http://www.w3.org/1999/xlink" x="0px" y="0px" viewBox="101 80 468 148" style="enable-background:new 101 80 468 148;" xml:space="preserve">
	<g fill="currentColor">
		<path d="M443.1,154.6l-27.8-72.3h-16.5l34.1,88.6c2,5.2,5.6,7.8,11.2,7.8h7.9l37-96.5h-16.6l-27.7,72.3L443.1,154.6z"/>
		<polygon points="262.4,162.1 231.8,82.3 204.6,82.3 204.6,178.7 220,178.7 220,98.9 221.6,98.9 252.2,178.7 279.5,178.7 
		279.5,82.3 264,82.3 264,162 	"/>
		<path d="M145.6,82.3c-5.6,0-9.2,2.5-11.2,7.8l-34.1,88.7h16.5l8.3-21.7H149l-5.4-14.2h-12.9l14-36.4h1.6l27.7,72.3h16.6l-37.1-96.4
		h-7.9V82.3z"/>
		<path d="M522.3,82.3c5.6,0,9.2,2.5,11.2,7.8l34.1,88.7h-16.5l-8.4-21.7h-23.8l5.4-14.2h12.9l-14-36.4h-1.6L494,178.7h-16.6
		l37.1-96.4C514.5,82.3,522.3,82.3,522.3,82.3z"/>
		<path d="M346.1,81c-26.8,0-48.6,22.1-48.6,49.5s21.7,49.5,48.6,49.5s48.6-22.1,48.6-49.5S372.9,81,346.1,81z M346.1,164.1
		c-18.2,0-33-15.1-33-33.6s14.8-33.6,33-33.6s33,15,33,33.6S364.4,164.1,346.1,164.1z"/>
		<path d="M247.1,207.5h-7.6v19h-4.8v-19H227v-3.8h20.1V207.5z"/>
		<path d="M263.4,217.7h-4.3v8.8h-4.7v-22.8h10.1c2.2-0.1,4.4,0.5,6.1,1.9c1.5,1.3,2.3,3.2,2.2,5.2c0,1.5-0.4,2.9-1.2,4.1
		c-0.9,1.1-2.1,2-3.4,2.4l6,9.3h-5.4L263.4,217.7z M259.2,214.1h4.7c1.1,0.1,2.2-0.2,3.1-0.8c1.3-1.4,1.3-3.6,0-5
		c-0.9-0.6-2-0.9-3.1-0.8h-4.7V214.1z"/>
		<path d="M294.4,220.9h-8.8l-1.9,5.6h-4.9l8.3-22.8h5.7l8.3,22.8h-4.9L294.4,220.9z M293.2,217.4l-2.1-6.4l-1-3.5H290l-1,3.4
		l-2.2,6.5H293.2z"/>
		<path d="M327.7,226.5h-5.5l-8-13.4l-2-3.8l0,0l0.1,4v13.3H308v-22.8h5.5l8,13.4l2,3.9h0.1l-0.1-4v-13.3h4.3L327.7,226.5z"/>
		<path d="M350.9,204.4c1.6,0.8,3,1.9,4,3.3l-3.3,3.2c-0.5-1.1-1.3-2.1-2.4-2.8s-2.5-1-3.8-0.9c-1.1-0.1-2.2,0.2-3.2,0.8
		c-0.7,0.4-1.1,1.2-1.1,2.1c0,0.8,0.4,1.5,1.1,1.9c1.3,0.6,2.7,1,4.1,1.2c1.7,0.3,3.4,0.8,4.9,1.5c1.1,0.5,2,1.2,2.7,2.2
		c1.2,2.2,1.1,4.9-0.4,6.9c-0.9,1.1-2,1.9-3.3,2.4c-1.6,0.6-3.2,0.9-4.9,0.8c-2.1,0.1-4.2-0.3-6.2-1c-1.6-0.7-2.9-1.8-3.9-3.2
		l2.8-3.4c0.7,1.2,1.7,2.3,2.9,2.9c1.3,0.6,2.7,0.9,4.1,0.8c1.2,0.1,2.3-0.2,3.4-0.7c0.7-0.4,1.2-1.2,1.2-2c0-0.7-0.5-1.3-1.1-1.5
		c-1.2-0.6-2.5-1-3.9-1.2c-1.8-0.3-3.5-0.8-5.1-1.6c-1.1-0.5-2.1-1.2-2.8-2.2c-0.6-1-0.9-2.1-0.9-3.2c0-1.3,0.4-2.6,1.1-3.7
		c0.8-1.1,1.9-2,3.2-2.6c1.6-0.7,3.3-1,5-0.9C347.3,203.2,349.2,203.6,350.9,204.4z"/>
		<path d="M378.8,225.2c-1.8,1.2-4,1.7-6.1,1.7c-2,0-4.1-0.4-5.9-1.4c-1.7-0.9-3-2.4-3.8-4.1c-1.8-4-1.8-8.6,0-12.6
		c0.8-1.7,2.2-3.1,3.8-4.1c3.7-1.9,8.1-1.9,11.8,0.1c1.7,1,2.9,2.6,3.4,4.4l-4.3,1.8c-0.2-1.1-0.8-2.2-1.7-2.9
		c-0.9-0.6-2.1-1-3.2-0.9c-1.7-0.1-3.4,0.6-4.5,2c-1.2,1.7-1.8,3.7-1.6,5.8c-0.1,2.1,0.4,4.1,1.6,5.8c1.1,1.4,2.8,2.1,4.5,2
		c2.5,0.2,4.8-1.6,5.3-4l4.4,1.3C381.8,222.2,380.6,224,378.8,225.2z"/>
		<path d="M407.6,222.6v3.8H390v-22.8h17.1v3.8h-12.4v5.7h9.7v3.7h-9.7v5.8H407.6z"/>
		<path d="M434.9,226.5h-5.5l-8-13.4l-2-3.8l0,0l0.1,4v13.3h-4.3v-22.8h5.4l8,13.4l2,3.9h0.1l-0.1-4v-13.3h4.3V226.5z"/>
		<path d="M461.4,206.6c2,2,2.9,4.8,2.9,8.4s-1,6.4-2.9,8.4c-2,2-4.7,3-8.3,3h-8.8v-22.9h8.8C456.7,203.7,459.5,204.6,461.4,206.6z
		 M457.8,220.7c2.2-3.5,2.2-7.9,0-11.3c-1.2-1.4-3-2.1-4.9-2h-3.8v15.2h3.8C454.7,222.8,456.5,222.1,457.8,220.7L457.8,220.7z"/>
	</g>
	<g fill="currentColor">
		<path d="M470.2,204.5h-1.5v3.8h-0.9v-3.8h-1.5v-0.8h4V204.5z"/>
		<path d="M475.9,208.3h-0.9v-2.4l0-1.3h0l-1.3,3.7h-0.8l-1.2-3.7h0l0,1.3v2.4H471v-4.5h1.4l0.8,2.5l0.3,1h0l0.3-1l0.8-2.5h1.3V208.3
		z"/>
	</g>
</svg>
